SplineFontDB: 3.0
FontName: Snippet
FullName: Snippet
FamilyName: Snippet
Weight: Book
Copyright: Copyright (c) 2011 Gesine Todt E^(www.gesine-todt.de), with Reserved Font Name "Snippet". This Font Software is licensed under the SIL Open Font License, Version 1.1. This license is available with a FAQ at: http://scripts.sil.org/OFL
Version: 1.000
ItalicAngle: 0
UnderlinePosition: -50
UnderlineWidth: 50
Ascent: 800
Descent: 200
sfntRevision: 0x00010000
LayerCount: 2
Layer: 0 1 "Back"  1
Layer: 1 1 "Fore"  0
XUID: [1021 288 713564382 13588740]
FSType: 0
OS2Version: 3
OS2_WeightWidthSlopeOnly: 0
OS2_UseTypoMetrics: 1
CreationTime: 1310637300
ModificationTime: 1310637656
PfmFamily: 17
TTFWeight: 400
TTFWidth: 5
LineGap: 0
VLineGap: 0
Panose: 2 0 5 3 4 0 0 2 0 4
OS2TypoAscent: 90
OS2TypoAOffset: 1
OS2TypoDescent: -61
OS2TypoDOffset: 1
OS2TypoLinegap: 0
OS2WinAscent: 0
OS2WinAOffset: 1
OS2WinDescent: 0
OS2WinDOffset: 1
HheadAscent: 0
HheadAOffset: 1
HheadDescent: 0
HheadDOffset: 1
OS2SubXSize: 700
OS2SubYSize: 650
OS2SubXOff: 0
OS2SubYOff: 140
OS2SupXSize: 700
OS2SupYSize: 650
OS2SupXOff: 0
OS2SupYOff: 477
OS2StrikeYSize: 50
OS2StrikeYPos: 250
OS2Vendor: '    '
OS2CodePages: 20000111.40000000
OS2UnicodeRanges: 80000027.00000043.00000000.00000000
Lookup: 258 0 0 "'kern' Horizontal Kerning in Latin lookup 0"  {"'kern' Horizontal Kerning in Latin lookup 0 subtable"  } ['kern' ('DFLT' <'dflt' > 'latn' <'dflt' > ) ]
DEI: 91125
TtTable: prep
PUSHW_1
 511
SCANCTRL
PUSHB_1
 4
SCANTYPE
EndTTInstrs
ShortTable: maxp 16
  1
  0
  218
  99
  5
  0
  0
  2
  0
  1
  1
  0
  64
  0
  0
  0
EndShort

StartChar: exclam
Encoding: 33 33 4
Width: 270
Flags: W
LayerCount: 2
Fore
SplineSet
176 239 m 0,0,1
 176 218 176 218 181 201 c 0,2,3
 183 192 183 192 186 185 c 1,4,-1
 130 173 l 1,5,6
 127 181 127 181 125 192 c 0,7,8
 120 212 120 212 120 239 c 0,9,10
 120 255 120 255 122.5 283 c 128,-1,11
 125 311 125 311 129 345.5 c 128,-1,12
 133 380 133 380 138 418 c 128,-1,13
 143 456 143 456 149 494 c 0,14,15
 161 582 161 582 178 684 c 1,16,-1
 236 684 l 1,17,18
 219 582 219 582 206 494 c 0,19,20
 200 456 200 456 195 418 c 128,-1,21
 190 380 190 380 185.5 345.5 c 128,-1,22
 181 311 181 311 178.5 283 c 128,-1,23
 176 255 176 255 176 239 c 0,0,1
127 45 m 256,24,25
 127 68 127 68 143.5 85 c 128,-1,26
 160 102 160 102 183 102 c 0,27,28
 207 102 207 102 223.5 85 c 128,-1,29
 240 68 240 68 240 45 c 256,30,31
 240 22 240 22 223.5 5.5 c 128,-1,32
 207 -11 207 -11 183 -11 c 0,33,34
 160 -11 160 -11 143.5 5.5 c 128,-1,35
 127 22 127 22 127 45 c 256,24,25
EndSplineSet
EndChar

StartChar: quotedbl
Encoding: 34 34 5
Width: 282
Flags: W
LayerCount: 2
Fore
SplineSet
50 684 m 1,0,-1
 122 684 l 1,1,-1
 112 492 l 1,2,-1
 60 492 l 1,3,-1
 50 684 l 1,0,-1
160 684 m 1,4,-1
 232 684 l 1,5,-1
 222 492 l 1,6,-1
 170 492 l 1,7,-1
 160 684 l 1,4,-1
EndSplineSet
EndChar

StartChar: numbersign
Encoding: 35 35 6
Width: 464
Flags: W
LayerCount: 2
Fore
SplineSet
117 238 m 1,0,-1
 137 345 l 1,1,-1
 65 345 l 1,2,-1
 65 399 l 1,3,-1
 149 399 l 1,4,-1
 185 578 l 1,5,-1
 243 578 l 1,6,-1
 208 399 l 1,7,-1
 301 399 l 1,8,-1
 336 578 l 1,9,-1
 394 578 l 1,10,-1
 359 399 l 1,11,-1
 424 399 l 1,12,-1
 424 345 l 1,13,-1
 347 345 l 1,14,-1
 327 238 l 1,15,-1
 399 238 l 1,16,-1
 399 184 l 1,17,-1
 316 184 l 1,18,-1
 279 0 l 1,19,-1
 221 0 l 1,20,-1
 257 184 l 1,21,-1
 164 184 l 1,22,-1
 128 0 l 1,23,-1
 70 0 l 1,24,-1
 106 184 l 1,25,-1
 40 184 l 1,26,-1
 40 238 l 1,27,-1
 117 238 l 1,0,-1
176 238 m 1,28,-1
 268 238 l 1,29,-1
 288 345 l 1,30,-1
 196 345 l 1,31,-1
 176 238 l 1,28,-1
EndSplineSet
EndChar

StartChar: dollar
Encoding: 36 36 7
Width: 557
Flags: W
LayerCount: 2
Fore
SplineSet
300 750 m 1,0,-1
 300 662 l 1,1,2
 357 657 357 657 407 637 c 128,-1,3
 457 617 457 617 495 590 c 1,4,-1
 462 542 l 1,5,6
 430 562 430 562 390 580.5 c 128,-1,7
 350 599 350 599 300 606 c 1,8,-1
 300 364 l 1,9,10
 336 353 336 353 371 339.5 c 128,-1,11
 406 326 406 326 434 304.5 c 128,-1,12
 462 283 462 283 479.5 250.5 c 128,-1,13
 497 218 497 218 497 169 c 0,14,15
 497 125 497 125 480.5 93 c 128,-1,16
 464 61 464 61 437 39.5 c 128,-1,17
 410 18 410 18 374.5 6.5 c 128,-1,18
 339 -5 339 -5 300 -8 c 1,19,-1
 300 -70 l 1,20,-1
 242 -70 l 1,21,-1
 242 -9 l 1,22,23
 183 -5 183 -5 130.5 15 c 128,-1,24
 78 35 78 35 40 64 c 1,25,-1
 73 112 l 1,26,27
 105 92 105 92 147.5 72.5 c 128,-1,28
 190 53 190 53 242 47 c 1,29,-1
 242 322 l 1,30,31
 210 332 210 332 179.5 346 c 128,-1,32
 149 360 149 360 126 381.5 c 128,-1,33
 103 403 103 403 89 434 c 128,-1,34
 75 465 75 465 75 510 c 0,35,36
 75 539 75 539 86.5 565 c 128,-1,37
 98 591 98 591 120 611 c 128,-1,38
 142 631 142 631 172.5 644.5 c 128,-1,39
 203 658 203 658 242 662 c 1,40,-1
 242 750 l 1,41,-1
 300 750 l 1,0,-1
435 169 m 0,42,43
 435 199 435 199 424 220.5 c 128,-1,44
 413 242 413 242 394.5 257 c 128,-1,45
 376 272 376 272 351.5 283 c 128,-1,46
 327 294 327 294 300 303 c 1,47,-1
 300 46 l 1,48,49
 328 48 328 48 352.5 56 c 128,-1,50
 377 64 377 64 395.5 78.5 c 128,-1,51
 414 93 414 93 424.5 115 c 128,-1,52
 435 137 435 137 435 169 c 0,42,43
137 510 m 0,53,54
 137 484 137 484 145 464 c 128,-1,55
 153 444 153 444 167.5 429 c 128,-1,56
 182 414 182 414 201 403.5 c 128,-1,57
 220 393 220 393 242 384 c 1,58,-1
 242 608 l 1,59,60
 191 603 191 603 164 575.5 c 128,-1,61
 137 548 137 548 137 510 c 0,53,54
EndSplineSet
EndChar

StartChar: percent
Encoding: 37 37 8
Width: 750
Flags: W
LayerCount: 2
Fore
SplineSet
220 366 m 256,0,1
 193 366 193 366 170.5 377.5 c 128,-1,2
 148 389 148 389 132.5 408.5 c 128,-1,3
 117 428 117 428 108.5 455 c 128,-1,4
 100 482 100 482 100 514 c 256,5,6
 100 546 100 546 108.5 573 c 128,-1,7
 117 600 117 600 132.5 620 c 128,-1,8
 148 640 148 640 170.5 651.5 c 128,-1,9
 193 663 193 663 220 663 c 256,10,11
 247 663 247 663 269 651.5 c 128,-1,12
 291 640 291 640 307 620 c 128,-1,13
 323 600 323 600 331.5 572.5 c 128,-1,14
 340 545 340 545 340 514 c 0,15,16
 340 482 340 482 331.5 455 c 128,-1,17
 323 428 323 428 307 408.5 c 128,-1,18
 291 389 291 389 269 377.5 c 128,-1,19
 247 366 247 366 220 366 c 256,0,1
220 623 m 256,20,21
 190 623 190 623 172 592.5 c 128,-1,22
 154 562 154 562 154 514 c 256,23,24
 154 466 154 466 172 436 c 128,-1,25
 190 406 190 406 220 406 c 256,26,27
 250 406 250 406 268 436 c 128,-1,28
 286 466 286 466 286 514 c 256,29,30
 286 562 286 562 268 592.5 c 128,-1,31
 250 623 250 623 220 623 c 256,20,21
553 653 m 1,32,-1
 335 0 l 1,33,-1
 276 0 l 1,34,-1
 495 653 l 1,35,-1
 553 653 l 1,32,-1
610 -10 m 256,36,37
 583 -10 583 -10 560.5 1.5 c 128,-1,38
 538 13 538 13 522.5 32.5 c 128,-1,39
 507 52 507 52 498.5 79 c 128,-1,40
 490 106 490 106 490 138 c 256,41,42
 490 170 490 170 498.5 197 c 128,-1,43
 507 224 507 224 522.5 244 c 128,-1,44
 538 264 538 264 560.5 275.5 c 128,-1,45
 583 287 583 287 610 287 c 256,46,47
 637 287 637 287 659 275.5 c 128,-1,48
 681 264 681 264 697 244 c 128,-1,49
 713 224 713 224 721.5 196.5 c 128,-1,50
 730 169 730 169 730 138 c 0,51,52
 730 106 730 106 721.5 79 c 128,-1,53
 713 52 713 52 697 32.5 c 128,-1,54
 681 13 681 13 659 1.5 c 128,-1,55
 637 -10 637 -10 610 -10 c 256,36,37
610 247 m 256,56,57
 580 247 580 247 562 216.5 c 128,-1,58
 544 186 544 186 544 138 c 256,59,60
 544 90 544 90 562 60 c 128,-1,61
 580 30 580 30 610 30 c 256,62,63
 640 30 640 30 658 60 c 128,-1,64
 676 90 676 90 676 138 c 256,65,66
 676 186 676 186 658 216.5 c 128,-1,67
 640 247 640 247 610 247 c 256,56,57
EndSplineSet
EndChar

StartChar: ampersand
Encoding: 38 38 9
Width: 606
Flags: W
LayerCount: 2
Fore
SplineSet
560 -3 m 1,0,-1
 471 79 l 1,1,2
 433 38 433 38 379 14 c 128,-1,3
 325 -10 325 -10 255 -10 c 0,4,5
 214 -10 214 -10 178.5 2 c 128,-1,6
 143 14 143 14 116.5 37 c 128,-1,7
 90 60 90 60 75 92.5 c 128,-1,8
 60 125 60 125 60 166 c 0,9,10
 60 193 60 193 67 220 c 128,-1,11
 74 247 74 247 87.5 272 c 128,-1,12
 101 297 101 297 122 317.5 c 128,-1,13
 143 338 143 338 171 352 c 1,14,15
 148 378 148 378 134 409 c 128,-1,16
 120 440 120 440 120 480 c 0,17,18
 120 511 120 511 131 539 c 128,-1,19
 142 567 142 567 163.5 588 c 128,-1,20
 185 609 185 609 218.5 621.5 c 128,-1,21
 252 634 252 634 297 634 c 0,22,23
 327 634 327 634 352 631.5 c 128,-1,24
 377 629 377 629 411 626 c 1,25,-1
 411 574 l 1,26,27
 372 577 372 577 344 579.5 c 128,-1,28
 316 582 316 582 290 582 c 0,29,30
 260 582 260 582 240 574 c 128,-1,31
 220 566 220 566 208 552 c 128,-1,32
 196 538 196 538 190.5 519.5 c 128,-1,33
 185 501 185 501 185 480 c 0,34,35
 185 453 185 453 197 429 c 128,-1,36
 209 405 209 405 227.5 383 c 128,-1,37
 246 361 246 361 269 341 c 128,-1,38
 292 321 292 321 314 301 c 2,39,-1
 465 159 l 1,40,41
 485 194 485 194 495 234.5 c 128,-1,42
 505 275 505 275 505 317 c 2,43,-1
 505 357 l 1,44,-1
 558 357 l 1,45,-1
 558 315 l 2,46,47
 558 263 558 263 544.5 214 c 128,-1,48
 531 165 531 165 505 123 c 1,49,-1
 596 38 l 1,50,-1
 560 -3 l 1,0,-1
210 314 m 1,51,52
 162 292 162 292 139.5 252 c 128,-1,53
 117 212 117 212 117 170 c 0,54,55
 117 140 117 140 128 116 c 128,-1,56
 139 92 139 92 158 75.5 c 128,-1,57
 177 59 177 59 202 50.5 c 128,-1,58
 227 42 227 42 255 42 c 0,59,60
 313 42 313 42 357 61.5 c 128,-1,61
 401 81 401 81 432 114 c 1,62,-1
 283 252 l 1,63,-1
 210 314 l 1,51,52
EndSplineSet
EndChar

StartChar: quotesingle
Encoding: 39 39 10
Width: 172
Flags: W
LayerCount: 2
Fore
SplineSet
50 684 m 1,0,-1
 122 684 l 1,1,-1
 112 492 l 1,2,-1
 60 492 l 1,3,-1
 50 684 l 1,0,-1
EndSplineSet
EndChar

StartChar: parenleft
Encoding: 40 40 11
Width: 383
Flags: W
LayerCount: 2
Fore
SplineSet
308 -161 m 1,0,1
 242 -125 242 -125 193.5 -74.5 c 128,-1,2
 145 -24 145 -24 113 35.5 c 128,-1,3
 81 95 81 95 65.5 160.5 c 128,-1,4
 50 226 50 226 50 294 c 256,5,6
 50 362 50 362 65.5 428 c 128,-1,7
 81 494 81 494 113 553.5 c 128,-1,8
 145 613 145 613 193.5 663.5 c 128,-1,9
 242 714 242 714 308 750 c 1,10,-1
 333 707 l 1,11,12
 285 679 285 679 244 634 c 128,-1,13
 203 589 203 589 173.5 534 c 128,-1,14
 144 479 144 479 127.5 417 c 128,-1,15
 111 355 111 355 111 294 c 256,16,17
 111 233 111 233 127.5 171.5 c 128,-1,18
 144 110 144 110 173.5 55 c 128,-1,19
 203 0 203 0 244 -45 c 128,-1,20
 285 -90 285 -90 333 -118 c 1,21,-1
 308 -161 l 1,0,1
EndSplineSet
EndChar

StartChar: parenright
Encoding: 41 41 12
Width: 413
Flags: W
LayerCount: 2
Fore
SplineSet
80 -118 m 1,0,1
 128 -90 128 -90 169 -45 c 128,-1,2
 210 0 210 0 239.5 55 c 128,-1,3
 269 110 269 110 285.5 171.5 c 128,-1,4
 302 233 302 233 302 294 c 256,5,6
 302 355 302 355 285.5 417 c 128,-1,7
 269 479 269 479 239.5 534 c 128,-1,8
 210 589 210 589 169 634 c 128,-1,9
 128 679 128 679 80 707 c 1,10,-1
 105 750 l 1,11,12
 171 714 171 714 219.5 663.5 c 128,-1,13
 268 613 268 613 300 553.5 c 128,-1,14
 332 494 332 494 347.5 428 c 128,-1,15
 363 362 363 362 363 294 c 256,16,17
 363 226 363 226 347.5 160.5 c 128,-1,18
 332 95 332 95 300 35.5 c 128,-1,19
 268 -24 268 -24 219.5 -74.5 c 128,-1,20
 171 -125 171 -125 105 -161 c 1,21,-1
 80 -118 l 1,0,1
EndSplineSet
EndChar

StartChar: asterisk
Encoding: 42 42 13
Width: 415
Flags: W
LayerCount: 2
Fore
SplineSet
231 577 m 1,0,-1
 338 619 l 1,1,-1
 355 562 l 1,2,-1
 251 533 l 1,3,-1
 318 452 l 1,4,-1
 269 418 l 1,5,-1
 208 512 l 1,6,-1
 146 416 l 1,7,-1
 98 452 l 1,8,-1
 166 534 l 1,9,-1
 60 562 l 1,10,-1
 79 619 l 1,11,-1
 184 578 l 1,12,-1
 178 694 l 1,13,-1
 238 694 l 1,14,-1
 231 577 l 1,0,-1
EndSplineSet
EndChar

StartChar: plus
Encoding: 43 43 14
Width: 472
Flags: W
LayerCount: 2
Fore
SplineSet
208 268 m 1,0,-1
 50 268 l 1,1,-1
 50 319 l 1,2,-1
 208 319 l 1,3,-1
 208 479 l 1,4,-1
 264 479 l 1,5,-1
 264 319 l 1,6,-1
 422 319 l 1,7,-1
 422 268 l 1,8,-1
 264 268 l 1,9,-1
 264 107 l 1,10,-1
 208 107 l 1,11,-1
 208 268 l 1,0,-1
EndSplineSet
EndChar

StartChar: comma
Encoding: 44 44 15
Width: 249
Flags: W
LayerCount: 2
Fore
SplineSet
100 52 m 1,0,1
 100 66 100 66 109 75.5 c 128,-1,2
 118 85 118 85 132 85 c 256,3,4
 146 85 146 85 155 75.5 c 128,-1,5
 164 66 164 66 164 52 c 2,6,-1
 164 -8 l 2,7,8
 164 -50 164 -50 148 -91.5 c 128,-1,9
 132 -133 132 -133 94 -160 c 1,10,-1
 60 -127 l 1,11,12
 80 -106 80 -106 90 -77 c 128,-1,13
 100 -48 100 -48 100 -8 c 2,14,-1
 100 52 l 1,15,-1
 100 52 l 1,0,1
EndSplineSet
EndChar

StartChar: hyphen
Encoding: 45 45 16
Width: 497
Flags: W
LayerCount: 2
Fore
SplineSet
397 277 m 1,0,-1
 100 277 l 1,1,-1
 100 334 l 1,2,-1
 397 334 l 1,3,-1
 397 277 l 1,0,-1
EndSplineSet
EndChar

StartChar: period
Encoding: 46 46 17
Width: 313
Flags: W
LayerCount: 2
Fore
SplineSet
100 45 m 256,0,1
 100 68 100 68 116.5 85 c 128,-1,2
 133 102 133 102 156 102 c 0,3,4
 180 102 180 102 196.5 85 c 128,-1,5
 213 68 213 68 213 45 c 256,6,7
 213 22 213 22 196.5 5.5 c 128,-1,8
 180 -11 180 -11 156 -11 c 0,9,10
 133 -11 133 -11 116.5 5.5 c 128,-1,11
 100 22 100 22 100 45 c 256,0,1
EndSplineSet
EndChar

StartChar: slash
Encoding: 47 47 18
Width: 392
Flags: W
LayerCount: 2
Fore
SplineSet
332 750 m 1,0,-1
 114 -70 l 1,1,-1
 50 -70 l 1,2,-1
 269 750 l 1,3,-1
 332 750 l 1,0,-1
EndSplineSet
EndChar

StartChar: zero
Encoding: 48 48 19
Width: 682
Flags: W
LayerCount: 2
Fore
SplineSet
341 -10 m 0,0,1
 279 -10 279 -10 229 16 c 128,-1,2
 179 42 179 42 144 87 c 128,-1,3
 109 132 109 132 89.5 193.5 c 128,-1,4
 70 255 70 255 70 326 c 0,5,6
 70 398 70 398 89.5 459.5 c 128,-1,7
 109 521 109 521 144 566.5 c 128,-1,8
 179 612 179 612 229 637.5 c 128,-1,9
 279 663 279 663 341 663 c 0,10,11
 402 663 402 663 452.5 637 c 128,-1,12
 503 611 503 611 538 566 c 128,-1,13
 573 521 573 521 592.5 459.5 c 128,-1,14
 612 398 612 398 612 326 c 256,15,16
 612 254 612 254 592.5 192.5 c 128,-1,17
 573 131 573 131 538 86 c 128,-1,18
 503 41 503 41 452.5 15.5 c 128,-1,19
 402 -10 402 -10 341 -10 c 0,0,1
342 608 m 0,20,21
 295 608 295 608 256.5 587.5 c 128,-1,22
 218 567 218 567 190.5 529.5 c 128,-1,23
 163 492 163 492 148 440.5 c 128,-1,24
 133 389 133 389 133 326 c 0,25,26
 133 264 133 264 148 212.5 c 128,-1,27
 163 161 163 161 190.5 123.5 c 128,-1,28
 218 86 218 86 256.5 65.5 c 128,-1,29
 295 45 295 45 342 45 c 0,30,31
 388 45 388 45 426.5 65.5 c 128,-1,32
 465 86 465 86 492.5 123 c 128,-1,33
 520 160 520 160 535 212 c 128,-1,34
 550 264 550 264 550 326 c 256,35,36
 550 388 550 388 535 440 c 128,-1,37
 520 492 520 492 492.5 529.5 c 128,-1,38
 465 567 465 567 426.5 587.5 c 128,-1,39
 388 608 388 608 342 608 c 0,20,21
EndSplineSet
EndChar

StartChar: one
Encoding: 49 49 20
Width: 388
Flags: W
LayerCount: 2
Fore
SplineSet
278 669 m 1,0,-1
 278 0 l 1,1,-1
 217 0 l 1,2,-1
 217 573 l 1,3,4
 191 552 191 552 172 541 c 0,5,6
 148 527 148 527 120.5 518 c 128,-1,7
 93 509 93 509 64 509 c 0,8,9
 37 509 37 509 10 521 c 1,10,-1
 22 564 l 1,11,12
 37 561 37 561 51 561 c 0,13,14
 95 561 95 561 145 589 c 0,15,16
 177 607 177 607 205 626 c 128,-1,17
 233 645 233 645 270 669 c 1,18,-1
 278 669 l 1,0,-1
EndSplineSet
EndChar

StartChar: two
Encoding: 50 50 21
Width: 491
Flags: W
LayerCount: 2
Fore
SplineSet
25 13 m 2,0,1
 25 72 25 72 50.5 118 c 128,-1,2
 76 164 76 164 114.5 201.5 c 128,-1,3
 153 239 153 239 198 272 c 128,-1,4
 243 305 243 305 281.5 337.5 c 128,-1,5
 320 370 320 370 345.5 405.5 c 128,-1,6
 371 441 371 441 371 485 c 0,7,8
 371 545 371 545 337.5 578 c 128,-1,9
 304 611 304 611 239 611 c 0,10,11
 226 611 226 611 203.5 610.5 c 128,-1,12
 181 610 181 610 155 608.5 c 128,-1,13
 129 607 129 607 103 605.5 c 128,-1,14
 77 604 77 604 58 603 c 1,15,-1
 58 655 l 1,16,17
 75 656 75 656 98.5 657.5 c 128,-1,18
 122 659 122 659 147 660.5 c 128,-1,19
 172 662 172 662 194.5 662.5 c 128,-1,20
 217 663 217 663 232 663 c 0,21,22
 285 663 285 663 322.5 649.5 c 128,-1,23
 360 636 360 636 383.5 612 c 128,-1,24
 407 588 407 588 417.5 555 c 128,-1,25
 428 522 428 522 428 482 c 0,26,27
 428 432 428 432 405.5 392.5 c 128,-1,28
 383 353 383 353 349 319.5 c 128,-1,29
 315 286 315 286 274 257 c 128,-1,30
 233 228 233 228 195 197.5 c 128,-1,31
 157 167 157 167 128 133 c 128,-1,32
 99 99 99 99 89 57 c 1,33,-1
 461 57 l 1,34,-1
 461 0 l 1,35,-1
 25 0 l 1,36,-1
 25 13 l 2,0,1
EndSplineSet
EndChar

StartChar: three
Encoding: 51 51 22
Width: 499
Flags: W
LayerCount: 2
Fore
SplineSet
347 495 m 0,0,1
 347 555 347 555 313.5 583 c 128,-1,2
 280 611 280 611 215 611 c 0,3,4
 202 611 202 611 181 610.5 c 128,-1,5
 160 610 160 610 136 608.5 c 128,-1,6
 112 607 112 607 87.5 605.5 c 128,-1,7
 63 604 63 604 44 603 c 1,8,-1
 44 655 l 1,9,10
 61 656 61 656 83 657.5 c 128,-1,11
 105 659 105 659 128 660.5 c 128,-1,12
 151 662 151 662 172 662.5 c 128,-1,13
 193 663 193 663 208 663 c 0,14,15
 261 663 261 663 298.5 651 c 128,-1,16
 336 639 336 639 359.5 617 c 128,-1,17
 383 595 383 595 393.5 563.5 c 128,-1,18
 404 532 404 532 404 492 c 0,19,20
 404 450 404 450 390.5 421 c 128,-1,21
 377 392 377 392 352 372 c 1,22,23
 365 361 365 361 380 344 c 128,-1,24
 395 327 395 327 408 304 c 128,-1,25
 421 281 421 281 430 251 c 128,-1,26
 439 221 439 221 439 184 c 0,27,28
 439 85 439 85 377 37.5 c 128,-1,29
 315 -10 315 -10 206 -10 c 0,30,31
 177 -10 177 -10 147 -8.5 c 128,-1,32
 117 -7 117 -7 92 -5 c 0,33,34
 63 -2 63 -2 35 1 c 1,35,-1
 35 55 l 1,36,37
 59 52 59 52 86 50 c 0,38,39
 109 48 109 48 139 46.5 c 128,-1,40
 169 45 169 45 203 45 c 0,41,42
 245 45 245 45 277.5 52.5 c 128,-1,43
 310 60 310 60 333 77 c 128,-1,44
 356 94 356 94 368 121 c 128,-1,45
 380 148 380 148 380 188 c 0,46,47
 380 217 380 217 372 241.5 c 128,-1,48
 364 266 364 266 352.5 285.5 c 128,-1,49
 341 305 341 305 327.5 319.5 c 128,-1,50
 314 334 314 334 303 344 c 1,51,52
 273 333 273 333 236.5 327.5 c 128,-1,53
 200 322 200 322 158 322 c 2,54,-1
 139 322 l 1,55,-1
 139 377 l 1,56,-1
 160 377 l 2,57,58
 195 377 195 377 228.5 380.5 c 128,-1,59
 262 384 262 384 288.5 396 c 128,-1,60
 315 408 315 408 331 431.5 c 128,-1,61
 347 455 347 455 347 495 c 0,0,1
EndSplineSet
EndChar

StartChar: four
Encoding: 52 52 23
Width: 586
Flags: W
LayerCount: 2
Fore
SplineSet
191 653 m 1,0,-1
 139 294 l 1,1,-1
 440 294 l 1,2,-1
 440 653 l 1,3,-1
 501 653 l 1,4,-1
 501 0 l 1,5,-1
 440 0 l 1,6,-1
 440 237 l 1,7,-1
 70 237 l 1,8,-1
 130 653 l 1,9,-1
 191 653 l 1,0,-1
EndSplineSet
EndChar

StartChar: five
Encoding: 53 53 24
Width: 514
Flags: W
LayerCount: 2
Fore
SplineSet
78 338 m 1,0,-1
 78 603 l 1,1,2
 59 610 59 610 43 621 c 128,-1,3
 27 632 27 632 15 649 c 1,4,-1
 48 683 l 1,5,6
 69 663 69 663 98 655 c 128,-1,7
 127 647 127 647 167 647 c 0,8,9
 214 647 214 647 257.5 647.5 c 128,-1,10
 301 648 301 648 336 650 c 1,11,12
 376 651 376 651 412 653 c 1,13,-1
 412 596 l 1,14,15
 377 595 377 595 337 594 c 0,16,17
 302 593 302 593 258.5 592.5 c 128,-1,18
 215 592 215 592 167 592 c 2,19,-1
 139 592 l 1,20,-1
 139 400 l 1,21,22
 151 402 151 402 165 405 c 0,23,24
 177 407 177 407 193 408.5 c 128,-1,25
 209 410 209 410 229 410 c 0,26,27
 337 410 337 410 400.5 361 c 128,-1,28
 464 312 464 312 464 206 c 0,29,30
 464 160 464 160 449 120.5 c 128,-1,31
 434 81 434 81 405 52 c 128,-1,32
 376 23 376 23 332 6.5 c 128,-1,33
 288 -10 288 -10 231 -10 c 0,34,35
 202 -10 202 -10 172 -8.5 c 128,-1,36
 142 -7 142 -7 117 -5 c 0,37,38
 88 -2 88 -2 60 1 c 1,39,-1
 60 56 l 1,40,41
 84 53 84 53 111 51 c 0,42,43
 134 49 134 49 164 47.5 c 128,-1,44
 194 46 194 46 228 46 c 0,45,46
 319 46 319 46 362 90.5 c 128,-1,47
 405 135 405 135 405 210 c 0,48,49
 405 251 405 251 391 279 c 128,-1,50
 377 307 377 307 352 323.5 c 128,-1,51
 327 340 327 340 292 347 c 128,-1,52
 257 354 257 354 214 354 c 0,53,54
 187 354 187 354 163 351 c 128,-1,55
 139 348 139 348 121 344 c 0,56,57
 100 340 100 340 83 334 c 1,58,-1
 78 338 l 1,0,-1
EndSplineSet
EndChar

StartChar: six
Encoding: 54 54 25
Width: 589
Flags: W
LayerCount: 2
Fore
SplineSet
70 326 m 0,0,1
 70 424 70 424 89.5 489 c 128,-1,2
 109 554 109 554 145 592.5 c 128,-1,3
 181 631 181 631 231.5 647 c 128,-1,4
 282 663 282 663 344 663 c 0,5,6
 374 663 374 663 404 660.5 c 128,-1,7
 434 658 434 658 468 655 c 1,8,-1
 468 603 l 1,9,10
 429 606 429 606 396 608.5 c 128,-1,11
 363 611 363 611 337 611 c 0,12,13
 281 611 281 611 243 592 c 128,-1,14
 205 573 205 573 181.5 539.5 c 128,-1,15
 158 506 158 506 146.5 459 c 128,-1,16
 135 412 135 412 133 356 c 1,17,18
 159 367 159 367 203.5 379 c 128,-1,19
 248 391 248 391 306 391 c 0,20,21
 363 391 363 391 403.5 377 c 128,-1,22
 444 363 444 363 469.5 338 c 128,-1,23
 495 313 495 313 507 277.5 c 128,-1,24
 519 242 519 242 519 200 c 0,25,26
 519 153 519 153 506.5 114.5 c 128,-1,27
 494 76 494 76 468 48 c 128,-1,28
 442 20 442 20 401.5 5 c 128,-1,29
 361 -10 361 -10 306 -10 c 0,30,31
 242 -10 242 -10 197 16 c 128,-1,32
 152 42 152 42 124 87 c 128,-1,33
 96 132 96 132 83 193.5 c 128,-1,34
 70 255 70 255 70 326 c 0,0,1
307 336 m 0,35,36
 253 336 253 336 206 323.5 c 128,-1,37
 159 311 159 311 133 302 c 1,38,39
 135 245 135 245 147.5 197.5 c 128,-1,40
 160 150 160 150 182 116.5 c 128,-1,41
 204 83 204 83 235 64 c 128,-1,42
 266 45 266 45 307 45 c 0,43,44
 350 45 350 45 379 56.5 c 128,-1,45
 408 68 408 68 425.5 89 c 128,-1,46
 443 110 443 110 450.5 139 c 128,-1,47
 458 168 458 168 458 202 c 0,48,49
 458 268 458 268 421.5 302 c 128,-1,50
 385 336 385 336 307 336 c 0,35,36
EndSplineSet
EndChar

StartChar: seven
Encoding: 55 55 26
Width: 462
Flags: W
LayerCount: 2
Fore
SplineSet
427 645 m 1,0,-1
 173 0 l 1,1,-1
 109 0 l 1,2,-1
 348 596 l 1,3,4
 299 594 299 594 251.5 593.5 c 128,-1,5
 204 593 204 593 172 593 c 0,6,7
 151 593 151 593 130 594.5 c 128,-1,8
 109 596 109 596 89 602 c 128,-1,9
 69 608 69 608 51 619 c 128,-1,10
 33 630 33 630 20 649 c 1,11,-1
 53 683 l 1,12,13
 74 663 74 663 103 655.5 c 128,-1,14
 132 648 132 648 172 648 c 0,15,16
 195 648 195 648 226 649 c 128,-1,17
 257 650 257 650 291 650.5 c 128,-1,18
 325 651 325 651 360 652 c 128,-1,19
 395 653 395 653 427 653 c 1,20,-1
 427 645 l 1,0,-1
EndSplineSet
EndChar

StartChar: eight
Encoding: 56 56 27
Width: 577
Flags: W
LayerCount: 2
Fore
SplineSet
65 182 m 0,0,1
 65 218 65 218 76 246.5 c 128,-1,2
 87 275 87 275 104 298 c 128,-1,3
 121 321 121 321 141.5 339 c 128,-1,4
 162 357 162 357 182 372 c 1,5,6
 149 391 149 391 125 422 c 128,-1,7
 101 453 101 453 101 501 c 0,8,9
 101 535 101 535 114 565 c 128,-1,10
 127 595 127 595 151 617.5 c 128,-1,11
 175 640 175 640 209.5 653 c 128,-1,12
 244 666 244 666 288 666 c 0,13,14
 331 666 331 666 366 652.5 c 128,-1,15
 401 639 401 639 425 616.5 c 128,-1,16
 449 594 449 594 462 564 c 128,-1,17
 475 534 475 534 475 501 c 0,18,19
 475 476 475 476 466.5 455 c 128,-1,20
 458 434 458 434 444.5 416.5 c 128,-1,21
 431 399 431 399 415 385 c 128,-1,22
 399 371 399 371 383 361 c 1,23,24
 407 350 407 350 430 334.5 c 128,-1,25
 453 319 453 319 471.5 297.5 c 128,-1,26
 490 276 490 276 501 247.5 c 128,-1,27
 512 219 512 219 512 182 c 0,28,29
 512 141 512 141 498 105 c 128,-1,30
 484 69 484 69 456.5 42 c 128,-1,31
 429 15 429 15 387 -0.5 c 128,-1,32
 345 -16 345 -16 289 -16 c 256,33,34
 233 -16 233 -16 191 -0.5 c 128,-1,35
 149 15 149 15 121 42 c 128,-1,36
 93 69 93 69 79 105 c 128,-1,37
 65 141 65 141 65 182 c 0,0,1
238 348 m 1,38,39
 220 333 220 333 200.5 316 c 128,-1,40
 181 299 181 299 164.5 279 c 128,-1,41
 148 259 148 259 137.5 235.5 c 128,-1,42
 127 212 127 212 127 184 c 0,43,44
 127 121 127 121 168 79.5 c 128,-1,45
 209 38 209 38 289 38 c 256,46,47
 369 38 369 38 409.5 79.5 c 128,-1,48
 450 121 450 121 450 184 c 0,49,50
 450 222 450 222 433 248 c 128,-1,51
 416 274 416 274 389 292 c 128,-1,52
 362 310 362 310 328 321.5 c 128,-1,53
 294 333 294 333 260 342 c 2,54,-1
 238 348 l 1,38,39
304 389 m 0,55,56
 309 387 309 387 315 385.5 c 128,-1,57
 321 384 321 384 328 382 c 1,58,59
 361 405 361 405 387 432.5 c 128,-1,60
 413 460 413 460 413 500 c 0,61,62
 413 548 413 548 379 579.5 c 128,-1,63
 345 611 345 611 288 611 c 256,64,65
 231 611 231 611 197 579.5 c 128,-1,66
 163 548 163 548 163 500 c 0,67,68
 163 473 163 473 176 454.5 c 128,-1,69
 189 436 189 436 209.5 424 c 128,-1,70
 230 412 230 412 255 404 c 128,-1,71
 280 396 280 396 304 389 c 0,55,56
EndSplineSet
EndChar

StartChar: nine
Encoding: 57 57 28
Width: 589
Flags: W
LayerCount: 2
Fore
SplineSet
519 327 m 0,0,1
 519 229 519 229 499.5 164 c 128,-1,2
 480 99 480 99 444 60.5 c 128,-1,3
 408 22 408 22 357.5 6 c 128,-1,4
 307 -10 307 -10 245 -10 c 0,5,6
 215 -10 215 -10 185 -7.5 c 128,-1,7
 155 -5 155 -5 121 -2 c 1,8,-1
 121 50 l 1,9,10
 160 47 160 47 193 44.5 c 128,-1,11
 226 42 226 42 252 42 c 0,12,13
 307 42 307 42 345 60.5 c 128,-1,14
 383 79 383 79 407 113 c 128,-1,15
 431 147 431 147 442 194 c 128,-1,16
 453 241 453 241 455 297 c 1,17,18
 430 286 430 286 385 274 c 128,-1,19
 340 262 340 262 283 262 c 256,20,21
 226 262 226 262 185.5 276 c 128,-1,22
 145 290 145 290 119.5 315 c 128,-1,23
 94 340 94 340 82 375.5 c 128,-1,24
 70 411 70 411 70 453 c 0,25,26
 70 500 70 500 82.5 538.5 c 128,-1,27
 95 577 95 577 121 605 c 128,-1,28
 147 633 147 633 187 648 c 128,-1,29
 227 663 227 663 283 663 c 0,30,31
 347 663 347 663 392 637 c 128,-1,32
 437 611 437 611 465 566 c 128,-1,33
 493 521 493 521 506 459.5 c 128,-1,34
 519 398 519 398 519 327 c 0,0,1
282 317 m 0,35,36
 336 317 336 317 383 329 c 128,-1,37
 430 341 430 341 455 351 c 1,38,39
 453 408 453 408 441 455.5 c 128,-1,40
 429 503 429 503 407 536.5 c 128,-1,41
 385 570 385 570 353.5 589 c 128,-1,42
 322 608 322 608 282 608 c 0,43,44
 239 608 239 608 210 596.5 c 128,-1,45
 181 585 181 585 163.5 564 c 128,-1,46
 146 543 146 543 138.5 514 c 128,-1,47
 131 485 131 485 131 451 c 0,48,49
 131 385 131 385 167.5 351 c 128,-1,50
 204 317 204 317 282 317 c 0,35,36
EndSplineSet
EndChar

StartChar: colon
Encoding: 58 58 29
Width: 313
Flags: W
LayerCount: 2
Fore
SplineSet
120 442 m 256,0,1
 120 465 120 465 136.5 482 c 128,-1,2
 153 499 153 499 176 499 c 0,3,4
 200 499 200 499 216.5 482 c 128,-1,5
 233 465 233 465 233 442 c 256,6,7
 233 419 233 419 216.5 402.5 c 128,-1,8
 200 386 200 386 176 386 c 0,9,10
 153 386 153 386 136.5 402.5 c 128,-1,11
 120 419 120 419 120 442 c 256,0,1
120 45 m 256,12,13
 120 68 120 68 136.5 85 c 128,-1,14
 153 102 153 102 176 102 c 0,15,16
 200 102 200 102 216.5 85 c 128,-1,17
 233 68 233 68 233 45 c 256,18,19
 233 22 233 22 216.5 5.5 c 128,-1,20
 200 -11 200 -11 176 -11 c 0,21,22
 153 -11 153 -11 136.5 5.5 c 128,-1,23
 120 22 120 22 120 45 c 256,12,13
EndSplineSet
EndChar

StartChar: semicolon
Encoding: 59 59 30
Width: 313
Flags: W
LayerCount: 2
Fore
SplineSet
120 442 m 256,0,1
 120 465 120 465 136.5 482 c 128,-1,2
 153 499 153 499 176 499 c 0,3,4
 200 499 200 499 216.5 482 c 128,-1,5
 233 465 233 465 233 442 c 256,6,7
 233 419 233 419 216.5 402.5 c 128,-1,8
 200 386 200 386 176 386 c 0,9,10
 153 386 153 386 136.5 402.5 c 128,-1,11
 120 419 120 419 120 442 c 256,0,1
143 52 m 2,12,13
 143 66 143 66 152 75.5 c 128,-1,14
 161 85 161 85 175 85 c 256,15,16
 189 85 189 85 198 75.5 c 128,-1,17
 207 66 207 66 207 52 c 2,18,-1
 207 -8 l 2,19,20
 207 -50 207 -50 191 -91.5 c 128,-1,21
 175 -133 175 -133 137 -160 c 1,22,-1
 103 -127 l 1,23,24
 123 -106 123 -106 133 -77 c 128,-1,25
 143 -48 143 -48 143 -8 c 2,26,-1
 143 52 l 2,12,13
EndSplineSet
EndChar

StartChar: less
Encoding: 60 60 31
Width: 391
Flags: W
LayerCount: 2
Fore
SplineSet
296 450 m 1,0,-1
 328 403 l 1,1,-1
 132 267 l 1,2,-1
 330 129 l 1,3,-1
 296 80 l 1,4,-1
 30 265 l 1,5,-1
 296 450 l 1,0,-1
EndSplineSet
EndChar

StartChar: equal
Encoding: 61 61 32
Width: 472
Flags: W
LayerCount: 2
Fore
SplineSet
412 399 m 1,0,-1
 412 347 l 1,1,-1
 60 347 l 1,2,-1
 60 399 l 1,3,-1
 412 399 l 1,0,-1
412 239 m 1,4,-1
 412 187 l 1,5,-1
 60 187 l 1,6,-1
 60 239 l 1,7,-1
 412 239 l 1,4,-1
EndSplineSet
EndChar

StartChar: greater
Encoding: 62 62 33
Width: 391
Flags: W
LayerCount: 2
Fore
SplineSet
94 80 m 1,0,-1
 62 127 l 1,1,-1
 258 263 l 1,2,-1
 60 401 l 1,3,-1
 94 450 l 1,4,-1
 360 265 l 1,5,-1
 94 80 l 1,0,-1
EndSplineSet
EndChar

StartChar: question
Encoding: 63 63 34
Width: 430
Flags: W
LayerCount: 2
Fore
SplineSet
363 517 m 0,0,1
 363 577 363 577 329.5 610 c 128,-1,2
 296 643 296 643 231 643 c 0,3,4
 218 643 218 643 195.5 642.5 c 128,-1,5
 173 642 173 642 147 640.5 c 128,-1,6
 121 639 121 639 95 637.5 c 128,-1,7
 69 636 69 636 50 635 c 1,8,-1
 50 687 l 1,9,10
 67 688 67 688 90.5 689.5 c 128,-1,11
 114 691 114 691 139 692.5 c 128,-1,12
 164 694 164 694 186.5 694.5 c 128,-1,13
 209 695 209 695 224 695 c 0,14,15
 277 695 277 695 314.5 681.5 c 128,-1,16
 352 668 352 668 375.5 644 c 128,-1,17
 399 620 399 620 409.5 587 c 128,-1,18
 420 554 420 554 420 514 c 0,19,20
 420 472 420 472 404 442.5 c 128,-1,21
 388 413 388 413 364.5 391 c 128,-1,22
 341 369 341 369 313 352.5 c 128,-1,23
 285 336 285 336 261.5 320 c 128,-1,24
 238 304 238 304 222 285 c 128,-1,25
 206 266 206 266 206 239 c 0,26,27
 206 218 206 218 211 201 c 0,28,29
 213 192 213 192 216 185 c 1,30,-1
 157 173 l 1,31,32
 154 181 154 181 152 192 c 0,33,34
 147 212 147 212 147 239 c 0,35,36
 147 278 147 278 163 304 c 128,-1,37
 179 330 179 330 203 349.5 c 128,-1,38
 227 369 227 369 255 384 c 128,-1,39
 283 399 283 399 307 417 c 128,-1,40
 331 435 331 435 347 458.5 c 128,-1,41
 363 482 363 482 363 517 c 0,0,1
161 45 m 256,42,43
 161 68 161 68 177.5 85 c 128,-1,44
 194 102 194 102 217 102 c 0,45,46
 241 102 241 102 257.5 85 c 128,-1,47
 274 68 274 68 274 45 c 256,48,49
 274 22 274 22 257.5 5.5 c 128,-1,50
 241 -11 241 -11 217 -11 c 0,51,52
 194 -11 194 -11 177.5 5.5 c 128,-1,53
 161 22 161 22 161 45 c 256,42,43
EndSplineSet
EndChar

StartChar: at
Encoding: 64 64 35
Width: 759
Flags: W
LayerCount: 2
Fore
SplineSet
547 133 m 0,0,1
 560 133 560 133 575 140 c 128,-1,2
 590 147 590 147 602.5 162 c 128,-1,3
 615 177 615 177 623 201 c 128,-1,4
 631 225 631 225 631 258 c 0,5,6
 631 314 631 314 613 359.5 c 128,-1,7
 595 405 595 405 562.5 436.5 c 128,-1,8
 530 468 530 468 485.5 485 c 128,-1,9
 441 502 441 502 388 502 c 0,10,11
 332 502 332 502 287 482 c 128,-1,12
 242 462 242 462 210 427 c 128,-1,13
 178 392 178 392 161 343 c 128,-1,14
 144 294 144 294 144 236 c 0,15,16
 144 180 144 180 162 134 c 128,-1,17
 180 88 180 88 212 56 c 128,-1,18
 244 24 244 24 289 6.5 c 128,-1,19
 334 -11 334 -11 388 -11 c 0,20,21
 454 -11 454 -11 504.5 3 c 128,-1,22
 555 17 555 17 583 26 c 1,23,-1
 597 -19 l 1,24,25
 582 -24 582 -24 559 -31 c 128,-1,26
 536 -38 536 -38 508 -44 c 128,-1,27
 480 -50 480 -50 449.5 -54.5 c 128,-1,28
 419 -59 419 -59 388 -59 c 0,29,30
 321 -59 321 -59 266 -38 c 128,-1,31
 211 -17 211 -17 172 21.5 c 128,-1,32
 133 60 133 60 111.5 113.5 c 128,-1,33
 90 167 90 167 90 233 c 0,34,35
 90 302 90 302 110.5 360 c 128,-1,36
 131 418 131 418 169.5 460 c 128,-1,37
 208 502 208 502 263.5 525.5 c 128,-1,38
 319 549 319 549 388 549 c 0,39,40
 455 549 455 549 509.5 527.5 c 128,-1,41
 564 506 564 506 603 467.5 c 128,-1,42
 642 429 642 429 663 375 c 128,-1,43
 684 321 684 321 684 256 c 0,44,45
 684 214 684 214 672 182.5 c 128,-1,46
 660 151 660 151 641 130 c 128,-1,47
 622 109 622 109 597 98.5 c 128,-1,48
 572 88 572 88 547 88 c 0,49,50
 459 88 459 88 445 170 c 1,51,52
 437 144 437 144 415.5 126 c 128,-1,53
 394 108 394 108 358 108 c 256,54,55
 322 108 322 108 298 130 c 128,-1,56
 274 152 274 152 274 194 c 0,57,58
 274 217 274 217 284.5 233 c 128,-1,59
 295 249 295 249 312.5 258.5 c 128,-1,60
 330 268 330 268 351.5 272.5 c 128,-1,61
 373 277 373 277 395 277 c 2,62,-1
 435 277 l 1,63,-1
 435 301 l 2,64,65
 435 327 435 327 421 342 c 128,-1,66
 407 357 407 357 381 357 c 0,67,68
 361 357 361 357 343.5 350 c 128,-1,69
 326 343 326 343 308 333 c 1,70,-1
 286 369 l 1,71,72
 305 380 305 380 331 390 c 128,-1,73
 357 400 357 400 381 400 c 0,74,75
 432 400 432 400 456.5 375.5 c 128,-1,76
 481 351 481 351 481 306 c 2,77,-1
 481 214 l 2,78,79
 481 190 481 190 487 174.5 c 128,-1,80
 493 159 493 159 503 150 c 128,-1,81
 513 141 513 141 524.5 137 c 128,-1,82
 536 133 536 133 547 133 c 0,0,1
369 149 m 0,83,84
 381 149 381 149 391.5 156.5 c 128,-1,85
 402 164 402 164 411 176 c 128,-1,86
 420 188 420 188 426 204.5 c 128,-1,87
 432 221 432 221 434 239 c 1,88,-1
 395 239 l 2,89,90
 382 239 382 239 368.5 237 c 128,-1,91
 355 235 355 235 344.5 229.5 c 128,-1,92
 334 224 334 224 327.5 215.5 c 128,-1,93
 321 207 321 207 321 194 c 0,94,95
 321 174 321 174 334.5 161.5 c 128,-1,96
 348 149 348 149 369 149 c 0,83,84
EndSplineSet
EndChar

StartChar: A
Encoding: 65 65 36
Width: 635
Flags: W
LayerCount: 2
Fore
SplineSet
326 703 m 1,0,-1
 625 0 l 1,1,-1
 561 0 l 1,2,-1
 464 227 l 1,3,-1
 169 227 l 1,4,-1
 74 0 l 1,5,-1
 10 0 l 1,6,-1
 307 703 l 1,7,-1
 326 703 l 1,0,-1
193 284 m 1,8,-1
 440 284 l 1,9,-1
 341 517 l 2,10,11
 333 536 333 536 326.5 557.5 c 128,-1,12
 320 579 320 579 316 595 c 1,13,14
 312 578 312 578 306 556.5 c 128,-1,15
 300 535 300 535 292 517 c 2,16,-1
 193 284 l 1,8,-1
EndSplineSet
EndChar

StartChar: B
Encoding: 66 66 37
Width: 618
Flags: W
LayerCount: 2
Fore
SplineSet
320 694 m 0,0,1
 365 694 365 694 402 681 c 128,-1,2
 439 668 439 668 465.5 644 c 128,-1,3
 492 620 492 620 507 587 c 128,-1,4
 522 554 522 554 522 514 c 0,5,6
 522 460 522 460 496.5 423.5 c 128,-1,7
 471 387 471 387 426 367 c 1,8,9
 484 344 484 344 518.5 295.5 c 128,-1,10
 553 247 553 247 553 186 c 0,11,12
 553 141 553 141 537 105 c 128,-1,13
 521 69 521 69 491 43 c 128,-1,14
 461 17 461 17 417.5 3 c 128,-1,15
 374 -11 374 -11 320 -11 c 0,16,17
 272 -11 272 -11 235 -9.5 c 128,-1,18
 198 -8 198 -8 172 -6 c 0,19,20
 142 -3 142 -3 119 0 c 1,21,-1
 119 631 l 1,22,23
 87 636 87 636 58.5 649 c 128,-1,24
 30 662 30 662 10 690 c 1,25,-1
 43 724 l 1,26,27
 64 704 64 704 93 694 c 128,-1,28
 122 684 122 684 162 684 c 0,29,30
 185 684 185 684 201 685.5 c 128,-1,31
 217 687 217 687 233 689 c 128,-1,32
 249 691 249 691 268.5 692.5 c 128,-1,33
 288 694 288 694 320 694 c 0,0,1
180 334 m 1,34,-1
 180 49 l 1,35,36
 209 47 209 47 245 45.5 c 128,-1,37
 281 44 281 44 317 44 c 0,38,39
 401 44 401 44 447.5 82 c 128,-1,40
 494 120 494 120 494 190 c 0,41,42
 494 220 494 220 481.5 246 c 128,-1,43
 469 272 469 272 447 291.5 c 128,-1,44
 425 311 425 311 394 322 c 128,-1,45
 363 333 363 333 326 334 c 1,46,-1
 322 334 l 1,47,-1
 180 334 l 1,34,-1
317 639 m 0,48,49
 285 639 285 639 266 637.5 c 128,-1,50
 247 636 247 636 233.5 634.5 c 128,-1,51
 220 633 220 633 208 631 c 128,-1,52
 196 629 196 629 180 629 c 1,53,-1
 180 389 l 1,54,-1
 319 389 l 2,55,56
 382 389 382 389 422 421.5 c 128,-1,57
 462 454 462 454 462 514 c 256,58,59
 462 574 462 574 422.5 606.5 c 128,-1,60
 383 639 383 639 317 639 c 0,48,49
EndSplineSet
EndChar

StartChar: C
Encoding: 67 67 38
Width: 644
Flags: W
LayerCount: 2
Fore
SplineSet
60 342 m 1,0,1
 60 417 60 417 84 481 c 128,-1,2
 108 545 108 545 151 592.5 c 128,-1,3
 194 640 194 640 254.5 667 c 128,-1,4
 315 694 315 694 388 694 c 0,5,6
 496 694 496 694 550 656 c 128,-1,7
 604 618 604 618 604 555 c 0,8,9
 604 527 604 527 592 503.5 c 128,-1,10
 580 480 580 480 553.5 462.5 c 128,-1,11
 527 445 527 445 486 435.5 c 128,-1,12
 445 426 445 426 388 426 c 2,13,-1
 130 426 l 1,14,15
 121 387 121 387 121 342 c 1,16,-1
 60 342 l 1,0,1
388 639 m 0,17,18
 303 639 303 639 240.5 596 c 128,-1,19
 178 553 178 553 146 478 c 1,20,-1
 388 478 l 2,21,22
 433 478 433 478 462.5 483 c 128,-1,23
 492 488 492 488 509.5 498 c 128,-1,24
 527 508 527 508 534 522.5 c 128,-1,25
 541 537 541 537 541 555 c 0,26,27
 541 597 541 597 502 618 c 128,-1,28
 463 639 463 639 388 639 c 0,17,18
348 -10 m 0,29,30
 274 -10 274 -10 219.5 17 c 128,-1,31
 165 44 165 44 129.5 91.5 c 128,-1,32
 94 139 94 139 77 203.5 c 128,-1,33
 60 268 60 268 60 342 c 1,34,-1
 121 342 l 1,35,36
 121 276 121 276 135.5 221.5 c 128,-1,37
 150 167 150 167 178.5 128 c 128,-1,38
 207 89 207 89 249.5 67 c 128,-1,39
 292 45 292 45 348 45 c 0,40,41
 379 45 379 45 412.5 53.5 c 128,-1,42
 446 62 446 62 476.5 74 c 128,-1,43
 507 86 507 86 532 99.5 c 128,-1,44
 557 113 557 113 573 123 c 1,45,-1
 599 78 l 1,46,47
 584 66 584 66 558.5 50.5 c 128,-1,48
 533 35 533 35 500 21.5 c 128,-1,49
 467 8 467 8 428.5 -1 c 128,-1,50
 390 -10 390 -10 348 -10 c 0,29,30
EndSplineSet
EndChar

StartChar: D
Encoding: 68 68 39
Width: 769
Flags: W
LayerCount: 2
Fore
SplineSet
114 631 m 1,0,1
 82 636 82 636 53.5 649 c 128,-1,2
 25 662 25 662 5 690 c 1,3,-1
 38 724 l 1,4,5
 59 704 59 704 88 694 c 128,-1,6
 117 684 117 684 157 684 c 0,7,8
 204 684 204 684 251.5 689 c 128,-1,9
 299 694 299 694 362 694 c 0,10,11
 442 694 442 694 506 667 c 128,-1,12
 570 640 570 640 615 592.5 c 128,-1,13
 660 545 660 545 684.5 481 c 128,-1,14
 709 417 709 417 709 342 c 256,15,16
 709 267 709 267 684.5 202.5 c 128,-1,17
 660 138 660 138 615 91 c 128,-1,18
 570 44 570 44 506 17 c 128,-1,19
 442 -10 442 -10 362 -10 c 0,20,21
 285 -10 285 -10 236.5 -8.5 c 128,-1,22
 188 -7 188 -7 161 -5 c 0,23,24
 128 -3 128 -3 114 0 c 1,25,-1
 114 631 l 1,0,1
362 639 m 0,26,27
 307 639 307 639 262 634.5 c 128,-1,28
 217 630 217 630 175 629 c 1,29,-1
 175 50 l 1,30,31
 206 48 206 48 251.5 46.5 c 128,-1,32
 297 45 297 45 362 45 c 0,33,34
 428 45 428 45 481 66.5 c 128,-1,35
 534 88 534 88 571.5 127.5 c 128,-1,36
 609 167 609 167 629 221.5 c 128,-1,37
 649 276 649 276 649 342 c 256,38,39
 649 408 649 408 629 462.5 c 128,-1,40
 609 517 609 517 571.5 556 c 128,-1,41
 534 595 534 595 481 617 c 128,-1,42
 428 639 428 639 362 639 c 0,26,27
EndSplineSet
EndChar

StartChar: E
Encoding: 69 69 40
Width: 593
Flags: W
LayerCount: 2
Fore
SplineSet
563 0 m 1,0,-1
 95 0 l 1,1,-1
 95 684 l 1,2,-1
 543 684 l 1,3,-1
 543 627 l 1,4,-1
 156 627 l 1,5,-1
 156 390 l 1,6,-1
 473 390 l 1,7,-1
 473 333 l 1,8,-1
 156 333 l 1,9,-1
 156 57 l 1,10,-1
 563 57 l 1,11,-1
 563 0 l 1,0,-1
EndSplineSet
EndChar

StartChar: F
Encoding: 70 70 41
Width: 553
Flags: W
LayerCount: 2
Fore
SplineSet
473 325 m 1,0,-1
 156 325 l 1,1,-1
 156 0 l 1,2,-1
 95 0 l 1,3,-1
 95 684 l 1,4,-1
 543 684 l 1,5,-1
 543 627 l 1,6,-1
 156 627 l 1,7,-1
 156 382 l 1,8,-1
 473 382 l 1,9,-1
 473 325 l 1,0,-1
EndSplineSet
EndChar

StartChar: G
Encoding: 71 71 42
Width: 689
Flags: W
LayerCount: 2
Fore
SplineSet
606 313 m 1,0,-1
 606 -250 l 1,1,-1
 547 -250 l 1,2,-1
 547 75 l 1,3,4
 522 40 522 40 477.5 15 c 128,-1,5
 433 -10 433 -10 358 -10 c 0,6,7
 280 -10 280 -10 223.5 17 c 128,-1,8
 167 44 167 44 131 91.5 c 128,-1,9
 95 139 95 139 77.5 203.5 c 128,-1,10
 60 268 60 268 60 342 c 0,11,12
 60 417 60 417 84 481 c 128,-1,13
 108 545 108 545 152.5 592.5 c 128,-1,14
 197 640 197 640 259 667 c 128,-1,15
 321 694 321 694 398 694 c 0,16,17
 506 694 506 694 565 656 c 128,-1,18
 624 618 624 618 624 555 c 0,19,20
 624 527 624 527 612 503.5 c 128,-1,21
 600 480 600 480 573.5 462.5 c 128,-1,22
 547 445 547 445 506 435.5 c 128,-1,23
 465 426 465 426 408 426 c 2,24,-1
 130 426 l 1,25,26
 121 387 121 387 121 342 c 0,27,28
 121 276 121 276 136 221.5 c 128,-1,29
 151 167 151 167 180.5 128 c 128,-1,30
 210 89 210 89 254.5 67 c 128,-1,31
 299 45 299 45 358 45 c 0,32,33
 424 45 424 45 462 68.5 c 128,-1,34
 500 92 500 92 519 123 c 128,-1,35
 538 154 538 154 542.5 184.5 c 128,-1,36
 547 215 547 215 547 230 c 2,37,-1
 547 313 l 1,38,-1
 606 313 l 1,0,-1
398 639 m 0,39,40
 308 639 308 639 243.5 596 c 128,-1,41
 179 553 179 553 147 478 c 1,42,-1
 408 478 l 2,43,44
 453 478 453 478 482.5 483 c 128,-1,45
 512 488 512 488 529.5 498 c 128,-1,46
 547 508 547 508 554 522.5 c 128,-1,47
 561 537 561 537 561 555 c 0,48,49
 561 597 561 597 517 618 c 128,-1,50
 473 639 473 639 398 639 c 0,39,40
EndSplineSet
EndChar

StartChar: H
Encoding: 72 72 43
Width: 681
Flags: W
LayerCount: 2
Fore
SplineSet
586 684 m 1,0,-1
 586 0 l 1,1,-1
 525 0 l 1,2,-1
 525 327 l 1,3,-1
 156 327 l 1,4,-1
 156 0 l 1,5,-1
 95 0 l 1,6,-1
 95 684 l 1,7,-1
 156 684 l 1,8,-1
 156 384 l 1,9,-1
 525 384 l 1,10,-1
 525 684 l 1,11,-1
 586 684 l 1,0,-1
EndSplineSet
EndChar

StartChar: I
Encoding: 73 73 44
Width: 251
Flags: W
LayerCount: 2
Fore
SplineSet
156 684 m 1,0,-1
 156 0 l 1,1,-1
 95 0 l 1,2,-1
 95 684 l 1,3,-1
 156 684 l 1,0,-1
EndSplineSet
EndChar

StartChar: J
Encoding: 74 74 45
Width: 449
Flags: W
LayerCount: 2
Fore
SplineSet
354 185 m 2,0,1
 354 128 354 128 344.5 88.5 c 128,-1,2
 335 49 335 49 317.5 25 c 128,-1,3
 300 1 300 1 276.5 -9.5 c 128,-1,4
 253 -20 253 -20 225 -20 c 0,5,6
 194 -20 194 -20 167 -8 c 128,-1,7
 140 4 140 4 119.5 29 c 128,-1,8
 99 54 99 54 87.5 92.5 c 128,-1,9
 76 131 76 131 76 185 c 0,10,11
 76 300 76 300 133 361.5 c 128,-1,12
 190 423 190 423 299 432 c 1,13,-1
 299 627 l 1,14,-1
 35 627 l 1,15,-1
 35 684 l 1,16,-1
 354 684 l 1,17,-1
 354 185 l 2,0,1
225 33 m 0,18,19
 243 33 243 33 257 40 c 128,-1,20
 271 47 271 47 280.5 64.5 c 128,-1,21
 290 82 290 82 294.5 111 c 128,-1,22
 299 140 299 140 299 185 c 2,23,-1
 299 380 l 1,24,25
 215 372 215 372 175.5 325.5 c 128,-1,26
 136 279 136 279 136 185 c 0,27,28
 136 110 136 110 159.5 71.5 c 128,-1,29
 183 33 183 33 225 33 c 0,18,19
EndSplineSet
EndChar

StartChar: K
Encoding: 75 75 46
Width: 610
Flags: W
LayerCount: 2
Fore
SplineSet
526 0 m 1,0,-1
 456 208 l 2,1,2
 447 236 447 236 437 257.5 c 128,-1,3
 427 279 427 279 411 293 c 128,-1,4
 395 307 395 307 370 314.5 c 128,-1,5
 345 322 345 322 306 322 c 2,6,-1
 156 322 l 1,7,-1
 156 0 l 1,8,-1
 95 0 l 1,9,-1
 95 684 l 1,10,-1
 156 684 l 1,11,-1
 156 376 l 1,12,-1
 316 376 l 1,13,-1
 314 369 l 1,14,-1
 315 369 l 1,15,-1
 316 376 l 1,16,-1
 319 376 l 1,17,-1
 513 692 l 1,18,-1
 565 660 l 1,19,-1
 383 367 l 1,20,21
 431 353 431 353 458.5 321 c 128,-1,22
 486 289 486 289 502 246 c 2,23,-1
 590 0 l 1,24,-1
 526 0 l 1,0,-1
EndSplineSet
EndChar

StartChar: L
Encoding: 76 76 47
Width: 503
Flags: W
LayerCount: 2
Fore
SplineSet
483 0 m 1,0,-1
 95 0 l 1,1,-1
 95 684 l 1,2,-1
 156 684 l 1,3,-1
 156 57 l 1,4,-1
 483 57 l 1,5,-1
 483 0 l 1,0,-1
EndSplineSet
EndChar

StartChar: M
Encoding: 77 77 48
Width: 814
Flags: W
LayerCount: 2
Fore
SplineSet
520 205 m 1,0,1
 484 212 484 212 454 226.5 c 128,-1,2
 424 241 424 241 399 258.5 c 128,-1,3
 374 276 374 276 354 295.5 c 128,-1,4
 334 315 334 315 319 333 c 2,5,-1
 221 454 l 2,6,7
 204 474 204 474 184.5 502 c 128,-1,8
 165 530 165 530 148 557 c 1,9,10
 151 532 151 532 153.5 504.5 c 128,-1,11
 156 477 156 477 156 454 c 2,12,-1
 156 0 l 1,13,-1
 95 0 l 1,14,-1
 95 693 l 1,15,-1
 114 693 l 1,16,-1
 380 354 l 1,17,18
 387 343 387 343 401 330 c 1,19,-1
 700 693 l 1,20,-1
 719 693 l 1,21,-1
 719 0 l 1,22,-1
 658 0 l 1,23,-1
 658 454 l 2,24,25
 658 479 658 479 660.5 510.5 c 128,-1,26
 663 542 663 542 666 568 c 1,27,28
 645 539 645 539 622 507.5 c 128,-1,29
 599 476 599 476 580 454 c 2,30,-1
 444 293 l 1,31,32
 464 279 464 279 486.5 267.5 c 128,-1,33
 509 256 509 256 535 250 c 1,34,-1
 520 205 l 1,0,1
EndSplineSet
EndChar

StartChar: N
Encoding: 78 78 49
Width: 764
Flags: W
LayerCount: 2
Fore
SplineSet
704 -2 m 1,0,1
 668 5 668 5 640 19 c 128,-1,2
 612 33 612 33 589 50 c 128,-1,3
 566 67 566 67 547.5 86 c 128,-1,4
 529 105 529 105 514 123 c 2,5,-1
 228 455 l 2,6,7
 210 475 210 475 189 504 c 128,-1,8
 168 533 168 533 149 561 c 1,9,10
 151 535 151 535 153.5 506.5 c 128,-1,11
 156 478 156 478 156 455 c 2,12,-1
 156 0 l 1,13,-1
 95 0 l 1,14,-1
 95 694 l 1,15,-1
 114 694 l 1,16,-1
 575 144 l 2,17,18
 582 136 582 136 590 126.5 c 128,-1,19
 598 117 598 117 609 107 c 1,20,21
 607 127 607 127 606 148 c 128,-1,22
 605 169 605 169 605 189 c 2,23,-1
 605 685 l 1,24,-1
 666 685 l 1,25,-1
 666 64 l 1,26,27
 678 57 678 57 691 51.5 c 128,-1,28
 704 46 704 46 719 43 c 1,29,-1
 704 -2 l 1,0,1
EndSplineSet
EndChar

StartChar: O
Encoding: 79 79 50
Width: 795
Flags: W
LayerCount: 2
Fore
SplineSet
765 690 m 1,0,1
 742 658 742 658 707 644.5 c 128,-1,2
 672 631 672 631 636 629 c 1,3,4
 651 609 651 609 668.5 580.5 c 128,-1,5
 686 552 686 552 701 516 c 128,-1,6
 716 480 716 480 725.5 436.5 c 128,-1,7
 735 393 735 393 735 342 c 0,8,9
 735 267 735 267 711 202.5 c 128,-1,10
 687 138 687 138 642.5 91 c 128,-1,11
 598 44 598 44 536 17 c 128,-1,12
 474 -10 474 -10 398 -10 c 0,13,14
 321 -10 321 -10 259 17 c 128,-1,15
 197 44 197 44 152.5 91.5 c 128,-1,16
 108 139 108 139 84 203 c 128,-1,17
 60 267 60 267 60 342 c 256,18,19
 60 417 60 417 84 481.5 c 128,-1,20
 108 546 108 546 152.5 593 c 128,-1,21
 197 640 197 640 259 667 c 128,-1,22
 321 694 321 694 398 694 c 0,23,24
 461 694 461 694 513.5 689 c 128,-1,25
 566 684 566 684 613 684 c 0,26,27
 653 684 653 684 682 694 c 128,-1,28
 711 704 711 704 732 724 c 1,29,-1
 765 690 l 1,0,1
675 342 m 0,30,31
 675 405 675 405 660 454.5 c 128,-1,32
 645 504 645 504 625.5 540.5 c 128,-1,33
 606 577 606 577 587 599.5 c 128,-1,34
 568 622 568 622 560 630 c 1,35,36
 523 632 523 632 482.5 635.5 c 128,-1,37
 442 639 442 639 397 639 c 0,38,39
 335 639 335 639 284 617.5 c 128,-1,40
 233 596 233 596 197 556.5 c 128,-1,41
 161 517 161 517 141 462.5 c 128,-1,42
 121 408 121 408 121 342 c 256,43,44
 121 276 121 276 141 221.5 c 128,-1,45
 161 167 161 167 197.5 128 c 128,-1,46
 234 89 234 89 285 67 c 128,-1,47
 336 45 336 45 398 45 c 256,48,49
 460 45 460 45 511 66.5 c 128,-1,50
 562 88 562 88 598.5 127.5 c 128,-1,51
 635 167 635 167 655 221.5 c 128,-1,52
 675 276 675 276 675 342 c 0,30,31
EndSplineSet
EndChar

StartChar: P
Encoding: 80 80 51
Width: 558
Flags: W
LayerCount: 2
Fore
SplineSet
312 639 m 0,0,1
 280 639 280 639 261 637.5 c 128,-1,2
 242 636 242 636 228.5 634.5 c 128,-1,3
 215 633 215 633 203 631 c 128,-1,4
 191 629 191 629 175 629 c 1,5,-1
 175 0 l 1,6,-1
 114 0 l 1,7,-1
 114 631 l 1,8,9
 82 636 82 636 53.5 649 c 128,-1,10
 25 662 25 662 5 690 c 1,11,-1
 38 724 l 1,12,13
 59 704 59 704 88 694 c 128,-1,14
 117 684 117 684 157 684 c 0,15,16
 180 684 180 684 196 685.5 c 128,-1,17
 212 687 212 687 228 689 c 128,-1,18
 244 691 244 691 263.5 692.5 c 128,-1,19
 283 694 283 694 315 694 c 0,20,21
 362 694 362 694 400.5 677.5 c 128,-1,22
 439 661 439 661 466 631.5 c 128,-1,23
 493 602 493 602 508 562.5 c 128,-1,24
 523 523 523 523 523 477 c 0,25,26
 523 430 523 430 508 390.5 c 128,-1,27
 493 351 493 351 466 321.5 c 128,-1,28
 439 292 439 292 400.5 275.5 c 128,-1,29
 362 259 362 259 315 259 c 0,30,31
 296 259 296 259 280 259 c 128,-1,32
 264 259 264 259 252 260 c 1,33,34
 238 260 238 260 226 261 c 1,35,-1
 226 316 l 1,36,37
 238 315 238 315 252 315 c 1,38,39
 264 314 264 314 279.5 314 c 128,-1,40
 295 314 295 314 312 314 c 0,41,42
 346 314 346 314 374 326 c 128,-1,43
 402 338 402 338 422 359.5 c 128,-1,44
 442 381 442 381 453 411 c 128,-1,45
 464 441 464 441 464 477 c 256,46,47
 464 513 464 513 453 542.5 c 128,-1,48
 442 572 442 572 422 593.5 c 128,-1,49
 402 615 402 615 374 627 c 128,-1,50
 346 639 346 639 312 639 c 0,0,1
EndSplineSet
EndChar

StartChar: Q
Encoding: 81 81 52
Width: 795
Flags: W
LayerCount: 2
Fore
SplineSet
509 -193 m 0,0,1
 471 -193 471 -193 439.5 -187 c 128,-1,2
 408 -181 408 -181 379 -171 c 2,3,-1
 280 -138 l 1,4,-1
 238 -199 l 1,5,-1
 195 -166 l 1,6,-1
 313 0 l 1,7,8
 254 13 254 13 207.5 44.5 c 128,-1,9
 161 76 161 76 128 121 c 128,-1,10
 95 166 95 166 77.5 222 c 128,-1,11
 60 278 60 278 60 342 c 0,12,13
 60 417 60 417 84 481.5 c 128,-1,14
 108 546 108 546 152.5 593 c 128,-1,15
 197 640 197 640 259 667 c 128,-1,16
 321 694 321 694 398 694 c 0,17,18
 474 694 474 694 536 667 c 128,-1,19
 598 640 598 640 642.5 592.5 c 128,-1,20
 687 545 687 545 711 481 c 128,-1,21
 735 417 735 417 735 342 c 256,22,23
 735 267 735 267 711 202.5 c 128,-1,24
 687 138 687 138 642.5 91 c 128,-1,25
 598 44 598 44 536 17 c 128,-1,26
 474 -10 474 -10 398 -10 c 0,27,28
 390 -10 390 -10 383.5 -9.5 c 128,-1,29
 377 -9 377 -9 370 -9 c 1,30,-1
 311 -94 l 1,31,-1
 391 -121 l 2,32,33
 420 -131 420 -131 448 -136 c 128,-1,34
 476 -141 476 -141 509 -141 c 0,35,36
 550 -141 550 -141 599 -106 c 1,37,-1
 624 -150 l 1,38,39
 565 -193 565 -193 509 -193 c 0,0,1
398 639 m 256,40,41
 336 639 336 639 285 617.5 c 128,-1,42
 234 596 234 596 197.5 556.5 c 128,-1,43
 161 517 161 517 141 462.5 c 128,-1,44
 121 408 121 408 121 342 c 256,45,46
 121 276 121 276 141 221.5 c 128,-1,47
 161 167 161 167 197.5 128 c 128,-1,48
 234 89 234 89 285 67 c 128,-1,49
 336 45 336 45 398 45 c 256,50,51
 460 45 460 45 511 66.5 c 128,-1,52
 562 88 562 88 598.5 127.5 c 128,-1,53
 635 167 635 167 655 221.5 c 128,-1,54
 675 276 675 276 675 342 c 256,55,56
 675 408 675 408 655 462.5 c 128,-1,57
 635 517 635 517 598.5 556 c 128,-1,58
 562 595 562 595 511 617 c 128,-1,59
 460 639 460 639 398 639 c 256,40,41
EndSplineSet
EndChar

StartChar: R
Encoding: 82 82 53
Width: 591
Flags: W
LayerCount: 2
Fore
SplineSet
505 0 m 1,0,-1
 435 178 l 2,1,2
 424 206 424 206 410 228 c 128,-1,3
 396 250 396 250 376.5 265.5 c 128,-1,4
 357 281 357 281 331 289 c 128,-1,5
 305 297 305 297 271 297 c 2,6,-1
 175 297 l 1,7,-1
 175 0 l 1,8,-1
 114 0 l 1,9,-1
 114 631 l 1,10,11
 82 636 82 636 53.5 649 c 128,-1,12
 25 662 25 662 5 690 c 1,13,-1
 38 724 l 1,14,15
 59 704 59 704 88 694 c 128,-1,16
 117 684 117 684 157 684 c 0,17,18
 180 684 180 684 196 685.5 c 128,-1,19
 212 687 212 687 228 689 c 128,-1,20
 244 691 244 691 263.5 692.5 c 128,-1,21
 283 694 283 694 315 694 c 0,22,23
 360 694 360 694 397 679 c 128,-1,24
 434 664 434 664 460.5 637.5 c 128,-1,25
 487 611 487 611 502 575 c 128,-1,26
 517 539 517 539 517 496 c 0,27,28
 517 427 517 427 483 382.5 c 128,-1,29
 449 338 449 338 391 320 c 1,30,31
 424 305 424 305 444.5 279 c 128,-1,32
 465 253 465 253 481 216 c 2,33,-1
 571 0 l 1,34,-1
 505 0 l 1,0,-1
312 639 m 0,35,36
 280 639 280 639 261 637.5 c 128,-1,37
 242 636 242 636 228.5 634.5 c 128,-1,38
 215 633 215 633 203 631 c 128,-1,39
 191 629 191 629 175 629 c 1,40,-1
 175 352 l 1,41,-1
 314 352 l 2,42,43
 345 352 345 352 371.5 362 c 128,-1,44
 398 372 398 372 417 390.5 c 128,-1,45
 436 409 436 409 446.5 436 c 128,-1,46
 457 463 457 463 457 496 c 0,47,48
 457 562 457 562 417.5 600.5 c 128,-1,49
 378 639 378 639 312 639 c 0,35,36
EndSplineSet
EndChar

StartChar: S
Encoding: 83 83 54
Width: 532
Flags: W
LayerCount: 2
Fore
SplineSet
256 636 m 0,0,1
 196 636 196 636 164 607.5 c 128,-1,2
 132 579 132 579 132 537 c 0,3,4
 132 500 132 500 146 475 c 128,-1,5
 160 450 160 450 183 433 c 128,-1,6
 206 416 206 416 235.5 404 c 128,-1,7
 265 392 265 392 297 381 c 0,8,9
 331 369 331 369 366 352.5 c 128,-1,10
 401 336 401 336 429 311.5 c 128,-1,11
 457 287 457 287 474.5 252.5 c 128,-1,12
 492 218 492 218 492 169 c 256,13,14
 492 120 492 120 472 86 c 128,-1,15
 452 52 452 52 419.5 30.5 c 128,-1,16
 387 9 387 9 345 -0.5 c 128,-1,17
 303 -10 303 -10 259 -10 c 0,18,19
 194 -10 194 -10 135.5 11.5 c 128,-1,20
 77 33 77 33 35 64 c 1,21,-1
 68 112 l 1,22,23
 87 100 87 100 109 88.5 c 128,-1,24
 131 77 131 77 156.5 67 c 128,-1,25
 182 57 182 57 210 51 c 128,-1,26
 238 45 238 45 270 45 c 256,27,28
 302 45 302 45 331 51.5 c 128,-1,29
 360 58 360 58 382 72.5 c 128,-1,30
 404 87 404 87 417 110.5 c 128,-1,31
 430 134 430 134 430 169 c 0,32,33
 430 205 430 205 416 230.5 c 128,-1,34
 402 256 402 256 379 274.5 c 128,-1,35
 356 293 356 293 326 306.5 c 128,-1,36
 296 320 296 320 264 332 c 0,37,38
 230 345 230 345 195.5 359.5 c 128,-1,39
 161 374 161 374 133 396.5 c 128,-1,40
 105 419 105 419 87.5 452.5 c 128,-1,41
 70 486 70 486 70 537 c 0,42,43
 70 568 70 568 83.5 596 c 128,-1,44
 97 624 97 624 122.5 645 c 128,-1,45
 148 666 148 666 184.5 678.5 c 128,-1,46
 221 691 221 691 266 691 c 0,47,48
 296 691 296 691 319 690 c 128,-1,49
 342 689 342 689 356 689 c 0,50,51
 390 689 390 689 409.5 696.5 c 128,-1,52
 429 704 429 704 450 724 c 1,53,-1
 483 690 l 1,54,55
 469 671 469 671 455 660 c 128,-1,56
 441 649 441 649 425.5 643 c 128,-1,57
 410 637 410 637 393 635.5 c 128,-1,58
 376 634 376 634 356 634 c 0,59,60
 339 634 339 634 312 635 c 128,-1,61
 285 636 285 636 256 636 c 0,0,1
EndSplineSet
EndChar

StartChar: T
Encoding: 84 84 55
Width: 569
Flags: W
LayerCount: 2
Fore
SplineSet
554 627 m 1,0,-1
 315 627 l 1,1,-1
 315 0 l 1,2,-1
 254 0 l 1,3,-1
 254 627 l 1,4,-1
 15 627 l 1,5,-1
 15 684 l 1,6,-1
 554 684 l 1,7,-1
 554 627 l 1,0,-1
EndSplineSet
EndChar

StartChar: U
Encoding: 85 85 56
Width: 715
Flags: W
LayerCount: 2
Fore
SplineSet
151 684 m 1,0,-1
 151 267 l 2,1,2
 151 215 151 215 166 174 c 128,-1,3
 181 133 181 133 208 104.5 c 128,-1,4
 235 76 235 76 273 60.5 c 128,-1,5
 311 45 311 45 357 45 c 256,6,7
 403 45 403 45 441.5 60.5 c 128,-1,8
 480 76 480 76 507 104.5 c 128,-1,9
 534 133 534 133 549 174 c 128,-1,10
 564 215 564 215 564 267 c 2,11,-1
 564 684 l 1,12,-1
 625 684 l 1,13,-1
 625 267 l 2,14,15
 625 205 625 205 606 154.5 c 128,-1,16
 587 104 587 104 551.5 67 c 128,-1,17
 516 30 516 30 467 10 c 128,-1,18
 418 -10 418 -10 358 -10 c 0,19,20
 297 -10 297 -10 247.5 10 c 128,-1,21
 198 30 198 30 163 67 c 128,-1,22
 128 104 128 104 109 154.5 c 128,-1,23
 90 205 90 205 90 267 c 2,24,-1
 90 684 l 1,25,-1
 151 684 l 1,0,-1
EndSplineSet
EndChar

StartChar: V
Encoding: 86 86 57
Width: 659
Flags: W
LayerCount: 2
Fore
SplineSet
408 -8 m 1,0,1
 395 -11 395 -11 381 -12.5 c 128,-1,2
 367 -14 367 -14 356 -14 c 0,3,4
 323 -14 323 -14 298 -2.5 c 128,-1,5
 273 9 273 9 254 28 c 128,-1,6
 235 47 235 47 222 71.5 c 128,-1,7
 209 96 209 96 202 121 c 2,8,-1
 35 679 l 1,9,-1
 94 694 l 1,10,-1
 261 136 l 2,11,12
 273 93 273 93 296.5 68 c 128,-1,13
 320 43 320 43 360 39 c 1,14,-1
 572 694 l 1,15,-1
 629 677 l 1,16,-1
 408 -8 l 1,17,-1
 408 -8 l 1,0,1
EndSplineSet
EndChar

StartChar: W
Encoding: 87 87 58
Width: 972
Flags: W
LayerCount: 2
Fore
SplineSet
380 -8 m 1,0,1
 367 -11 367 -11 353 -12.5 c 128,-1,2
 339 -14 339 -14 328 -14 c 0,3,4
 296 -14 296 -14 272 -2.5 c 128,-1,5
 248 9 248 9 230.5 28 c 128,-1,6
 213 47 213 47 201.5 71 c 128,-1,7
 190 95 190 95 184 121 c 2,8,-1
 40 680 l 1,9,-1
 99 695 l 1,10,-1
 243 136 l 2,11,12
 254 91 254 91 275 66.5 c 128,-1,13
 296 42 296 42 337 39 c 1,14,-1
 463 321 l 1,15,-1
 463 570 l 1,16,-1
 524 570 l 1,17,-1
 524 321 l 1,18,-1
 610 118 l 2,19,20
 627 77 627 77 648.5 59.5 c 128,-1,21
 670 42 670 42 701 39 c 1,22,-1
 880 696 l 1,23,-1
 937 679 l 1,24,-1
 751 -8 l 1,25,26
 738 -11 738 -11 724 -12.5 c 128,-1,27
 710 -14 710 -14 699 -14 c 0,28,29
 669 -14 669 -14 645.5 -4.5 c 128,-1,30
 622 5 622 5 604 20.5 c 128,-1,31
 586 36 586 36 573 57.5 c 128,-1,32
 560 79 560 79 551 103 c 2,33,-1
 494 247 l 1,34,-1
 380 -8 l 1,35,-1
 380 -8 l 1,0,1
EndSplineSet
EndChar

StartChar: X
Encoding: 88 88 59
Width: 586
Flags: W
LayerCount: 2
Fore
SplineSet
50 0 m 1,0,-1
 206 365 l 1,1,2
 183 387 183 387 168 413.5 c 128,-1,3
 153 440 153 440 145 461 c 2,4,-1
 63 678 l 1,5,-1
 121 694 l 1,6,-1
 204 476 l 2,7,8
 218 439 218 439 241.5 413.5 c 128,-1,9
 265 388 265 388 314 376 c 1,10,-1
 323 373 l 1,11,-1
 465 694 l 1,12,-1
 523 678 l 1,13,-1
 377 345 l 1,14,15
 404 324 404 324 420.5 297 c 128,-1,16
 437 270 437 270 447 246 c 2,17,-1
 546 0 l 1,18,-1
 482 0 l 1,19,-1
 388 231 l 2,20,21
 371 274 371 274 343 296 c 128,-1,22
 315 318 315 318 270 329 c 2,23,-1
 258 332 l 1,24,-1
 116 0 l 1,25,-1
 50 0 l 1,0,-1
EndSplineSet
EndChar

StartChar: Y
Encoding: 89 89 60
Width: 532
Flags: W
LayerCount: 2
Fore
SplineSet
358 262 m 1,0,1
 347 260 347 260 333 258 c 128,-1,2
 319 256 319 256 307 256 c 1,3,-1
 307 0 l 1,4,-1
 246 0 l 1,5,-1
 246 264 l 1,6,7
 201 279 201 279 173 315 c 128,-1,8
 145 351 145 351 132 391 c 2,9,-1
 35 680 l 1,10,-1
 94 695 l 1,11,-1
 191 406 l 1,12,13
 205 361 205 361 235 335.5 c 128,-1,14
 265 310 265 310 311 309 c 1,15,-1
 445 694 l 1,16,-1
 502 677 l 1,17,-1
 358 262 l 1,18,-1
 358 262 l 1,0,1
EndSplineSet
EndChar

StartChar: Z
Encoding: 90 90 61
Width: 541
Flags: W
LayerCount: 2
Fore
SplineSet
40 13 m 1,0,-1
 399 627 l 1,1,-1
 60 627 l 1,2,-1
 60 684 l 1,3,-1
 491 684 l 1,4,-1
 491 671 l 1,5,-1
 132 57 l 1,6,-1
 511 57 l 1,7,-1
 511 0 l 1,8,-1
 40 0 l 1,9,-1
 40 13 l 1,0,-1
EndSplineSet
EndChar

StartChar: bracketleft
Encoding: 91 91 62
Width: 328
Flags: W
LayerCount: 2
Fore
SplineSet
288 750 m 1,0,-1
 288 693 l 1,1,-1
 111 693 l 1,2,-1
 111 -117 l 1,3,-1
 288 -117 l 1,4,-1
 288 -174 l 1,5,-1
 50 -174 l 1,6,-1
 50 750 l 1,7,-1
 288 750 l 1,0,-1
EndSplineSet
EndChar

StartChar: backslash
Encoding: 92 92 63
Width: 392
Flags: W
LayerCount: 2
Fore
SplineSet
113 750 m 1,0,-1
 332 -70 l 1,1,-1
 268 -70 l 1,2,-1
 50 750 l 1,3,-1
 113 750 l 1,0,-1
EndSplineSet
EndChar

StartChar: bracketright
Encoding: 93 93 64
Width: 328
Flags: W
LayerCount: 2
Fore
SplineSet
278 750 m 1,0,-1
 278 -174 l 1,1,-1
 40 -174 l 1,2,-1
 40 -117 l 1,3,-1
 217 -117 l 1,4,-1
 217 693 l 1,5,-1
 40 693 l 1,6,-1
 40 750 l 1,7,-1
 278 750 l 1,0,-1
EndSplineSet
EndChar

StartChar: asciicircum
Encoding: 94 94 65
Width: 520
Flags: W
LayerCount: 2
Fore
SplineSet
270 615 m 1,0,-1
 445 363 l 1,1,-1
 395 328 l 1,2,-1
 258 524 l 1,3,-1
 123 330 l 1,4,-1
 75 363 l 1,5,-1
 250 615 l 1,6,-1
 270 615 l 1,0,-1
EndSplineSet
EndChar

StartChar: underscore
Encoding: 95 95 66
Width: 440
Flags: W
LayerCount: 2
Fore
SplineSet
440 -78 m 1,0,-1
 440 -133 l 1,1,-1
 0 -133 l 1,2,-1
 0 -78 l 1,3,-1
 440 -78 l 1,0,-1
EndSplineSet
EndChar

StartChar: grave
Encoding: 96 96 67
Width: 520
Flags: W
LayerCount: 2
Fore
SplineSet
335 567 m 1,0,-1
 163 677 l 1,1,-1
 199 726 l 1,2,-1
 357 601 l 1,3,-1
 335 567 l 1,0,-1
EndSplineSet
EndChar

StartChar: a
Encoding: 97 97 68
Width: 492
Flags: W
LayerCount: 2
Fore
SplineSet
200 -10 m 0,0,1
 166 -10 166 -10 136.5 -1 c 128,-1,2
 107 8 107 8 85.5 26 c 128,-1,3
 64 44 64 44 52 71 c 128,-1,4
 40 98 40 98 40 133 c 0,5,6
 40 175 40 175 58.5 203 c 128,-1,7
 77 231 77 231 107 248.5 c 128,-1,8
 137 266 137 266 174.5 273 c 128,-1,9
 212 280 212 280 251 280 c 2,10,-1
 348 280 l 1,11,-1
 348 336 l 2,12,13
 348 398 348 398 323 427 c 128,-1,14
 298 456 298 456 244 456 c 0,15,16
 204 456 204 456 163 439 c 128,-1,17
 122 422 122 422 96 402 c 1,18,-1
 69 444 l 1,19,20
 98 470 98 470 145.5 489 c 128,-1,21
 193 508 193 508 244 508 c 0,22,23
 328 508 328 508 365.5 465.5 c 128,-1,24
 403 423 403 423 403 347 c 2,25,-1
 403 144 l 2,26,27
 403 67 403 67 442 25 c 1,28,-1
 408 -8 l 1,29,30
 387 8 387 8 375 28.5 c 128,-1,31
 363 49 363 49 356 72 c 1,32,33
 337 34 337 34 298 12 c 128,-1,34
 259 -10 259 -10 200 -10 c 0,0,1
200 42 m 0,35,36
 230 42 230 42 256 50.5 c 128,-1,37
 282 59 282 59 302.5 75 c 128,-1,38
 323 91 323 91 335 115 c 128,-1,39
 347 139 347 139 348 170 c 1,40,-1
 348 229 l 1,41,-1
 251 229 l 2,42,43
 223 229 223 229 195.5 225.5 c 128,-1,44
 168 222 168 222 146 211.5 c 128,-1,45
 124 201 124 201 110.5 182 c 128,-1,46
 97 163 97 163 97 133 c 0,47,48
 97 83 97 83 124 62.5 c 128,-1,49
 151 42 151 42 200 42 c 0,35,36
EndSplineSet
EndChar

StartChar: b
Encoding: 98 98 69
Width: 553
Flags: W
LayerCount: 2
Fore
SplineSet
290 508 m 0,0,1
 341 508 341 508 380.5 488 c 128,-1,2
 420 468 420 468 447.5 433 c 128,-1,3
 475 398 475 398 489 351.5 c 128,-1,4
 503 305 503 305 503 251 c 0,5,6
 503 195 503 195 486.5 147.5 c 128,-1,7
 470 100 470 100 439.5 65 c 128,-1,8
 409 30 409 30 366 10 c 128,-1,9
 323 -10 323 -10 270 -10 c 0,10,11
 225 -10 225 -10 190.5 -7 c 128,-1,12
 156 -4 156 -4 133 0 c 0,13,14
 106 4 106 4 85 10 c 1,15,-1
 85 726 l 1,16,-1
 140 726 l 1,17,-1
 140 433 l 1,18,19
 163 468 163 468 202 488 c 128,-1,20
 241 508 241 508 290 508 c 0,0,1
290 456 m 0,21,22
 265 456 265 456 240 448 c 128,-1,23
 215 440 215 440 194 424 c 128,-1,24
 173 408 173 408 158 384 c 128,-1,25
 143 360 143 360 140 328 c 1,26,-1
 140 51 l 1,27,28
 158 49 158 49 193 45.5 c 128,-1,29
 228 42 228 42 269 42 c 0,30,31
 309 42 309 42 341.5 57 c 128,-1,32
 374 72 374 72 397.5 99 c 128,-1,33
 421 126 421 126 433.5 164 c 128,-1,34
 446 202 446 202 446 248 c 0,35,36
 446 288 446 288 436 326 c 128,-1,37
 426 364 426 364 406.5 392.5 c 128,-1,38
 387 421 387 421 358 438.5 c 128,-1,39
 329 456 329 456 290 456 c 0,21,22
EndSplineSet
EndChar

StartChar: c
Encoding: 99 99 70
Width: 435
Flags: W
LayerCount: 2
Fore
SplineSet
117 250 m 0,0,1
 117 148 117 148 159 95 c 128,-1,2
 201 42 201 42 276 42 c 0,3,4
 311 42 311 42 344 56 c 128,-1,5
 377 70 377 70 409 90 c 1,6,-1
 435 48 l 1,7,8
 404 24 404 24 363 7 c 128,-1,9
 322 -10 322 -10 274 -10 c 0,10,11
 176 -10 176 -10 118 56.5 c 128,-1,12
 60 123 60 123 60 247 c 0,13,14
 60 289 60 289 68 335 c 128,-1,15
 76 381 76 381 97.5 419.5 c 128,-1,16
 119 458 119 458 157 483 c 128,-1,17
 195 508 195 508 256 508 c 0,18,19
 286 508 286 508 321 505.5 c 128,-1,20
 356 503 356 503 390 500 c 1,21,-1
 390 448 l 1,22,23
 351 451 351 451 313 453.5 c 128,-1,24
 275 456 275 456 249 456 c 0,25,26
 211 456 211 456 185.5 439 c 128,-1,27
 160 422 160 422 145 393.5 c 128,-1,28
 130 365 130 365 123.5 327.5 c 128,-1,29
 117 290 117 290 117 250 c 0,0,1
EndSplineSet
EndChar

StartChar: d
Encoding: 100 100 71
Width: 558
Flags: W
LayerCount: 2
Fore
SplineSet
263 -10 m 0,0,1
 212 -10 212 -10 172.5 10 c 128,-1,2
 133 30 133 30 105.5 65 c 128,-1,3
 78 100 78 100 64 146.5 c 128,-1,4
 50 193 50 193 50 247 c 0,5,6
 50 303 50 303 66.5 350.5 c 128,-1,7
 83 398 83 398 113.5 433 c 128,-1,8
 144 468 144 468 187 488 c 128,-1,9
 230 508 230 508 283 508 c 0,10,11
 325 508 325 508 358 505 c 128,-1,12
 391 502 391 502 414 499 c 1,13,-1
 414 727 l 1,14,-1
 469 727 l 1,15,-1
 469 144 l 2,16,17
 469 67 469 67 508 25 c 1,18,-1
 474 -8 l 1,19,20
 451 9 451 9 439 31 c 128,-1,21
 427 53 427 53 421 78 c 1,22,23
 400 36 400 36 358.5 13 c 128,-1,24
 317 -10 317 -10 263 -10 c 0,0,1
263 42 m 0,25,26
 289 42 289 42 316 51 c 128,-1,27
 343 60 343 60 364.5 78 c 128,-1,28
 386 96 386 96 400 123.5 c 128,-1,29
 414 151 414 151 414 188 c 2,30,-1
 414 446 l 1,31,32
 396 448 396 448 361 452 c 128,-1,33
 326 456 326 456 284 456 c 0,34,35
 244 456 244 456 211.5 441 c 128,-1,36
 179 426 179 426 155.5 399 c 128,-1,37
 132 372 132 372 119.5 334 c 128,-1,38
 107 296 107 296 107 250 c 0,39,40
 107 209 107 209 116.5 171.5 c 128,-1,41
 126 134 126 134 145.5 105.5 c 128,-1,42
 165 77 165 77 194.5 59.5 c 128,-1,43
 224 42 224 42 263 42 c 0,25,26
EndSplineSet
EndChar

StartChar: e
Encoding: 101 101 72
Width: 520
Flags: W
LayerCount: 2
Fore
SplineSet
120 200 m 1,0,1
 129 122 129 122 169.5 82 c 128,-1,2
 210 42 210 42 288 42 c 0,3,4
 330 42 330 42 368 56 c 128,-1,5
 406 70 406 70 444 90 c 1,6,-1
 470 48 l 1,7,8
 435 24 435 24 388.5 7 c 128,-1,9
 342 -10 342 -10 288 -10 c 0,10,11
 175 -10 175 -10 117.5 56.5 c 128,-1,12
 60 123 60 123 60 247 c 0,13,14
 60 299 60 299 75.5 346 c 128,-1,15
 91 393 91 393 119.5 429 c 128,-1,16
 148 465 148 465 188 486.5 c 128,-1,17
 228 508 228 508 277 508 c 0,18,19
 314 508 314 508 347 497.5 c 128,-1,20
 380 487 380 487 404.5 467.5 c 128,-1,21
 429 448 429 448 443.5 419.5 c 128,-1,22
 458 391 458 391 458 356 c 0,23,24
 458 312 458 312 439 282 c 128,-1,25
 420 252 420 252 389.5 234 c 128,-1,26
 359 216 359 216 319.5 208 c 128,-1,27
 280 200 280 200 238 200 c 2,28,-1
 120 200 l 1,0,1
277 459 m 0,29,30
 241 459 241 459 211.5 441 c 128,-1,31
 182 423 182 423 161 394 c 128,-1,32
 140 365 140 365 128.5 328 c 128,-1,33
 117 291 117 291 117 252 c 1,34,-1
 238 252 l 2,35,36
 289 252 289 252 321 261.5 c 128,-1,37
 353 271 353 271 371 286 c 128,-1,38
 389 301 389 301 395 319.5 c 128,-1,39
 401 338 401 338 401 356 c 0,40,41
 401 403 401 403 366.5 431 c 128,-1,42
 332 459 332 459 277 459 c 0,29,30
EndSplineSet
EndChar

StartChar: f
Encoding: 102 102 73
Width: 393
Flags: W
LayerCount: 2
Fore
SplineSet
288 237 m 1,0,-1
 140 237 l 1,1,-1
 140 -250 l 1,2,-1
 85 -250 l 1,3,-1
 85 494 l 2,4,5
 85 545 85 545 93 589 c 128,-1,6
 101 633 101 633 119 665 c 128,-1,7
 137 697 137 697 167 715.5 c 128,-1,8
 197 734 197 734 242 734 c 0,9,10
 279 734 279 734 306.5 722.5 c 128,-1,11
 334 711 334 711 352 691.5 c 128,-1,12
 370 672 370 672 379 646 c 128,-1,13
 388 620 388 620 388 592 c 0,14,15
 388 503 388 503 335 450 c 128,-1,16
 282 397 282 397 188 397 c 2,17,-1
 140 397 l 1,18,-1
 140 289 l 1,19,-1
 288 289 l 1,20,-1
 288 237 l 1,0,-1
140 449 m 1,21,-1
 188 449 l 2,22,23
 227 449 227 449 254 461 c 128,-1,24
 281 473 281 473 298.5 493 c 128,-1,25
 316 513 316 513 323.5 538.5 c 128,-1,26
 331 564 331 564 331 592 c 0,27,28
 331 628 331 628 309 655 c 128,-1,29
 287 682 287 682 242 682 c 0,30,31
 210 682 210 682 190.5 667 c 128,-1,32
 171 652 171 652 159.5 626.5 c 128,-1,33
 148 601 148 601 144 567.5 c 128,-1,34
 140 534 140 534 140 497 c 2,35,-1
 140 449 l 1,21,-1
EndSplineSet
EndChar

StartChar: g
Encoding: 103 103 74
Width: 590
Flags: W
LayerCount: 2
Fore
SplineSet
25 111 m 0,0,1
 25 137 25 137 36.5 157.5 c 128,-1,2
 48 178 48 178 67.5 192 c 128,-1,3
 87 206 87 206 114 214 c 128,-1,4
 141 222 141 222 173 223 c 1,5,6
 137 267 137 267 137 333 c 0,7,8
 137 374 137 374 151 406.5 c 128,-1,9
 165 439 165 439 190 461.5 c 128,-1,10
 215 484 215 484 249.5 496 c 128,-1,11
 284 508 284 508 325 508 c 0,12,13
 344 508 344 508 361 505.5 c 128,-1,14
 378 503 378 503 394 498 c 1,15,-1
 559 498 l 1,16,-1
 559 447 l 1,17,-1
 468 453 l 1,18,19
 489 431 489 431 501 401 c 128,-1,20
 513 371 513 371 513 333 c 0,21,22
 513 292 513 292 499 260 c 128,-1,23
 485 228 485 228 460 205.5 c 128,-1,24
 435 183 435 183 400.5 171 c 128,-1,25
 366 159 366 159 325 159 c 0,26,27
 269 159 269 159 227 180 c 1,28,29
 219 181 219 181 211 181.5 c 128,-1,30
 203 182 203 182 194 182 c 0,31,32
 174 182 174 182 154 179 c 128,-1,33
 134 176 134 176 117.5 168 c 128,-1,34
 101 160 101 160 90.5 147 c 128,-1,35
 80 134 80 134 80 114 c 256,36,37
 80 94 80 94 89 81.5 c 128,-1,38
 98 69 98 69 114 62.5 c 128,-1,39
 130 56 130 56 152.5 54 c 128,-1,40
 175 52 175 52 201 52 c 0,41,42
 232 52 232 52 267 53.5 c 128,-1,43
 302 55 302 55 339 55 c 0,44,45
 381 55 381 55 422.5 49.5 c 128,-1,46
 464 44 464 44 497 28.5 c 128,-1,47
 530 13 530 13 550 -16 c 128,-1,48
 570 -45 570 -45 570 -91 c 0,49,50
 570 -139 570 -139 548 -170.5 c 128,-1,51
 526 -202 526 -202 491 -221.5 c 128,-1,52
 456 -241 456 -241 412 -249 c 128,-1,53
 368 -257 368 -257 324 -257 c 256,54,55
 280 -257 280 -257 237.5 -249 c 128,-1,56
 195 -241 195 -241 161 -221.5 c 128,-1,57
 127 -202 127 -202 106 -170 c 128,-1,58
 85 -138 85 -138 85 -91 c 0,59,60
 85 -59 85 -59 86.5 -29 c 128,-1,61
 88 1 88 1 90 18 c 1,62,63
 61 30 61 30 43 52 c 128,-1,64
 25 74 25 74 25 111 c 0,0,1
217 -1 m 0,65,66
 198 -1 198 -1 179.5 0 c 128,-1,67
 161 1 161 1 143 4 c 1,68,69
 142 -4 142 -4 141 -28 c 128,-1,70
 140 -52 140 -52 140 -91 c 0,71,72
 140 -146 140 -146 186.5 -175.5 c 128,-1,73
 233 -205 233 -205 324 -205 c 0,74,75
 357 -205 357 -205 390.5 -200.5 c 128,-1,76
 424 -196 424 -196 452 -183 c 128,-1,77
 480 -170 480 -170 497.5 -148 c 128,-1,78
 515 -126 515 -126 515 -91 c 0,79,80
 515 -61 515 -61 499.5 -42.5 c 128,-1,81
 484 -24 484 -24 459 -14.5 c 128,-1,82
 434 -5 434 -5 401 -1.5 c 128,-1,83
 368 2 368 2 334 2 c 0,84,85
 309 2 309 2 279 0.5 c 128,-1,86
 249 -1 249 -1 217 -1 c 0,65,66
324 456 m 0,87,88
 263 456 263 456 227.5 423 c 128,-1,89
 192 390 192 390 192 334 c 256,90,91
 192 278 192 278 227.5 245 c 128,-1,92
 263 212 263 212 324 212 c 0,93,94
 384 212 384 212 420 245 c 128,-1,95
 456 278 456 278 456 334 c 256,96,97
 456 390 456 390 420 423 c 128,-1,98
 384 456 384 456 324 456 c 0,87,88
EndSplineSet
EndChar

StartChar: h
Encoding: 104 104 75
Width: 542
Flags: W
LayerCount: 2
Fore
SplineSet
434 0 m 1,0,1
 418 30 418 30 413 67.5 c 128,-1,2
 408 105 408 105 408 134 c 0,3,4
 408 158 408 158 409 179 c 128,-1,5
 410 200 410 200 411.5 223.5 c 128,-1,6
 413 247 413 247 414.5 274 c 128,-1,7
 416 301 416 301 416 336 c 0,8,9
 416 398 416 398 388 427 c 128,-1,10
 360 456 360 456 303 456 c 0,11,12
 249 456 249 456 212 429.5 c 128,-1,13
 175 403 175 403 140 355 c 1,14,-1
 140 0 l 1,15,-1
 85 0 l 1,16,-1
 85 726 l 1,17,-1
 140 726 l 1,18,-1
 140 420 l 1,19,20
 172 465 172 465 213.5 486.5 c 128,-1,21
 255 508 255 508 303 508 c 0,22,23
 391 508 391 508 431 466 c 128,-1,24
 471 424 471 424 471 347 c 0,25,26
 471 311 471 311 469.5 281.5 c 128,-1,27
 468 252 468 252 466.5 226 c 128,-1,28
 465 200 465 200 464 176 c 128,-1,29
 463 152 463 152 463 128 c 0,30,31
 463 95 463 95 468 65 c 128,-1,32
 473 35 473 35 487 0 c 1,33,-1
 434 0 l 1,0,1
EndSplineSet
EndChar

StartChar: i
Encoding: 105 105 76
Width: 236
Flags: W
LayerCount: 2
Fore
SplineSet
89 505 m 1,0,1
 108 491 108 491 119.5 473.5 c 128,-1,2
 131 456 131 456 138 436 c 128,-1,3
 145 416 145 416 147.5 395 c 128,-1,4
 150 374 150 374 150 353 c 2,5,-1
 150 0 l 1,6,-1
 95 0 l 1,7,-1
 95 353 l 2,8,9
 95 393 95 393 85 422 c 128,-1,10
 75 451 75 451 55 472 c 1,11,-1
 89 505 l 1,0,1
68 662 m 0,12,13
 68 682 68 682 81.5 695.5 c 128,-1,14
 95 709 95 709 114 709 c 0,15,16
 134 709 134 709 147.5 695.5 c 128,-1,17
 161 682 161 682 161 662 c 0,18,19
 161 643 161 643 147.5 629.5 c 128,-1,20
 134 616 134 616 114 616 c 0,21,22
 95 616 95 616 81.5 629.5 c 128,-1,23
 68 643 68 643 68 662 c 0,12,13
EndSplineSet
EndChar

StartChar: j
Encoding: 106 106 77
Width: 238
Flags: W
LayerCount: 2
Fore
SplineSet
91 505 m 1,0,1
 110 491 110 491 121.5 473.5 c 128,-1,2
 133 456 133 456 140 436 c 128,-1,3
 147 416 147 416 149.5 395 c 128,-1,4
 152 374 152 374 152 353 c 2,5,-1
 152 -250 l 1,6,-1
 97 -250 l 1,7,-1
 97 353 l 2,8,9
 97 393 97 393 87 422 c 128,-1,10
 77 451 77 451 57 472 c 1,11,-1
 91 505 l 1,0,1
70 662 m 0,12,13
 70 682 70 682 83.5 695.5 c 128,-1,14
 97 709 97 709 116 709 c 0,15,16
 136 709 136 709 149.5 695.5 c 128,-1,17
 163 682 163 682 163 662 c 0,18,19
 163 643 163 643 149.5 629.5 c 128,-1,20
 136 616 136 616 116 616 c 0,21,22
 97 616 97 616 83.5 629.5 c 128,-1,23
 70 643 70 643 70 662 c 0,12,13
EndSplineSet
EndChar

StartChar: k
Encoding: 107 107 78
Width: 527
Flags: W
LayerCount: 2
Fore
SplineSet
425 0 m 1,0,-1
 371 120 l 2,1,2
 355 155 355 155 332 176.5 c 128,-1,3
 309 198 309 198 267 200 c 1,4,-1
 266 200 l 1,5,-1
 258 200 l 1,6,-1
 140 200 l 1,7,-1
 140 0 l 1,8,-1
 85 0 l 1,9,-1
 85 726 l 1,10,-1
 140 726 l 1,11,-1
 140 409 l 1,12,13
 163 454 163 454 201.5 481 c 128,-1,14
 240 508 240 508 297 508 c 0,15,16
 334 508 334 508 365.5 497.5 c 128,-1,17
 397 487 397 487 420 467.5 c 128,-1,18
 443 448 443 448 456 419.5 c 128,-1,19
 469 391 469 391 469 356 c 0,20,21
 469 296 469 296 439 262.5 c 128,-1,22
 409 229 409 229 362 214 c 1,23,24
 382 201 382 201 396 183.5 c 128,-1,25
 410 166 410 166 420 146 c 2,26,-1
 487 0 l 1,27,-1
 425 0 l 1,0,-1
297 459 m 0,28,29
 261 459 261 459 232 441 c 128,-1,30
 203 423 203 423 183 394 c 128,-1,31
 163 365 163 365 152.5 328 c 128,-1,32
 142 291 142 291 142 252 c 1,33,-1
 258 252 l 2,34,35
 309 252 309 252 339.5 261.5 c 128,-1,36
 370 271 370 271 386 286 c 128,-1,37
 402 301 402 301 407 319.5 c 128,-1,38
 412 338 412 338 412 356 c 0,39,40
 412 403 412 403 382 431 c 128,-1,41
 352 459 352 459 297 459 c 0,28,29
EndSplineSet
EndChar

StartChar: l
Encoding: 108 108 79
Width: 245
Flags: W
LayerCount: 2
Fore
SplineSet
85 726 m 1,0,-1
 140 726 l 1,1,-1
 140 143 l 2,2,3
 140 103 140 103 150 74 c 128,-1,4
 160 45 160 45 180 24 c 1,5,-1
 146 -9 l 1,6,7
 127 4 127 4 115 22 c 128,-1,8
 103 40 103 40 96.5 60 c 128,-1,9
 90 80 90 80 87.5 101 c 128,-1,10
 85 122 85 122 85 143 c 2,11,-1
 85 726 l 1,0,-1
EndSplineSet
EndChar

StartChar: m
Encoding: 109 109 80
Width: 817
Flags: W
LayerCount: 2
Fore
SplineSet
390 0 m 1,0,-1
 390 336 l 2,1,2
 390 399 390 399 363.5 427.5 c 128,-1,3
 337 456 337 456 288 456 c 0,4,5
 268 456 268 456 247 449.5 c 128,-1,6
 226 443 226 443 206.5 430 c 128,-1,7
 187 417 187 417 171 399 c 128,-1,8
 155 381 155 381 145 358 c 1,9,-1
 145 353 l 1,10,-1
 145 0 l 1,11,-1
 90 0 l 1,12,-1
 90 353 l 2,13,14
 90 393 90 393 80 422 c 128,-1,15
 70 451 70 451 50 472 c 1,16,-1
 84 505 l 1,17,18
 107 488 107 488 119.5 465.5 c 128,-1,19
 132 443 132 443 138 417 c 1,20,21
 165 463 165 463 205.5 485.5 c 128,-1,22
 246 508 246 508 294 508 c 0,23,24
 343 508 343 508 380 485 c 128,-1,25
 417 462 417 462 434 415 c 1,26,27
 463 463 463 463 505 485.5 c 128,-1,28
 547 508 547 508 588 508 c 0,29,30
 660 508 660 508 703.5 466 c 128,-1,31
 747 424 747 424 747 347 c 0,32,33
 747 311 747 311 745.5 281.5 c 128,-1,34
 744 252 744 252 742.5 226 c 128,-1,35
 741 200 741 200 739.5 176 c 128,-1,36
 738 152 738 152 738 128 c 0,37,38
 738 95 738 95 743 65 c 128,-1,39
 748 35 748 35 762 0 c 1,40,-1
 709 0 l 1,41,42
 693 30 693 30 688 67.5 c 128,-1,43
 683 105 683 105 683 134 c 0,44,45
 683 158 683 158 684 179 c 128,-1,46
 685 200 685 200 686.5 223.5 c 128,-1,47
 688 247 688 247 689.5 274 c 128,-1,48
 691 301 691 301 691 336 c 0,49,50
 691 398 691 398 665.5 427 c 128,-1,51
 640 456 640 456 589 456 c 0,52,53
 497 456 497 456 445 357 c 1,54,-1
 445 347 l 1,55,-1
 445 0 l 1,56,-1
 390 0 l 1,0,-1
EndSplineSet
EndChar

StartChar: n
Encoding: 110 110 81
Width: 547
Flags: W
LayerCount: 2
Fore
SplineSet
439 0 m 1,0,1
 423 30 423 30 418 67.5 c 128,-1,2
 413 105 413 105 413 134 c 0,3,4
 413 158 413 158 414 179 c 128,-1,5
 415 200 415 200 416.5 223.5 c 128,-1,6
 418 247 418 247 419.5 274 c 128,-1,7
 421 301 421 301 421 336 c 0,8,9
 421 398 421 398 393 427 c 128,-1,10
 365 456 365 456 308 456 c 0,11,12
 254 456 254 456 217 429.5 c 128,-1,13
 180 403 180 403 145 355 c 1,14,-1
 145 353 l 1,15,-1
 145 0 l 1,16,-1
 90 0 l 1,17,-1
 90 353 l 2,18,19
 90 393 90 393 80 422 c 128,-1,20
 70 451 70 451 50 472 c 1,21,-1
 84 505 l 1,22,23
 108 488 108 488 121 463.5 c 128,-1,24
 134 439 134 439 139 413 c 1,25,26
 172 461 172 461 214.5 484.5 c 128,-1,27
 257 508 257 508 308 508 c 0,28,29
 396 508 396 508 436 466 c 128,-1,30
 476 424 476 424 476 347 c 0,31,32
 476 311 476 311 474.5 281.5 c 128,-1,33
 473 252 473 252 471.5 226 c 128,-1,34
 470 200 470 200 469 176 c 128,-1,35
 468 152 468 152 468 128 c 0,36,37
 468 95 468 95 473 65 c 128,-1,38
 478 35 478 35 492 0 c 1,39,-1
 439 0 l 1,0,1
EndSplineSet
EndChar

StartChar: o
Encoding: 111 111 82
Width: 597
Flags: W
LayerCount: 2
Fore
SplineSet
299 -10 m 256,0,1
 243 -10 243 -10 197 9 c 128,-1,2
 151 28 151 28 118.5 62.5 c 128,-1,3
 86 97 86 97 68 144 c 128,-1,4
 50 191 50 191 50 247 c 256,5,6
 50 303 50 303 68 350.5 c 128,-1,7
 86 398 86 398 118.5 433 c 128,-1,8
 151 468 151 468 197 488 c 128,-1,9
 243 508 243 508 299 508 c 256,10,11
 355 508 355 508 400.5 488.5 c 128,-1,12
 446 469 446 469 478.5 434.5 c 128,-1,13
 511 400 511 400 529 352.5 c 128,-1,14
 547 305 547 305 547 250 c 0,15,16
 547 194 547 194 529 146 c 128,-1,17
 511 98 511 98 478.5 63.5 c 128,-1,18
 446 29 446 29 400.5 9.5 c 128,-1,19
 355 -10 355 -10 299 -10 c 256,0,1
299 456 m 0,20,21
 255 456 255 456 220 441 c 128,-1,22
 185 426 185 426 159.5 399 c 128,-1,23
 134 372 134 372 120.5 334 c 128,-1,24
 107 296 107 296 107 250 c 0,25,26
 107 203 107 203 120.5 164.5 c 128,-1,27
 134 126 134 126 159.5 99 c 128,-1,28
 185 72 185 72 220 57 c 128,-1,29
 255 42 255 42 299 42 c 0,30,31
 342 42 342 42 377.5 57.5 c 128,-1,32
 413 73 413 73 438 100.5 c 128,-1,33
 463 128 463 128 476.5 166.5 c 128,-1,34
 490 205 490 205 490 252 c 0,35,36
 490 298 490 298 476.5 335.5 c 128,-1,37
 463 373 463 373 438 400 c 128,-1,38
 413 427 413 427 377.5 441.5 c 128,-1,39
 342 456 342 456 299 456 c 0,20,21
EndSplineSet
EndChar

StartChar: p
Encoding: 112 112 83
Width: 558
Flags: W
LayerCount: 2
Fore
SplineSet
295 508 m 0,0,1
 346 508 346 508 385.5 488 c 128,-1,2
 425 468 425 468 452.5 433 c 128,-1,3
 480 398 480 398 494 351.5 c 128,-1,4
 508 305 508 305 508 251 c 0,5,6
 508 195 508 195 491.5 147.5 c 128,-1,7
 475 100 475 100 444.5 65 c 128,-1,8
 414 30 414 30 371 10 c 128,-1,9
 328 -10 328 -10 275 -10 c 0,10,11
 233 -10 233 -10 200.5 -7 c 128,-1,12
 168 -4 168 -4 145 -1 c 1,13,-1
 145 -250 l 1,14,-1
 90 -250 l 1,15,-1
 90 353 l 2,16,17
 90 393 90 393 80 422 c 128,-1,18
 70 451 70 451 50 472 c 1,19,-1
 84 505 l 1,20,21
 106 488 106 488 118.5 467 c 128,-1,22
 131 446 131 446 137 421 c 1,23,24
 158 462 158 462 199.5 485 c 128,-1,25
 241 508 241 508 295 508 c 0,0,1
295 456 m 0,26,27
 270 456 270 456 245 448 c 128,-1,28
 220 440 220 440 199 424 c 128,-1,29
 178 408 178 408 163 384 c 128,-1,30
 148 360 148 360 145 328 c 1,31,-1
 145 51 l 1,32,33
 163 49 163 49 198 45.5 c 128,-1,34
 233 42 233 42 274 42 c 0,35,36
 314 42 314 42 346.5 57 c 128,-1,37
 379 72 379 72 402.5 99 c 128,-1,38
 426 126 426 126 438.5 164 c 128,-1,39
 451 202 451 202 451 248 c 0,40,41
 451 288 451 288 441 326 c 128,-1,42
 431 364 431 364 411.5 392.5 c 128,-1,43
 392 421 392 421 363 438.5 c 128,-1,44
 334 456 334 456 295 456 c 0,26,27
EndSplineSet
EndChar

StartChar: q
Encoding: 113 113 84
Width: 558
Flags: W
LayerCount: 2
Fore
SplineSet
418 -250 m 1,0,-1
 418 64 l 1,1,2
 395 29 395 29 356 9.5 c 128,-1,3
 317 -10 317 -10 268 -10 c 0,4,5
 217 -10 217 -10 177.5 10 c 128,-1,6
 138 30 138 30 110.5 65 c 128,-1,7
 83 100 83 100 69 146.5 c 128,-1,8
 55 193 55 193 55 247 c 0,9,10
 55 303 55 303 71.5 350.5 c 128,-1,11
 88 398 88 398 118.5 433 c 128,-1,12
 149 468 149 468 192 488 c 128,-1,13
 235 508 235 508 288 508 c 0,14,15
 333 508 333 508 367.5 505 c 128,-1,16
 402 502 402 502 425 498 c 0,17,18
 452 494 452 494 473 488 c 1,19,-1
 473 -250 l 1,20,-1
 418 -250 l 1,0,-1
268 42 m 0,21,22
 292 42 292 42 317.5 50 c 128,-1,23
 343 58 343 58 364 73.5 c 128,-1,24
 385 89 385 89 400 113 c 128,-1,25
 415 137 415 137 418 170 c 1,26,-1
 418 446 l 1,27,28
 400 449 400 449 365 452.5 c 128,-1,29
 330 456 330 456 289 456 c 0,30,31
 249 456 249 456 216.5 441 c 128,-1,32
 184 426 184 426 160.5 399 c 128,-1,33
 137 372 137 372 124.5 334 c 128,-1,34
 112 296 112 296 112 250 c 0,35,36
 112 209 112 209 121.5 171.5 c 128,-1,37
 131 134 131 134 150.5 105.5 c 128,-1,38
 170 77 170 77 199.5 59.5 c 128,-1,39
 229 42 229 42 268 42 c 0,21,22
EndSplineSet
EndChar

StartChar: r
Encoding: 114 114 85
Width: 364
Flags: W
LayerCount: 2
Fore
SplineSet
344 448 m 1,0,1
 335 449 335 449 324 451 c 0,2,3
 315 453 315 453 303.5 454 c 128,-1,4
 292 455 292 455 278 455 c 0,5,6
 237 455 237 455 204 429 c 128,-1,7
 171 403 171 403 145 357 c 1,8,-1
 145 353 l 1,9,-1
 145 0 l 1,10,-1
 90 0 l 1,11,-1
 90 353 l 2,12,13
 90 393 90 393 80 422 c 128,-1,14
 70 451 70 451 50 472 c 1,15,-1
 84 505 l 1,16,17
 107 488 107 488 120 465.5 c 128,-1,18
 133 443 133 443 139 417 c 1,19,20
 165 463 165 463 200 485.5 c 128,-1,21
 235 508 235 508 285 508 c 0,22,23
 296 508 296 508 307 507 c 128,-1,24
 318 506 318 506 326 504 c 0,25,26
 336 502 336 502 344 500 c 1,27,-1
 344 448 l 1,0,1
EndSplineSet
EndChar

StartChar: s
Encoding: 115 115 86
Width: 417
Flags: W
LayerCount: 2
Fore
SplineSet
63 90 m 1,0,1
 89 73 89 73 126.5 57.5 c 128,-1,2
 164 42 164 42 212 42 c 0,3,4
 233 42 233 42 252.5 46.5 c 128,-1,5
 272 51 272 51 287 60.5 c 128,-1,6
 302 70 302 70 310.5 86 c 128,-1,7
 319 102 319 102 319 125 c 0,8,9
 319 160 319 160 300 180 c 128,-1,10
 281 200 281 200 252.5 213.5 c 128,-1,11
 224 227 224 227 191 238 c 128,-1,12
 158 249 158 249 129.5 266.5 c 128,-1,13
 101 284 101 284 82 312 c 128,-1,14
 63 340 63 340 63 387 c 0,15,16
 63 411 63 411 73 433 c 128,-1,17
 83 455 83 455 102 471.5 c 128,-1,18
 121 488 121 488 148 498 c 128,-1,19
 175 508 175 508 209 508 c 0,20,21
 239 508 239 508 267 506.5 c 128,-1,22
 295 505 295 505 329 502 c 1,23,-1
 329 450 l 1,24,25
 251 456 251 456 202 456 c 0,26,27
 163 456 163 456 142 435 c 128,-1,28
 121 414 121 414 121 387 c 0,29,30
 121 352 121 352 140 332.5 c 128,-1,31
 159 313 159 313 187.5 299.5 c 128,-1,32
 216 286 216 286 249 274.5 c 128,-1,33
 282 263 282 263 310.5 245.5 c 128,-1,34
 339 228 339 228 358 200 c 128,-1,35
 377 172 377 172 377 125 c 0,36,37
 377 88 377 88 362.5 62.5 c 128,-1,38
 348 37 348 37 323.5 21 c 128,-1,39
 299 5 299 5 268 -2.5 c 128,-1,40
 237 -10 237 -10 204 -10 c 0,41,42
 154 -10 154 -10 110 7 c 128,-1,43
 66 24 66 24 35 48 c 1,44,-1
 63 90 l 1,0,1
EndSplineSet
EndChar

StartChar: t
Encoding: 116 116 87
Width: 398
Flags: W
LayerCount: 2
Fore
SplineSet
95 504 m 2,0,1
 95 544 95 544 85 573 c 128,-1,2
 75 602 75 602 55 623 c 1,3,-1
 89 656 l 1,4,5
 108 642 108 642 119.5 624.5 c 128,-1,6
 131 607 131 607 138 587 c 128,-1,7
 145 567 145 567 147.5 546 c 128,-1,8
 150 525 150 525 150 504 c 2,9,-1
 150 498 l 1,10,-1
 308 498 l 1,11,-1
 308 443 l 1,12,-1
 150 443 l 1,13,-1
 150 143 l 2,14,15
 150 114 150 114 156 94.5 c 128,-1,16
 162 75 162 75 172 63.5 c 128,-1,17
 182 52 182 52 196 47 c 128,-1,18
 210 42 210 42 225 42 c 0,19,20
 243 42 243 42 263 47.5 c 128,-1,21
 283 53 283 53 301 60.5 c 128,-1,22
 319 68 319 68 333.5 76.5 c 128,-1,23
 348 85 348 85 357 90 c 1,24,-1
 383 48 l 1,25,26
 375 42 375 42 357.5 32 c 128,-1,27
 340 22 340 22 317 12.5 c 128,-1,28
 294 3 294 3 267.5 -3.5 c 128,-1,29
 241 -10 241 -10 215 -10 c 0,30,31
 191 -10 191 -10 169.5 -2.5 c 128,-1,32
 148 5 148 5 131.5 22.5 c 128,-1,33
 115 40 115 40 105 69.5 c 128,-1,34
 95 99 95 99 95 143 c 2,35,-1
 95 504 l 2,0,1
EndSplineSet
EndChar

StartChar: u
Encoding: 117 117 88
Width: 536
Flags: W
LayerCount: 2
Fore
SplineSet
452 -8 m 1,0,1
 427 10 427 10 414.5 34.5 c 128,-1,2
 402 59 402 59 397 87 c 1,3,4
 334 -10 334 -10 232 -10 c 0,5,6
 145 -10 145 -10 107 32 c 128,-1,7
 69 74 69 74 69 151 c 0,8,9
 69 187 69 187 70 216.5 c 128,-1,10
 71 246 71 246 72.5 272 c 128,-1,11
 74 298 74 298 75.5 322 c 128,-1,12
 77 346 77 346 77 370 c 0,13,14
 77 399 77 399 72.5 429 c 128,-1,15
 68 459 68 459 55 488 c 1,16,-1
 103 504 l 1,17,18
 112 490 112 490 117.5 472 c 128,-1,19
 123 454 123 454 126.5 435 c 128,-1,20
 130 416 130 416 131 397.5 c 128,-1,21
 132 379 132 379 132 364 c 0,22,23
 132 340 132 340 130.5 318.5 c 128,-1,24
 129 297 129 297 127.5 274 c 128,-1,25
 126 251 126 251 125 224 c 128,-1,26
 124 197 124 197 124 162 c 0,27,28
 124 100 124 100 149.5 71 c 128,-1,29
 175 42 175 42 232 42 c 0,30,31
 285 42 285 42 321 69.5 c 128,-1,32
 357 97 357 97 392 145 c 1,33,-1
 392 498 l 1,34,-1
 447 498 l 1,35,-1
 447 144 l 2,36,37
 447 67 447 67 486 25 c 1,38,-1
 452 -8 l 1,0,1
EndSplineSet
EndChar

StartChar: v
Encoding: 118 118 89
Width: 516
Flags: W
LayerCount: 2
Fore
SplineSet
336 -8 m 1,0,1
 310 -14 310 -14 289 -14 c 0,2,3
 256 -14 256 -14 231.5 -2.5 c 128,-1,4
 207 9 207 9 189 28 c 128,-1,5
 171 47 171 47 159 71.5 c 128,-1,6
 147 96 147 96 140 121 c 2,7,-1
 35 488 l 1,8,-1
 89 503 l 1,9,-1
 194 136 l 2,10,11
 205 94 205 94 228.5 66.5 c 128,-1,12
 252 39 252 39 291 34 c 1,13,-1
 439 503 l 1,14,-1
 491 486 l 1,15,-1
 336 -8 l 1,16,-1
 336 -8 l 1,0,1
EndSplineSet
EndChar

StartChar: w
Encoding: 119 119 90
Width: 766
Flags: W
LayerCount: 2
Fore
SplineSet
321 -8 m 1,0,1
 295 -14 295 -14 274 -14 c 0,2,3
 242 -14 242 -14 218.5 -2.5 c 128,-1,4
 195 9 195 9 178.5 28 c 128,-1,5
 162 47 162 47 151.5 71 c 128,-1,6
 141 95 141 95 135 121 c 2,7,-1
 45 488 l 1,8,-1
 99 503 l 1,9,-1
 189 136 l 2,10,11
 199 93 199 93 219 66 c 128,-1,12
 239 39 239 39 277 34 c 1,13,-1
 362 281 l 1,14,-1
 362 498 l 1,15,-1
 418 498 l 1,16,-1
 418 281 l 1,17,-1
 469 136 l 2,18,19
 483 95 483 95 501.5 67.5 c 128,-1,20
 520 40 520 40 555 35 c 1,21,-1
 679 503 l 1,22,-1
 731 486 l 1,23,-1
 601 -8 l 1,24,25
 575 -14 575 -14 554 -14 c 0,26,27
 524 -14 524 -14 501 -2 c 128,-1,28
 478 10 478 10 461.5 29 c 128,-1,29
 445 48 445 48 433.5 72 c 128,-1,30
 422 96 422 96 415 121 c 2,31,-1
 389 206 l 1,32,-1
 321 -8 l 1,33,-1
 321 -8 l 1,0,1
EndSplineSet
EndChar

StartChar: x
Encoding: 120 120 91
Width: 469
Flags: W
LayerCount: 2
Fore
SplineSet
45 0 m 1,0,-1
 159 266 l 1,1,2
 136 288 136 288 122 315.5 c 128,-1,3
 108 343 108 343 100 366 c 2,4,-1
 55 486 l 1,5,-1
 108 502 l 1,6,-1
 154 381 l 2,7,8
 161 363 161 363 169 347 c 128,-1,9
 177 331 177 331 189 318 c 128,-1,10
 201 305 201 305 218 295 c 128,-1,11
 235 285 235 285 259 279 c 0,12,13
 260 278 260 278 263 278 c 1,14,-1
 363 502 l 1,15,-1
 416 486 l 1,16,-1
 314 253 l 1,17,18
 343 233 343 233 358 205 c 128,-1,19
 373 177 373 177 382 151 c 2,20,-1
 434 0 l 1,21,-1
 375 0 l 1,22,-1
 328 136 l 2,23,24
 313 181 313 181 286.5 203 c 128,-1,25
 260 225 260 225 215 236 c 0,26,27
 212 236 212 236 208 238 c 1,28,-1
 106 0 l 1,29,-1
 45 0 l 1,0,-1
EndSplineSet
EndChar

StartChar: y
Encoding: 121 121 92
Width: 516
Flags: W
LayerCount: 2
Fore
SplineSet
109 -212 m 1,0,1
 164 -212 164 -212 193.5 -191 c 128,-1,2
 223 -170 223 -170 236 -132 c 2,3,-1
 274 -13 l 1,4,5
 220 -7 220 -7 188 29.5 c 128,-1,6
 156 66 156 66 140 121 c 2,7,-1
 35 488 l 1,8,-1
 89 503 l 1,9,-1
 194 136 l 2,10,11
 206 94 206 94 228.5 67 c 128,-1,12
 251 40 251 40 289 35 c 1,13,-1
 439 503 l 1,14,-1
 491 486 l 1,15,-1
 288 -150 l 2,16,17
 271 -203 271 -203 229 -232 c 128,-1,18
 187 -261 187 -261 116 -261 c 1,19,-1
 109 -212 l 1,0,1
EndSplineSet
EndChar

StartChar: z
Encoding: 122 122 93
Width: 459
Flags: W
LayerCount: 2
Fore
SplineSet
344 -13 m 0,0,1
 306 -13 306 -13 274.5 -7 c 128,-1,2
 243 -1 243 -1 214 9 c 2,3,-1
 115 41 l 1,4,-1
 73 -20 l 1,5,-1
 30 13 l 1,6,-1
 325 446 l 1,7,-1
 68 446 l 1,8,-1
 68 498 l 1,9,-1
 419 498 l 1,10,-1
 419 485 l 1,11,-1
 146 87 l 1,12,-1
 226 59 l 2,13,14
 255 49 255 49 283 44 c 128,-1,15
 311 39 311 39 344 39 c 0,16,17
 385 39 385 39 434 74 c 1,18,-1
 459 30 l 1,19,20
 400 -13 400 -13 344 -13 c 0,0,1
EndSplineSet
EndChar

StartChar: braceleft
Encoding: 123 123 94
Width: 349
Flags: W
LayerCount: 2
Fore
SplineSet
265 -173 m 1,0,1
 235 -164 235 -164 204.5 -156 c 128,-1,2
 174 -148 174 -148 149.5 -134 c 128,-1,3
 125 -120 125 -120 109 -95 c 128,-1,4
 93 -70 93 -70 93 -28 c 0,5,6
 93 1 93 1 96 34 c 128,-1,7
 99 67 99 67 103 98.5 c 128,-1,8
 107 130 107 130 110 157 c 128,-1,9
 113 184 113 184 113 200 c 0,10,11
 113 220 113 220 100 232 c 128,-1,12
 87 244 87 244 71 251 c 0,13,14
 53 258 53 258 30 261 c 1,15,-1
 30 316 l 1,16,17
 53 318 53 318 71 326 c 1,18,19
 87 332 87 332 100 344.5 c 128,-1,20
 113 357 113 357 113 377 c 0,21,22
 113 393 113 393 110 420 c 128,-1,23
 107 447 107 447 103 478.5 c 128,-1,24
 99 510 99 510 96 543 c 128,-1,25
 93 576 93 576 93 605 c 0,26,27
 93 647 93 647 109 672 c 128,-1,28
 125 697 125 697 149.5 711 c 128,-1,29
 174 725 174 725 204.5 733 c 128,-1,30
 235 741 235 741 265 750 c 1,31,-1
 279 704 l 1,32,33
 249 696 249 696 225.5 688.5 c 128,-1,34
 202 681 202 681 186 670.5 c 128,-1,35
 170 660 170 660 162 645 c 128,-1,36
 154 630 154 630 154 607 c 0,37,38
 154 589 154 589 157 560 c 128,-1,39
 160 531 160 531 164 498.5 c 128,-1,40
 168 466 168 466 171 434 c 128,-1,41
 174 402 174 402 174 377 c 0,42,43
 174 355 174 355 166.5 339 c 128,-1,44
 159 323 159 323 148.5 312.5 c 128,-1,45
 138 302 138 302 126.5 296.5 c 128,-1,46
 115 291 115 291 108 288 c 1,47,48
 115 286 115 286 126 280.5 c 128,-1,49
 137 275 137 275 147.5 264.5 c 128,-1,50
 158 254 158 254 166 238 c 128,-1,51
 174 222 174 222 174 200 c 0,52,53
 174 175 174 175 171 142.5 c 128,-1,54
 168 110 168 110 164 78 c 128,-1,55
 160 46 160 46 157 17 c 128,-1,56
 154 -12 154 -12 154 -30 c 0,57,58
 154 -53 154 -53 162 -68 c 128,-1,59
 170 -83 170 -83 186 -93.5 c 128,-1,60
 202 -104 202 -104 225.5 -111.5 c 128,-1,61
 249 -119 249 -119 279 -127 c 1,62,-1
 265 -173 l 1,0,1
EndSplineSet
EndChar

StartChar: bar
Encoding: 124 124 95
Width: 391
Flags: W
LayerCount: 2
Fore
SplineSet
226 750 m 1,0,-1
 226 -70 l 1,1,-1
 165 -70 l 1,2,-1
 165 750 l 1,3,-1
 226 750 l 1,0,-1
EndSplineSet
EndChar

StartChar: braceright
Encoding: 125 125 96
Width: 349
Flags: W
LayerCount: 2
Fore
SplineSet
70 -127 m 1,0,1
 100 -119 100 -119 123.5 -111.5 c 128,-1,2
 147 -104 147 -104 163 -93.5 c 128,-1,3
 179 -83 179 -83 187 -68 c 128,-1,4
 195 -53 195 -53 195 -30 c 0,5,6
 195 -12 195 -12 192 17 c 128,-1,7
 189 46 189 46 185 78 c 128,-1,8
 181 110 181 110 178 142.5 c 128,-1,9
 175 175 175 175 175 200 c 0,10,11
 175 222 175 222 182.5 237.5 c 128,-1,12
 190 253 190 253 200.5 263.5 c 128,-1,13
 211 274 211 274 222.5 280 c 128,-1,14
 234 286 234 286 241 288 c 1,15,16
 234 290 234 290 223 295.5 c 128,-1,17
 212 301 212 301 201.5 311.5 c 128,-1,18
 191 322 191 322 183 338 c 128,-1,19
 175 354 175 354 175 377 c 0,20,21
 175 402 175 402 178 434 c 128,-1,22
 181 466 181 466 185 498.5 c 128,-1,23
 189 531 189 531 192 560 c 128,-1,24
 195 589 195 589 195 607 c 0,25,26
 195 630 195 630 187 645 c 128,-1,27
 179 660 179 660 163 670.5 c 128,-1,28
 147 681 147 681 123.5 688.5 c 128,-1,29
 100 696 100 696 70 704 c 1,30,-1
 84 750 l 1,31,32
 114 741 114 741 144.5 733 c 128,-1,33
 175 725 175 725 199.5 711 c 128,-1,34
 224 697 224 697 240 672 c 128,-1,35
 256 647 256 647 256 605 c 0,36,37
 256 576 256 576 253 543 c 128,-1,38
 250 510 250 510 246 478.5 c 128,-1,39
 242 447 242 447 239 420 c 128,-1,40
 236 393 236 393 236 377 c 0,41,42
 236 357 236 357 248.5 344.5 c 128,-1,43
 261 332 261 332 277 326 c 1,44,45
 295 318 295 318 319 316 c 1,46,-1
 319 261 l 1,47,48
 295 258 295 258 277 251 c 0,49,50
 261 244 261 244 248.5 232 c 128,-1,51
 236 220 236 220 236 200 c 0,52,53
 236 184 236 184 239 157 c 128,-1,54
 242 130 242 130 246 98.5 c 128,-1,55
 250 67 250 67 253 34 c 128,-1,56
 256 1 256 1 256 -28 c 0,57,58
 256 -70 256 -70 240 -95 c 128,-1,59
 224 -120 224 -120 199.5 -134 c 128,-1,60
 175 -148 175 -148 144.5 -156 c 128,-1,61
 114 -164 114 -164 84 -173 c 1,62,-1
 70 -127 l 1,0,1
EndSplineSet
EndChar

StartChar: asciitilde
Encoding: 126 126 97
Width: 520
Flags: W
LayerCount: 2
Fore
SplineSet
55 270 m 1,0,1
 69 311 69 311 99.5 327 c 128,-1,2
 130 343 130 343 175 343 c 0,3,4
 197 343 197 343 219 337.5 c 128,-1,5
 241 332 241 332 262 325.5 c 128,-1,6
 283 319 283 319 303.5 313.5 c 128,-1,7
 324 308 324 308 344 308 c 0,8,9
 369 308 369 308 387 315 c 128,-1,10
 405 322 405 322 416 344 c 1,11,-1
 465 323 l 1,12,13
 451 282 451 282 420.5 266 c 128,-1,14
 390 250 390 250 345 250 c 0,15,16
 324 250 324 250 302 255.5 c 128,-1,17
 280 261 280 261 258 267.5 c 128,-1,18
 236 274 236 274 215.5 279.5 c 128,-1,19
 195 285 195 285 176 285 c 0,20,21
 151 285 151 285 133 278 c 128,-1,22
 115 271 115 271 104 249 c 1,23,-1
 55 270 l 1,0,1
EndSplineSet
EndChar

StartChar: exclamdown
Encoding: 161 161 99
Width: 270
Flags: W
LayerCount: 2
Fore
SplineSet
94 258 m 0,0,1
 94 269 94 269 92.5 278.5 c 128,-1,2
 91 288 91 288 89 296 c 0,3,4
 86 305 86 305 84 312 c 1,5,-1
 140 324 l 1,6,-1
 145 304 l 2,7,8
 147 295 147 295 148.5 283.5 c 128,-1,9
 150 272 150 272 150 258 c 0,10,11
 150 241 150 241 147.5 213.5 c 128,-1,12
 145 186 145 186 141 151.5 c 128,-1,13
 137 117 137 117 131.5 78.5 c 128,-1,14
 126 40 126 40 121 3 c 0,15,16
 108 -85 108 -85 92 -187 c 1,17,-1
 34 -187 l 1,18,19
 51 -85 51 -85 64 3 c 0,20,21
 70 40 70 40 75 78.5 c 128,-1,22
 80 117 80 117 84.5 151.5 c 128,-1,23
 89 186 89 186 91.5 213.5 c 128,-1,24
 94 241 94 241 94 258 c 0,0,1
143 452 m 256,25,26
 143 429 143 429 126.5 412 c 128,-1,27
 110 395 110 395 87 395 c 0,28,29
 63 395 63 395 46.5 412 c 128,-1,30
 30 429 30 429 30 452 c 256,31,32
 30 475 30 475 46.5 491.5 c 128,-1,33
 63 508 63 508 87 508 c 0,34,35
 110 508 110 508 126.5 491.5 c 128,-1,36
 143 475 143 475 143 452 c 256,25,26
EndSplineSet
EndChar

StartChar: cent
Encoding: 162 162 100
Width: 510
Flags: W
LayerCount: 2
Fore
SplineSet
311 750 m 1,0,-1
 311 595 l 1,1,2
 337 593 337 593 364 591.5 c 128,-1,3
 391 590 391 590 415 588 c 1,4,-1
 415 536 l 1,5,-1
 311 543 l 1,6,-1
 311 131 l 1,7,8
 343 135 343 135 375 147.5 c 128,-1,9
 407 160 407 160 434 178 c 1,10,-1
 460 136 l 1,11,12
 432 114 432 114 392.5 98.5 c 128,-1,13
 353 83 353 83 311 79 c 1,14,-1
 311 -70 l 1,15,-1
 250 -70 l 1,16,-1
 250 81 l 1,17,18
 169 94 169 94 122 159 c 128,-1,19
 75 224 75 224 75 335 c 0,20,21
 75 375 75 375 82 418.5 c 128,-1,22
 89 462 89 462 108.5 499.5 c 128,-1,23
 128 537 128 537 162 563.5 c 128,-1,24
 196 590 196 590 250 595 c 1,25,-1
 250 750 l 1,26,-1
 311 750 l 1,0,-1
132 338 m 0,27,28
 132 251 132 251 162.5 200 c 128,-1,29
 193 149 193 149 250 135 c 1,30,-1
 250 543 l 1,31,32
 216 540 216 540 193 522 c 128,-1,33
 170 504 170 504 156.5 476 c 128,-1,34
 143 448 143 448 137.5 412.5 c 128,-1,35
 132 377 132 377 132 338 c 0,27,28
EndSplineSet
EndChar

StartChar: sterling
Encoding: 163 163 101
Width: 496
Flags: W
LayerCount: 2
Fore
SplineSet
117 303 m 1,0,-1
 35 303 l 1,1,-1
 35 360 l 1,2,-1
 117 360 l 1,3,-1
 117 485 l 2,4,5
 117 525 117 525 128.5 557.5 c 128,-1,6
 140 590 140 590 164 613.5 c 128,-1,7
 188 637 188 637 226 650 c 128,-1,8
 264 663 264 663 317 663 c 0,9,10
 347 663 347 663 372 660.5 c 128,-1,11
 397 658 397 658 431 655 c 1,12,-1
 431 603 l 1,13,14
 392 606 392 606 364 608.5 c 128,-1,15
 336 611 336 611 310 611 c 0,16,17
 245 611 245 611 211.5 578 c 128,-1,18
 178 545 178 545 178 485 c 2,19,-1
 178 360 l 1,20,-1
 332 360 l 1,21,-1
 332 303 l 1,22,-1
 178 303 l 1,23,-1
 178 124 l 2,24,25
 178 114 178 114 177.5 105.5 c 128,-1,26
 177 97 177 97 176 89 c 1,27,-1
 248 64 l 2,28,29
 277 54 277 54 305 49 c 128,-1,30
 333 44 333 44 366 44 c 0,31,32
 407 44 407 44 456 79 c 1,33,-1
 481 30 l 1,34,35
 422 -13 422 -13 366 -13 c 0,36,37
 328 -13 328 -13 296.5 -7 c 128,-1,38
 265 -1 265 -1 236 9 c 2,39,-1
 162 33 l 1,40,41
 157 22 157 22 153 13.5 c 128,-1,42
 149 5 149 5 145 -1 c 0,43,44
 141 -8 141 -8 137 -13 c 1,45,-1
 86 8 l 1,46,47
 94 21 94 21 101 39 c 0,48,49
 107 54 107 54 112 75.5 c 128,-1,50
 117 97 117 97 117 124 c 2,51,-1
 117 303 l 1,0,-1
EndSplineSet
EndChar

StartChar: currency
Encoding: 164 164 102
Width: 688
Flags: W
LayerCount: 2
Fore
SplineSet
60 34 m 1,0,-1
 162 136 l 1,1,2
 115 195 115 195 115 287 c 0,3,4
 115 335 115 335 127.5 372 c 128,-1,5
 140 409 140 409 163 438 c 1,6,-1
 60 542 l 1,7,-1
 103 586 l 1,8,-1
 209 480 l 1,9,10
 237 498 237 498 269 509.5 c 128,-1,11
 301 521 301 521 343 521 c 256,12,13
 385 521 385 521 418 509.5 c 128,-1,14
 451 498 451 498 479 480 c 1,15,-1
 585 586 l 1,16,-1
 628 542 l 1,17,-1
 525 438 l 1,18,19
 571 380 571 380 571 288 c 0,20,21
 571 240 571 240 559 203.5 c 128,-1,22
 547 167 547 167 524 138 c 1,23,-1
 628 34 l 1,24,-1
 585 -10 l 1,25,-1
 478 97 l 1,26,27
 450 79 450 79 417.5 67 c 128,-1,28
 385 55 385 55 343 55 c 256,29,30
 301 55 301 55 268.5 66 c 128,-1,31
 236 77 236 77 208 95 c 1,32,-1
 103 -10 l 1,33,-1
 60 34 l 1,0,-1
178 288 m 0,34,35
 178 247 178 247 190 214 c 128,-1,36
 202 181 202 181 223.5 157.5 c 128,-1,37
 245 134 245 134 275.5 121 c 128,-1,38
 306 108 306 108 344 108 c 256,39,40
 382 108 382 108 412.5 121.5 c 128,-1,41
 443 135 443 135 465 159 c 128,-1,42
 487 183 487 183 498.5 216.5 c 128,-1,43
 510 250 510 250 510 290 c 0,44,45
 510 371 510 371 465 419 c 128,-1,46
 420 467 420 467 344 467 c 0,47,48
 306 467 306 467 275.5 454 c 128,-1,49
 245 441 245 441 223 418 c 128,-1,50
 201 395 201 395 189.5 361.5 c 128,-1,51
 178 328 178 328 178 288 c 0,34,35
EndSplineSet
EndChar

StartChar: yen
Encoding: 165 165 103
Width: 537
Flags: W
LayerCount: 2
Fore
SplineSet
250 210 m 1,0,-1
 250 253 l 1,1,2
 205 268 205 268 175.5 304.5 c 128,-1,3
 146 341 146 341 132 381 c 2,4,-1
 35 650 l 1,5,-1
 94 665 l 1,6,-1
 191 396 l 2,7,8
 208 351 208 351 237 325.5 c 128,-1,9
 266 300 266 300 312 299 c 1,10,-1
 445 664 l 1,11,-1
 502 647 l 1,12,-1
 358 252 l 1,13,14
 347 249 347 249 331.5 247.5 c 128,-1,15
 316 246 316 246 304 246 c 1,16,-1
 304 210 l 1,17,-1
 414 210 l 1,18,-1
 414 162 l 1,19,-1
 304 162 l 1,20,-1
 304 118 l 1,21,-1
 414 118 l 1,22,-1
 414 70 l 1,23,-1
 304 70 l 1,24,-1
 304 0 l 1,25,-1
 250 0 l 1,26,-1
 250 70 l 1,27,-1
 142 70 l 1,28,-1
 142 118 l 1,29,-1
 250 118 l 1,30,-1
 250 162 l 1,31,-1
 142 162 l 1,32,-1
 142 210 l 1,33,-1
 250 210 l 1,0,-1
EndSplineSet
EndChar

StartChar: brokenbar
Encoding: 166 166 104
Width: 391
Flags: W
LayerCount: 2
Fore
SplineSet
226 300 m 1,0,-1
 226 -70 l 1,1,-1
 165 -70 l 1,2,-1
 165 300 l 1,3,-1
 226 300 l 1,0,-1
165 380 m 1,4,-1
 165 750 l 1,5,-1
 226 750 l 1,6,-1
 226 380 l 1,7,-1
 165 380 l 1,4,-1
EndSplineSet
EndChar

StartChar: section
Encoding: 167 167 105
Width: 415
Flags: W
LayerCount: 2
Fore
SplineSet
350 281 m 0,0,1
 350 249 350 249 342 227.5 c 128,-1,2
 334 206 334 206 323.5 192.5 c 128,-1,3
 313 179 313 179 303 172.5 c 128,-1,4
 293 166 293 166 288 164 c 1,5,6
 302 147 302 147 311 126 c 128,-1,7
 320 105 320 105 320 78 c 0,8,9
 320 18 320 18 267 -17 c 128,-1,10
 214 -52 214 -52 117 -67 c 1,11,-1
 104 -14 l 1,12,13
 183 2 183 2 219 21 c 128,-1,14
 255 40 255 40 255 78 c 0,15,16
 255 103 255 103 241 122 c 128,-1,17
 227 141 227 141 206 157 c 128,-1,18
 185 173 185 173 160 189 c 128,-1,19
 135 205 135 205 114 224 c 128,-1,20
 93 243 93 243 79 267 c 128,-1,21
 65 291 65 291 65 325 c 0,22,23
 65 357 65 357 72.5 378.5 c 128,-1,24
 80 400 80 400 90.5 413.5 c 128,-1,25
 101 427 101 427 111 433.5 c 128,-1,26
 121 440 121 440 126 442 c 1,27,28
 112 459 112 459 103.5 480 c 128,-1,29
 95 501 95 501 95 528 c 0,30,31
 95 588 95 588 148 623 c 128,-1,32
 201 658 201 658 298 673 c 1,33,-1
 311 620 l 1,34,35
 271 612 271 612 242.5 603.5 c 128,-1,36
 214 595 214 595 195.5 584.5 c 128,-1,37
 177 574 177 574 168.5 560.5 c 128,-1,38
 160 547 160 547 160 528 c 0,39,40
 160 503 160 503 174 484 c 128,-1,41
 188 465 188 465 209 449 c 128,-1,42
 230 433 230 433 255 417 c 128,-1,43
 280 401 280 401 301 382 c 128,-1,44
 322 363 322 363 336 338.5 c 128,-1,45
 350 314 350 314 350 281 c 0,0,1
288 281 m 0,46,47
 288 301 288 301 277 316.5 c 128,-1,48
 266 332 266 332 249 346 c 128,-1,49
 232 360 232 360 211 373.5 c 128,-1,50
 190 387 190 387 170 402 c 1,51,52
 156 394 156 394 141.5 377 c 128,-1,53
 127 360 127 360 127 325 c 0,54,55
 127 305 127 305 138 289 c 128,-1,56
 149 273 149 273 166 259 c 128,-1,57
 183 245 183 245 204 232 c 128,-1,58
 225 219 225 219 245 204 c 1,59,60
 259 211 259 211 273.5 228.5 c 128,-1,61
 288 246 288 246 288 281 c 0,46,47
EndSplineSet
EndChar

StartChar: dieresis
Encoding: 168 168 106
Width: 520
Flags: W
LayerCount: 2
Fore
SplineSet
105 662 m 0,0,1
 105 681 105 681 118 694 c 128,-1,2
 131 707 131 707 149 707 c 0,3,4
 168 707 168 707 181 694 c 128,-1,5
 194 681 194 681 194 662 c 0,6,7
 194 644 194 644 181 631 c 128,-1,8
 168 618 168 618 149 618 c 0,9,10
 131 618 131 618 118 631 c 128,-1,11
 105 644 105 644 105 662 c 0,0,1
326 662 m 0,12,13
 326 681 326 681 339 694 c 128,-1,14
 352 707 352 707 370 707 c 0,15,16
 389 707 389 707 402 694 c 128,-1,17
 415 681 415 681 415 662 c 0,18,19
 415 644 415 644 402 631 c 128,-1,20
 389 618 389 618 370 618 c 0,21,22
 352 618 352 618 339 631 c 128,-1,23
 326 644 326 644 326 662 c 0,12,13
EndSplineSet
EndChar

StartChar: copyright
Encoding: 169 169 107
Width: 766
Flags: W
LayerCount: 2
Fore
SplineSet
316 248 m 0,0,1
 316 194 316 194 338.5 165 c 128,-1,2
 361 136 361 136 402 136 c 0,3,4
 419 136 419 136 438 144 c 128,-1,5
 457 152 457 152 476 165 c 1,6,-1
 498 127 l 1,7,8
 477 112 477 112 451 101 c 128,-1,9
 425 90 425 90 396 90 c 0,10,11
 336 90 336 90 300 130.5 c 128,-1,12
 264 171 264 171 264 246 c 0,13,14
 264 271 264 271 269 299 c 128,-1,15
 274 327 274 327 287.5 350 c 128,-1,16
 301 373 301 373 324.5 388.5 c 128,-1,17
 348 404 348 404 386 404 c 0,18,19
 403 404 403 404 426 403 c 128,-1,20
 449 402 449 402 469 400 c 1,21,-1
 469 353 l 1,22,23
 448 355 448 355 425.5 356.5 c 128,-1,24
 403 358 403 358 386 358 c 0,25,26
 366 358 366 358 352.5 349 c 128,-1,27
 339 340 339 340 331 324.5 c 128,-1,28
 323 309 323 309 319.5 289 c 128,-1,29
 316 269 316 269 316 248 c 0,0,1
384 -60 m 0,30,31
 316 -60 316 -60 260 -37.5 c 128,-1,32
 204 -15 204 -15 164 25 c 128,-1,33
 124 65 124 65 102 121 c 128,-1,34
 80 177 80 177 80 243 c 256,35,36
 80 309 80 309 102 365 c 128,-1,37
 124 421 124 421 164 462 c 128,-1,38
 204 503 204 503 260 526 c 128,-1,39
 316 549 316 549 384 549 c 0,40,41
 451 549 451 549 506.5 526 c 128,-1,42
 562 503 562 503 602 462.5 c 128,-1,43
 642 422 642 422 664 366.5 c 128,-1,44
 686 311 686 311 686 246 c 0,45,46
 686 180 686 180 664 124 c 128,-1,47
 642 68 642 68 602 27 c 128,-1,48
 562 -14 562 -14 506.5 -37 c 128,-1,49
 451 -60 451 -60 384 -60 c 0,30,31
384 501 m 0,50,51
 328 501 328 501 282 482.5 c 128,-1,52
 236 464 236 464 203 430 c 128,-1,53
 170 396 170 396 152 349.5 c 128,-1,54
 134 303 134 303 134 246 c 0,55,56
 134 188 134 188 152 140 c 128,-1,57
 170 92 170 92 203 58 c 128,-1,58
 236 24 236 24 282 5.5 c 128,-1,59
 328 -13 328 -13 384 -13 c 0,60,61
 439 -13 439 -13 484.5 6.5 c 128,-1,62
 530 26 530 26 563 60.5 c 128,-1,63
 596 95 596 95 614 143 c 128,-1,64
 632 191 632 191 632 248 c 256,65,66
 632 305 632 305 614 352 c 128,-1,67
 596 399 596 399 563 432 c 128,-1,68
 530 465 530 465 484.5 483 c 128,-1,69
 439 501 439 501 384 501 c 0,50,51
EndSplineSet
EndChar

StartChar: ordfeminine
Encoding: 170 170 108
Width: 308
Flags: W
LayerCount: 2
Fore
SplineSet
123 412 m 0,0,1
 88 412 88 412 64 433 c 128,-1,2
 40 454 40 454 40 496 c 0,3,4
 40 519 40 519 50.5 534.5 c 128,-1,5
 61 550 61 550 78 559.5 c 128,-1,6
 95 569 95 569 116 573 c 128,-1,7
 137 577 137 577 159 577 c 2,8,-1
 198 577 l 1,9,-1
 198 601 l 2,10,11
 198 627 198 627 184.5 641.5 c 128,-1,12
 171 656 171 656 145 656 c 0,13,14
 126 656 126 656 108.5 649 c 128,-1,15
 91 642 91 642 74 632 c 1,16,-1
 52 667 l 1,17,18
 71 678 71 678 96.5 688 c 128,-1,19
 122 698 122 698 145 698 c 0,20,21
 196 698 196 698 219.5 674 c 128,-1,22
 243 650 243 650 243 606 c 2,23,-1
 243 502 l 2,24,25
 243 484 243 484 250 467 c 128,-1,26
 257 450 257 450 268 437 c 1,27,-1
 243 411 l 1,28,29
 225 425 225 425 217 439.5 c 128,-1,30
 209 454 209 454 207 470 c 1,31,32
 199 445 199 445 178 428.5 c 128,-1,33
 157 412 157 412 123 412 c 0,0,1
133 452 m 0,34,35
 156 452 156 452 174 478.5 c 128,-1,36
 192 505 192 505 197 540 c 1,37,-1
 159 540 l 2,38,39
 146 540 146 540 133 538 c 128,-1,40
 120 536 120 536 109.5 531 c 128,-1,41
 99 526 99 526 92.5 517.5 c 128,-1,42
 86 509 86 509 86 496 c 0,43,44
 86 476 86 476 99.5 464 c 128,-1,45
 113 452 113 452 133 452 c 0,34,35
EndSplineSet
EndChar

StartChar: guillemotleft
Encoding: 171 171 109
Width: 615
Flags: W
LayerCount: 2
Fore
SplineSet
298 19 m 1,0,-1
 92 203 l 1,1,2
 60 230 60 230 60 251 c 256,3,4
 60 272 60 272 92 299 c 1,5,-1
 298 483 l 1,6,-1
 335 442 l 1,7,-1
 119 251 l 1,8,-1
 335 60 l 1,9,-1
 298 19 l 1,0,-1
508 19 m 1,10,-1
 302 203 l 1,11,12
 270 230 270 230 270 251 c 256,13,14
 270 272 270 272 302 299 c 1,15,-1
 508 483 l 1,16,-1
 545 442 l 1,17,-1
 329 251 l 1,18,-1
 545 60 l 1,19,-1
 508 19 l 1,10,-1
EndSplineSet
EndChar

StartChar: logicalnot
Encoding: 172 172 110
Width: 440
Flags: W
LayerCount: 2
Fore
SplineSet
338 264 m 1,0,-1
 40 264 l 1,1,-1
 40 322 l 1,2,-1
 400 322 l 1,3,-1
 400 147 l 1,4,-1
 338 147 l 1,5,-1
 338 264 l 1,0,-1
EndSplineSet
EndChar

StartChar: uni00AD
Encoding: 173 173 111
Width: 392
Flags: W
LayerCount: 2
Fore
SplineSet
342 334 m 1,0,-1
 342 276 l 1,1,-1
 50 276 l 1,2,-1
 50 334 l 1,3,-1
 342 334 l 1,0,-1
EndSplineSet
EndChar

StartChar: registered
Encoding: 174 174 112
Width: 766
Flags: W
LayerCount: 2
Fore
SplineSet
387 593 m 0,0,1
 440 593 440 593 472 563.5 c 128,-1,2
 504 534 504 534 504 488 c 0,3,4
 504 457 504 457 486 433.5 c 128,-1,5
 468 410 468 410 445 402 c 1,6,7
 460 396 460 396 470 384 c 128,-1,8
 480 372 480 372 486 358 c 2,9,-1
 524 266 l 1,10,-1
 477 246 l 1,11,-1
 445 331 l 2,12,13
 437 353 437 353 417.5 371 c 128,-1,14
 398 389 398 389 361 389 c 2,15,-1
 339 389 l 1,16,-1
 339 240 l 1,17,-1
 291 240 l 1,18,-1
 291 545 l 1,19,20
 276 549 276 549 261.5 557.5 c 128,-1,21
 247 566 247 566 234 583 c 1,22,-1
 263 612 l 1,23,24
 287 588 287 588 322 588 c 0,25,26
 332 588 332 588 352.5 590.5 c 128,-1,27
 373 593 373 593 387 593 c 0,0,1
339 429 m 1,28,-1
 397 429 l 2,29,30
 422 429 422 429 439 444.5 c 128,-1,31
 456 460 456 460 456 488 c 0,32,33
 456 515 456 515 437 531 c 128,-1,34
 418 547 418 547 386 547 c 0,35,36
 377 547 377 547 368.5 546 c 128,-1,37
 360 545 360 545 353 544 c 0,38,39
 345 543 345 543 339 542 c 1,40,-1
 339 429 l 1,28,-1
384 117 m 0,41,42
 316 117 316 117 260 139.5 c 128,-1,43
 204 162 204 162 164 202 c 128,-1,44
 124 242 124 242 102 298 c 128,-1,45
 80 354 80 354 80 420 c 256,46,47
 80 486 80 486 102 542 c 128,-1,48
 124 598 124 598 164 639 c 128,-1,49
 204 680 204 680 260 703 c 128,-1,50
 316 726 316 726 384 726 c 0,51,52
 451 726 451 726 506.5 703 c 128,-1,53
 562 680 562 680 602 639.5 c 128,-1,54
 642 599 642 599 664 543.5 c 128,-1,55
 686 488 686 488 686 423 c 0,56,57
 686 357 686 357 664 301 c 128,-1,58
 642 245 642 245 602 204 c 128,-1,59
 562 163 562 163 506.5 140 c 128,-1,60
 451 117 451 117 384 117 c 0,41,42
384 678 m 0,61,62
 328 678 328 678 282 659.5 c 128,-1,63
 236 641 236 641 203 607 c 128,-1,64
 170 573 170 573 152 526.5 c 128,-1,65
 134 480 134 480 134 423 c 0,66,67
 134 365 134 365 152 317 c 128,-1,68
 170 269 170 269 203 235 c 128,-1,69
 236 201 236 201 282 182.5 c 128,-1,70
 328 164 328 164 384 164 c 0,71,72
 439 164 439 164 484.5 183.5 c 128,-1,73
 530 203 530 203 563 237.5 c 128,-1,74
 596 272 596 272 614 320 c 128,-1,75
 632 368 632 368 632 425 c 256,76,77
 632 482 632 482 614 529 c 128,-1,78
 596 576 596 576 563 609 c 128,-1,79
 530 642 530 642 484.5 660 c 128,-1,80
 439 678 439 678 384 678 c 0,61,62
EndSplineSet
EndChar

StartChar: macron
Encoding: 175 175 113
Width: 520
Flags: W
LayerCount: 2
Fore
SplineSet
423 627 m 1,0,-1
 97 627 l 1,1,-1
 97 684 l 1,2,-1
 423 684 l 1,3,-1
 423 627 l 1,0,-1
EndSplineSet
EndChar

StartChar: degree
Encoding: 176 176 114
Width: 365
Flags: W
LayerCount: 2
Fore
SplineSet
183 396 m 256,0,1
 123 396 123 396 86.5 433 c 128,-1,2
 50 470 50 470 50 529 c 0,3,4
 50 558 50 558 59.5 583 c 128,-1,5
 69 608 69 608 86 626 c 128,-1,6
 103 644 103 644 127.5 654 c 128,-1,7
 152 664 152 664 182 664 c 0,8,9
 242 664 242 664 278.5 627 c 128,-1,10
 315 590 315 590 315 531 c 256,11,12
 315 472 315 472 279 434 c 128,-1,13
 243 396 243 396 183 396 c 256,0,1
183 615 m 256,14,15
 148 615 148 615 126 591.5 c 128,-1,16
 104 568 104 568 104 530 c 256,17,18
 104 492 104 492 125.5 468.5 c 128,-1,19
 147 445 147 445 182 445 c 256,20,21
 217 445 217 445 239 468.5 c 128,-1,22
 261 492 261 492 261 530 c 256,23,24
 261 568 261 568 239.5 591.5 c 128,-1,25
 218 615 218 615 183 615 c 256,14,15
EndSplineSet
EndChar

StartChar: plusminus
Encoding: 177 177 115
Width: 472
Flags: W
LayerCount: 2
Fore
SplineSet
422 52 m 1,0,-1
 422 0 l 1,1,-1
 50 0 l 1,2,-1
 50 52 l 1,3,-1
 422 52 l 1,0,-1
208 268 m 1,4,-1
 50 268 l 1,5,-1
 50 319 l 1,6,-1
 208 319 l 1,7,-1
 208 479 l 1,8,-1
 264 479 l 1,9,-1
 264 319 l 1,10,-1
 422 319 l 1,11,-1
 422 268 l 1,12,-1
 264 268 l 1,13,-1
 264 107 l 1,14,-1
 208 107 l 1,15,-1
 208 268 l 1,4,-1
EndSplineSet
EndChar

StartChar: uni00B2
Encoding: 178 178 116
Width: 280
Flags: W
LayerCount: 2
Fore
SplineSet
40 419 m 2,0,1
 40 444 40 444 47.5 463.5 c 128,-1,2
 55 483 55 483 66.5 498.5 c 128,-1,3
 78 514 78 514 93 526 c 128,-1,4
 108 538 108 538 123 549 c 0,5,6
 146 565 146 565 163 581.5 c 128,-1,7
 180 598 180 598 180 618 c 0,8,9
 180 658 180 658 138 658 c 0,10,11
 133 658 133 658 122 657.5 c 128,-1,12
 111 657 111 657 99 656.5 c 128,-1,13
 87 656 87 656 74.5 655.5 c 128,-1,14
 62 655 62 655 54 655 c 1,15,-1
 54 697 l 1,16,17
 63 698 63 698 74 698.5 c 128,-1,18
 85 699 85 699 96.5 699.5 c 128,-1,19
 108 700 108 700 118 700.5 c 128,-1,20
 128 701 128 701 135 701 c 0,21,22
 183 701 183 701 203.5 678 c 128,-1,23
 224 655 224 655 224 617 c 0,24,25
 224 599 224 599 217.5 584 c 128,-1,26
 211 569 211 569 200.5 556.5 c 128,-1,27
 190 544 190 544 176 533 c 128,-1,28
 162 522 162 522 148 512 c 0,29,30
 131 501 131 501 116.5 487.5 c 128,-1,31
 102 474 102 474 94 457 c 1,32,-1
 240 457 l 1,33,-1
 240 414 l 1,34,-1
 40 414 l 1,35,-1
 40 419 l 2,0,1
EndSplineSet
EndChar

StartChar: uni00B3
Encoding: 179 179 117
Width: 268
Flags: W
LayerCount: 2
Fore
SplineSet
165 623 m 0,0,1
 165 659 165 659 122 659 c 0,2,3
 115 659 115 659 99.5 658.5 c 128,-1,4
 84 658 84 658 70 657 c 0,5,6
 65 657 65 657 56 656.5 c 128,-1,7
 47 656 47 656 43 656 c 1,8,-1
 43 698 l 1,9,10
 62 700 62 700 85 700.5 c 128,-1,11
 108 701 108 701 120 701 c 0,12,13
 168 701 168 701 188 680.5 c 128,-1,14
 208 660 208 660 208 622 c 0,15,16
 208 592 208 592 192 573 c 1,17,18
 203 561 203 561 213 543 c 128,-1,19
 223 525 223 525 223 500 c 0,20,21
 223 455 223 455 194.5 433.5 c 128,-1,22
 166 412 166 412 118 412 c 0,23,24
 107 412 107 412 93.5 412.5 c 128,-1,25
 80 413 80 413 68 415 c 1,26,27
 54 416 54 416 40 418 c 1,28,-1
 40 461 l 1,29,30
 53 459 53 459 67 458 c 1,31,32
 78 456 78 456 92 455.5 c 128,-1,33
 106 455 106 455 117 455 c 0,34,35
 146 455 146 455 161.5 465.5 c 128,-1,36
 177 476 177 476 177 502 c 0,37,38
 177 516 177 516 169.5 528.5 c 128,-1,39
 162 541 162 541 153 550 c 1,40,41
 131 543 131 543 99 543 c 2,42,-1
 81 543 l 1,43,-1
 81 587 l 1,44,-1
 101 587 l 2,45,46
 125 587 125 587 145 593 c 128,-1,47
 165 599 165 599 165 623 c 0,0,1
EndSplineSet
EndChar

StartChar: acute
Encoding: 180 180 118
Width: 520
Flags: W
LayerCount: 2
Fore
SplineSet
163 601 m 1,0,-1
 321 726 l 1,1,-1
 357 677 l 1,2,-1
 185 567 l 1,3,-1
 163 601 l 1,0,-1
EndSplineSet
EndChar

StartChar: uni00B5
Encoding: 181 181 119
Width: 553
Flags: W
LayerCount: 2
Fore
SplineSet
469 -8 m 1,0,1
 444 10 444 10 431.5 34.5 c 128,-1,2
 419 59 419 59 414 87 c 1,3,4
 351 -10 351 -10 249 -10 c 0,5,6
 213 -10 213 -10 186.5 -3 c 128,-1,7
 160 4 160 4 140 18 c 1,8,-1
 140 -250 l 1,9,-1
 85 -250 l 1,10,-1
 85 498 l 1,11,-1
 140 498 l 1,12,-1
 140 162 l 1,13,-1
 141 162 l 1,14,15
 141 100 141 100 166.5 71 c 128,-1,16
 192 42 192 42 249 42 c 0,17,18
 302 42 302 42 338 69.5 c 128,-1,19
 374 97 374 97 409 145 c 1,20,-1
 409 498 l 1,21,-1
 464 498 l 1,22,-1
 464 144 l 2,23,24
 464 67 464 67 503 25 c 1,25,-1
 469 -8 l 1,0,1
EndSplineSet
EndChar

StartChar: paragraph
Encoding: 182 182 120
Width: 449
Flags: W
LayerCount: 2
Fore
SplineSet
341 557 m 1,0,-1
 259 557 l 1,1,-1
 259 -75 l 1,2,-1
 200 -75 l 1,3,-1
 200 250 l 1,4,5
 109 261 109 261 64.5 303.5 c 128,-1,6
 20 346 20 346 20 431 c 0,7,8
 20 533 20 533 82 575 c 128,-1,9
 144 617 144 617 273 617 c 0,10,11
 284 617 284 617 294.5 617 c 128,-1,12
 305 617 305 617 318.5 616.5 c 128,-1,13
 332 616 332 616 351 615.5 c 128,-1,14
 370 615 370 615 399 614 c 1,15,-1
 399 -75 l 1,16,-1
 341 -75 l 1,17,-1
 341 557 l 1,0,-1
EndSplineSet
EndChar

StartChar: periodcentered
Encoding: 183 183 121
Width: 293
Flags: W
LayerCount: 2
Fore
SplineSet
90 322 m 256,0,1
 90 345 90 345 106.5 362 c 128,-1,2
 123 379 123 379 146 379 c 0,3,4
 170 379 170 379 186.5 362 c 128,-1,5
 203 345 203 345 203 322 c 256,6,7
 203 299 203 299 186.5 282.5 c 128,-1,8
 170 266 170 266 146 266 c 0,9,10
 123 266 123 266 106.5 282.5 c 128,-1,11
 90 299 90 299 90 322 c 256,0,1
EndSplineSet
EndChar

StartChar: cedilla
Encoding: 184 184 122
Width: 833
Flags: W
LayerCount: 2
Fore
SplineSet
300 0 m 1,0,-1
 300 -66 l 1,1,2
 325 -69 325 -69 342.5 -84.5 c 128,-1,3
 360 -100 360 -100 360 -126 c 0,4,5
 360 -158 360 -158 343.5 -194 c 128,-1,6
 327 -230 327 -230 289 -257 c 1,7,-1
 255 -224 l 1,8,9
 264 -214 264 -214 273 -204.5 c 128,-1,10
 282 -195 282 -195 289 -185.5 c 128,-1,11
 296 -176 296 -176 300.5 -164.5 c 128,-1,12
 305 -153 305 -153 305 -139 c 0,13,14
 305 -126 305 -126 298.5 -119.5 c 128,-1,15
 292 -113 292 -113 283 -110 c 128,-1,16
 274 -107 274 -107 264 -106 c 128,-1,17
 254 -105 254 -105 247 -103 c 1,18,-1
 247 0 l 1,19,-1
 300 0 l 1,0,-1
EndSplineSet
EndChar

StartChar: uni00B9
Encoding: 185 185 123
Width: 245
Flags: W
LayerCount: 2
Fore
SplineSet
175 700 m 1,0,-1
 175 414 l 1,1,-1
 127 414 l 1,2,-1
 127 637 l 1,3,4
 114 631 114 631 101.5 627.5 c 128,-1,5
 89 624 89 624 75 624 c 0,6,7
 67 624 67 624 59 625 c 128,-1,8
 51 626 51 626 40 631 c 1,9,-1
 49 670 l 1,10,11
 59 668 59 668 63 667.5 c 128,-1,12
 67 667 67 667 70 667 c 0,13,14
 99 667 99 667 122.5 678 c 128,-1,15
 146 689 146 689 169 704 c 1,16,-1
 175 700 l 1,0,-1
EndSplineSet
EndChar

StartChar: ordmasculine
Encoding: 186 186 124
Width: 349
Flags: W
LayerCount: 2
Fore
SplineSet
174 410 m 256,0,1
 142 410 142 410 116.5 421 c 128,-1,2
 91 432 91 432 73 451 c 128,-1,3
 55 470 55 470 45 496.5 c 128,-1,4
 35 523 35 523 35 554 c 256,5,6
 35 585 35 585 45 612 c 128,-1,7
 55 639 55 639 73 658 c 128,-1,8
 91 677 91 677 116.5 688 c 128,-1,9
 142 699 142 699 174 699 c 256,10,11
 206 699 206 699 232 688.5 c 128,-1,12
 258 678 258 678 276 659 c 128,-1,13
 294 640 294 640 304 613.5 c 128,-1,14
 314 587 314 587 314 556 c 0,15,16
 314 524 314 524 304 497.5 c 128,-1,17
 294 471 294 471 276 451.5 c 128,-1,18
 258 432 258 432 232 421 c 128,-1,19
 206 410 206 410 174 410 c 256,0,1
174 654 m 0,20,21
 133 654 133 654 108.5 627.5 c 128,-1,22
 84 601 84 601 84 556 c 256,23,24
 84 511 84 511 108.5 483 c 128,-1,25
 133 455 133 455 174 455 c 0,26,27
 216 455 216 455 241 483.5 c 128,-1,28
 266 512 266 512 266 557 c 256,29,30
 266 602 266 602 241 628 c 128,-1,31
 216 654 216 654 174 654 c 0,20,21
EndSplineSet
EndChar

StartChar: guillemotright
Encoding: 187 187 125
Width: 615
Flags: W
LayerCount: 2
Fore
SplineSet
280 60 m 1,0,-1
 496 251 l 1,1,-1
 280 442 l 1,2,-1
 317 483 l 1,3,-1
 523 299 l 1,4,5
 555 272 555 272 555 251 c 256,6,7
 555 230 555 230 523 203 c 1,8,-1
 317 19 l 1,9,-1
 280 60 l 1,0,-1
70 60 m 1,10,-1
 286 251 l 1,11,-1
 70 442 l 1,12,-1
 107 483 l 1,13,-1
 313 299 l 1,14,15
 345 272 345 272 345 251 c 256,16,17
 345 230 345 230 313 203 c 1,18,-1
 107 19 l 1,19,-1
 70 60 l 1,10,-1
EndSplineSet
EndChar

StartChar: onequarter
Encoding: 188 188 126
Width: 695
Flags: W
LayerCount: 2
Fore
SplineSet
497 653 m 1,0,-1
 279 0 l 1,1,-1
 220 0 l 1,2,-1
 439 653 l 1,3,-1
 497 653 l 1,0,-1
552 280 m 1,4,-1
 532 138 l 1,5,-1
 629 138 l 1,6,-1
 629 280 l 1,7,-1
 675 280 l 1,8,-1
 675 0 l 1,9,-1
 629 0 l 1,10,-1
 629 94 l 1,11,-1
 481 94 l 1,12,-1
 507 280 l 1,13,-1
 552 280 l 1,4,-1
225 659 m 1,14,-1
 225 373 l 1,15,-1
 177 373 l 1,16,-1
 177 596 l 1,17,18
 164 590 164 590 151.5 586.5 c 128,-1,19
 139 583 139 583 125 583 c 0,20,21
 117 583 117 583 109 584 c 128,-1,22
 101 585 101 585 90 590 c 1,23,-1
 99 629 l 1,24,25
 109 627 109 627 113 626.5 c 128,-1,26
 117 626 117 626 120 626 c 0,27,28
 149 626 149 626 172.5 637 c 128,-1,29
 196 648 196 648 219 663 c 1,30,-1
 225 659 l 1,14,-1
EndSplineSet
EndChar

StartChar: onehalf
Encoding: 189 189 127
Width: 683
Flags: W
LayerCount: 2
Fore
SplineSet
497 653 m 1,0,-1
 279 0 l 1,1,-1
 220 0 l 1,2,-1
 439 653 l 1,3,-1
 497 653 l 1,0,-1
463 5 m 2,4,5
 463 30 463 30 470.5 49.5 c 128,-1,6
 478 69 478 69 489.5 84.5 c 128,-1,7
 501 100 501 100 516 112 c 128,-1,8
 531 124 531 124 546 135 c 0,9,10
 569 151 569 151 586 167.5 c 128,-1,11
 603 184 603 184 603 204 c 0,12,13
 603 244 603 244 561 244 c 0,14,15
 556 244 556 244 545 243.5 c 128,-1,16
 534 243 534 243 522 242.5 c 128,-1,17
 510 242 510 242 497.5 241.5 c 128,-1,18
 485 241 485 241 477 241 c 1,19,-1
 477 283 l 1,20,21
 486 284 486 284 497 284.5 c 128,-1,22
 508 285 508 285 519.5 285.5 c 128,-1,23
 531 286 531 286 541 286.5 c 128,-1,24
 551 287 551 287 558 287 c 0,25,26
 606 287 606 287 626.5 264 c 128,-1,27
 647 241 647 241 647 203 c 0,28,29
 647 185 647 185 640.5 170 c 128,-1,30
 634 155 634 155 623.5 142.5 c 128,-1,31
 613 130 613 130 599 119 c 128,-1,32
 585 108 585 108 571 98 c 0,33,34
 554 87 554 87 539.5 73.5 c 128,-1,35
 525 60 525 60 517 43 c 1,36,-1
 663 43 l 1,37,-1
 663 0 l 1,38,-1
 463 0 l 1,39,-1
 463 5 l 2,4,5
225 659 m 1,40,-1
 225 373 l 1,41,-1
 177 373 l 1,42,-1
 177 596 l 1,43,44
 164 590 164 590 151.5 586.5 c 128,-1,45
 139 583 139 583 125 583 c 0,46,47
 117 583 117 583 109 584 c 128,-1,48
 101 585 101 585 90 590 c 1,49,-1
 99 629 l 1,50,51
 109 627 109 627 113 626.5 c 128,-1,52
 117 626 117 626 120 626 c 0,53,54
 144 626 144 626 164.5 634 c 128,-1,55
 185 642 185 642 205 654 c 2,56,-1
 219 663 l 1,57,-1
 225 659 l 1,40,-1
EndSplineSet
EndChar

StartChar: threequarters
Encoding: 190 190 128
Width: 714
Flags: W
LayerCount: 2
Fore
SplineSet
516 653 m 1,0,-1
 298 0 l 1,1,-1
 239 0 l 1,2,-1
 458 653 l 1,3,-1
 516 653 l 1,0,-1
571 280 m 1,4,-1
 551 138 l 1,5,-1
 648 138 l 1,6,-1
 648 280 l 1,7,-1
 694 280 l 1,8,-1
 694 0 l 1,9,-1
 648 0 l 1,10,-1
 648 94 l 1,11,-1
 500 94 l 1,12,-1
 526 280 l 1,13,-1
 571 280 l 1,4,-1
225 580 m 0,14,15
 225 616 225 616 182 616 c 0,16,17
 175 616 175 616 159.5 615.5 c 128,-1,18
 144 615 144 615 130 614 c 0,19,20
 125 614 125 614 116 613.5 c 128,-1,21
 107 613 107 613 103 613 c 1,22,-1
 103 655 l 1,23,24
 122 657 122 657 145 657.5 c 128,-1,25
 168 658 168 658 180 658 c 0,26,27
 228 658 228 658 248 637.5 c 128,-1,28
 268 617 268 617 268 579 c 0,29,30
 268 549 268 549 252 530 c 1,31,32
 263 518 263 518 273 500 c 128,-1,33
 283 482 283 482 283 457 c 0,34,35
 283 412 283 412 254.5 390.5 c 128,-1,36
 226 369 226 369 178 369 c 0,37,38
 167 369 167 369 153.5 369.5 c 128,-1,39
 140 370 140 370 128 372 c 1,40,41
 114 373 114 373 100 375 c 1,42,-1
 100 418 l 1,43,44
 113 416 113 416 127 415 c 1,45,46
 138 413 138 413 152 412.5 c 128,-1,47
 166 412 166 412 177 412 c 0,48,49
 206 412 206 412 221.5 422.5 c 128,-1,50
 237 433 237 433 237 459 c 0,51,52
 237 473 237 473 229.5 485.5 c 128,-1,53
 222 498 222 498 213 507 c 1,54,55
 191 500 191 500 159 500 c 2,56,-1
 141 500 l 1,57,-1
 141 544 l 1,58,-1
 161 544 l 2,59,60
 185 544 185 544 205 550 c 128,-1,61
 225 556 225 556 225 580 c 0,14,15
EndSplineSet
EndChar

StartChar: questiondown
Encoding: 191 191 129
Width: 430
Flags: W
LayerCount: 2
Fore
SplineSet
67 -20 m 0,0,1
 67 -80 67 -80 100.5 -113 c 128,-1,2
 134 -146 134 -146 199 -146 c 0,3,4
 212 -146 212 -146 234.5 -145.5 c 128,-1,5
 257 -145 257 -145 283 -143.5 c 128,-1,6
 309 -142 309 -142 334.5 -141 c 128,-1,7
 360 -140 360 -140 380 -138 c 1,8,-1
 380 -190 l 1,9,10
 363 -192 363 -192 339.5 -193 c 128,-1,11
 316 -194 316 -194 291 -195.5 c 128,-1,12
 266 -197 266 -197 243.5 -197.5 c 128,-1,13
 221 -198 221 -198 206 -198 c 0,14,15
 153 -198 153 -198 115.5 -184.5 c 128,-1,16
 78 -171 78 -171 54.5 -147 c 128,-1,17
 31 -123 31 -123 20.5 -90 c 128,-1,18
 10 -57 10 -57 10 -17 c 0,19,20
 10 25 10 25 26 54.5 c 128,-1,21
 42 84 42 84 65.5 106 c 128,-1,22
 89 128 89 128 117 144.5 c 128,-1,23
 145 161 145 161 168.5 177 c 128,-1,24
 192 193 192 193 208 212 c 128,-1,25
 224 231 224 231 224 258 c 0,26,27
 224 269 224 269 222.5 278.5 c 128,-1,28
 221 288 221 288 219 296 c 0,29,30
 216 305 216 305 214 312 c 1,31,-1
 273 324 l 1,32,-1
 278 304 l 2,33,34
 280 295 280 295 281.5 283.5 c 128,-1,35
 283 272 283 272 283 258 c 0,36,37
 283 219 283 219 267 193 c 128,-1,38
 251 167 251 167 227 147.5 c 128,-1,39
 203 128 203 128 175 113 c 128,-1,40
 147 98 147 98 123 80 c 128,-1,41
 99 62 99 62 83 38.5 c 128,-1,42
 67 15 67 15 67 -20 c 0,0,1
269 452 m 256,43,44
 269 429 269 429 252.5 412 c 128,-1,45
 236 395 236 395 213 395 c 0,46,47
 189 395 189 395 172.5 412 c 128,-1,48
 156 429 156 429 156 452 c 256,49,50
 156 475 156 475 172.5 491.5 c 128,-1,51
 189 508 189 508 213 508 c 0,52,53
 236 508 236 508 252.5 491.5 c 128,-1,54
 269 475 269 475 269 452 c 256,43,44
EndSplineSet
EndChar

StartChar: Agrave
Encoding: 192 192 130
Width: 635
Flags: W
LayerCount: 2
Fore
SplineSet
326 703 m 1,0,-1
 625 0 l 1,1,-1
 561 0 l 1,2,-1
 464 227 l 1,3,-1
 169 227 l 1,4,-1
 74 0 l 1,5,-1
 10 0 l 1,6,-1
 307 703 l 1,7,-1
 326 703 l 1,0,-1
193 284 m 1,8,-1
 440 284 l 1,9,-1
 341 517 l 2,10,11
 333 536 333 536 326.5 557.5 c 128,-1,12
 320 579 320 579 316 595 c 1,13,14
 312 578 312 578 306 556.5 c 128,-1,15
 300 535 300 535 292 517 c 2,16,-1
 193 284 l 1,8,-1
324 723 m 1,17,-1
 124 768 l 1,18,-1
 142 826 l 1,19,-1
 336 763 l 1,20,-1
 324 723 l 1,17,-1
EndSplineSet
EndChar

StartChar: Aacute
Encoding: 193 193 131
Width: 635
Flags: W
LayerCount: 2
Fore
SplineSet
326 703 m 1,0,-1
 625 0 l 1,1,-1
 561 0 l 1,2,-1
 464 227 l 1,3,-1
 169 227 l 1,4,-1
 74 0 l 1,5,-1
 10 0 l 1,6,-1
 307 703 l 1,7,-1
 326 703 l 1,0,-1
193 284 m 1,8,-1
 440 284 l 1,9,-1
 341 517 l 2,10,11
 333 536 333 536 326.5 557.5 c 128,-1,12
 320 579 320 579 316 595 c 1,13,14
 312 578 312 578 306 556.5 c 128,-1,15
 300 535 300 535 292 517 c 2,16,-1
 193 284 l 1,8,-1
296 763 m 1,17,-1
 490 826 l 1,18,-1
 508 768 l 1,19,-1
 308 723 l 1,20,-1
 296 763 l 1,17,-1
EndSplineSet
EndChar

StartChar: Acircumflex
Encoding: 194 194 132
Width: 635
Flags: W
LayerCount: 2
Fore
SplineSet
326 703 m 1,0,-1
 625 0 l 1,1,-1
 561 0 l 1,2,-1
 464 227 l 1,3,-1
 169 227 l 1,4,-1
 74 0 l 1,5,-1
 10 0 l 1,6,-1
 307 703 l 1,7,-1
 326 703 l 1,0,-1
193 284 m 1,8,-1
 440 284 l 1,9,-1
 341 517 l 2,10,11
 333 536 333 536 326.5 557.5 c 128,-1,12
 320 579 320 579 316 595 c 1,13,14
 312 578 312 578 306 556.5 c 128,-1,15
 300 535 300 535 292 517 c 2,16,-1
 193 284 l 1,8,-1
437 719 m 1,17,-1
 317 831 l 1,18,-1
 197 718 l 1,19,-1
 160 755 l 1,20,-1
 269 858 l 2,21,22
 283 872 283 872 294.5 881 c 128,-1,23
 306 890 306 890 317 890 c 256,24,25
 328 890 328 890 339.5 881 c 128,-1,26
 351 872 351 872 365 858 c 2,27,-1
 474 756 l 1,28,-1
 437 719 l 1,17,-1
EndSplineSet
EndChar

StartChar: Atilde
Encoding: 195 195 133
Width: 635
Flags: W
LayerCount: 2
Fore
SplineSet
326 703 m 1,0,-1
 625 0 l 1,1,-1
 561 0 l 1,2,-1
 464 227 l 1,3,-1
 169 227 l 1,4,-1
 74 0 l 1,5,-1
 10 0 l 1,6,-1
 307 703 l 1,7,-1
 326 703 l 1,0,-1
193 284 m 1,8,-1
 440 284 l 1,9,-1
 341 517 l 2,10,11
 333 536 333 536 326.5 557.5 c 128,-1,12
 320 579 320 579 316 595 c 1,13,14
 312 578 312 578 306 556.5 c 128,-1,15
 300 535 300 535 292 517 c 2,16,-1
 193 284 l 1,8,-1
115 787 m 1,17,18
 129 828 129 828 159.5 844 c 128,-1,19
 190 860 190 860 235 860 c 0,20,21
 257 860 257 860 279 854.5 c 128,-1,22
 301 849 301 849 322 842.5 c 128,-1,23
 343 836 343 836 363.5 830.5 c 128,-1,24
 384 825 384 825 404 825 c 0,25,26
 429 825 429 825 447 832 c 128,-1,27
 465 839 465 839 476 861 c 1,28,-1
 525 840 l 1,29,30
 511 799 511 799 480.5 783 c 128,-1,31
 450 767 450 767 405 767 c 0,32,33
 384 767 384 767 362 772.5 c 128,-1,34
 340 778 340 778 318 784.5 c 128,-1,35
 296 791 296 791 275.5 796.5 c 128,-1,36
 255 802 255 802 236 802 c 0,37,38
 211 802 211 802 193 795 c 128,-1,39
 175 788 175 788 164 766 c 1,40,-1
 115 787 l 1,17,18
EndSplineSet
EndChar

StartChar: Adieresis
Encoding: 196 196 134
Width: 635
Flags: W
LayerCount: 2
Fore
SplineSet
326 703 m 1,0,-1
 625 0 l 1,1,-1
 561 0 l 1,2,-1
 464 227 l 1,3,-1
 169 227 l 1,4,-1
 74 0 l 1,5,-1
 10 0 l 1,6,-1
 307 703 l 1,7,-1
 326 703 l 1,0,-1
193 284 m 1,8,-1
 440 284 l 1,9,-1
 341 517 l 2,10,11
 333 536 333 536 326.5 557.5 c 128,-1,12
 320 579 320 579 316 595 c 1,13,14
 312 578 312 578 306 556.5 c 128,-1,15
 300 535 300 535 292 517 c 2,16,-1
 193 284 l 1,8,-1
381 813 m 0,17,18
 381 832 381 832 394 845 c 128,-1,19
 407 858 407 858 425 858 c 0,20,21
 444 858 444 858 457 845 c 128,-1,22
 470 832 470 832 470 813 c 0,23,24
 470 795 470 795 457 782 c 128,-1,25
 444 769 444 769 425 769 c 0,26,27
 407 769 407 769 394 782 c 128,-1,28
 381 795 381 795 381 813 c 0,17,18
160 813 m 0,29,30
 160 832 160 832 173 845 c 128,-1,31
 186 858 186 858 204 858 c 0,32,33
 223 858 223 858 236 845 c 128,-1,34
 249 832 249 832 249 813 c 0,35,36
 249 795 249 795 236 782 c 128,-1,37
 223 769 223 769 204 769 c 0,38,39
 186 769 186 769 173 782 c 128,-1,40
 160 795 160 795 160 813 c 0,29,30
EndSplineSet
EndChar

StartChar: Aring
Encoding: 197 197 135
Width: 635
Flags: W
LayerCount: 2
Fore
SplineSet
10 0 m 1,0,-1
 290 663 l 1,1,2
 255 671 255 671 235.5 697.5 c 128,-1,3
 216 724 216 724 216 762 c 0,4,5
 216 807 216 807 243 836.5 c 128,-1,6
 270 866 270 866 317 866 c 0,7,8
 362 866 362 866 390 837.5 c 128,-1,9
 418 809 418 809 418 764 c 0,10,11
 418 726 418 726 398 698.5 c 128,-1,12
 378 671 378 671 343 663 c 1,13,-1
 625 0 l 1,14,-1
 561 0 l 1,15,-1
 464 227 l 1,16,-1
 169 227 l 1,17,-1
 74 0 l 1,18,-1
 10 0 l 1,0,-1
193 284 m 1,19,-1
 440 284 l 1,20,-1
 341 517 l 2,21,22
 333 536 333 536 326.5 557.5 c 128,-1,23
 320 579 320 579 316 595 c 1,24,25
 312 578 312 578 306 556.5 c 128,-1,26
 300 535 300 535 292 517 c 2,27,-1
 193 284 l 1,19,-1
318 822 m 256,28,29
 293 822 293 822 279 805.5 c 128,-1,30
 265 789 265 789 265 763 c 256,31,32
 265 737 265 737 276.5 721 c 128,-1,33
 288 705 288 705 311 703 c 1,34,-1
 321 703 l 1,35,36
 344 705 344 705 356.5 721 c 128,-1,37
 369 737 369 737 369 763 c 256,38,39
 369 789 369 789 356 805.5 c 128,-1,40
 343 822 343 822 318 822 c 256,28,29
EndSplineSet
EndChar

StartChar: AE
Encoding: 198 198 136
Width: 880
Flags: W
LayerCount: 2
Fore
SplineSet
850 0 m 1,0,-1
 382 0 l 1,1,-1
 382 227 l 1,2,-1
 190 227 l 1,3,-1
 73 0 l 1,4,-1
 0 0 l 1,5,-1
 359 684 l 1,6,-1
 830 684 l 1,7,-1
 830 627 l 1,8,-1
 443 627 l 1,9,-1
 443 390 l 1,10,-1
 760 390 l 1,11,-1
 760 333 l 1,12,-1
 443 333 l 1,13,-1
 443 57 l 1,14,-1
 850 57 l 1,15,-1
 850 0 l 1,0,-1
219 284 m 1,16,-1
 382 284 l 1,17,-1
 382 623 l 1,18,19
 379 611 379 611 371 587 c 128,-1,20
 363 563 363 563 347 531 c 2,21,-1
 219 284 l 1,16,-1
EndSplineSet
EndChar

StartChar: Ccedilla
Encoding: 199 199 137
Width: 644
Flags: W
LayerCount: 2
Fore
SplineSet
60 342 m 1,0,1
 60 417 60 417 84 481 c 128,-1,2
 108 545 108 545 151 592.5 c 128,-1,3
 194 640 194 640 254.5 667 c 128,-1,4
 315 694 315 694 388 694 c 0,5,6
 496 694 496 694 550 656 c 128,-1,7
 604 618 604 618 604 555 c 0,8,9
 604 527 604 527 592 503.5 c 128,-1,10
 580 480 580 480 553.5 462.5 c 128,-1,11
 527 445 527 445 486 435.5 c 128,-1,12
 445 426 445 426 388 426 c 2,13,-1
 130 426 l 1,14,15
 121 387 121 387 121 342 c 1,16,-1
 60 342 l 1,0,1
121 342 m 1,17,18
 121 276 121 276 135.5 221.5 c 128,-1,19
 150 167 150 167 178.5 128 c 128,-1,20
 207 89 207 89 249.5 67 c 128,-1,21
 292 45 292 45 348 45 c 0,22,23
 379 45 379 45 412.5 53.5 c 128,-1,24
 446 62 446 62 476.5 74 c 128,-1,25
 507 86 507 86 532 99.5 c 128,-1,26
 557 113 557 113 573 123 c 1,27,-1
 599 78 l 1,28,29
 584 66 584 66 560.5 52 c 128,-1,30
 537 38 537 38 506.5 25 c 128,-1,31
 476 12 476 12 440.5 2.5 c 128,-1,32
 405 -7 405 -7 366 -9 c 1,33,-1
 366 -66 l 1,34,35
 391 -69 391 -69 408.5 -84.5 c 128,-1,36
 426 -100 426 -100 426 -126 c 0,37,38
 426 -158 426 -158 409.5 -194 c 128,-1,39
 393 -230 393 -230 355 -257 c 1,40,-1
 321 -224 l 1,41,42
 330 -214 330 -214 339 -204.5 c 128,-1,43
 348 -195 348 -195 355 -185.5 c 128,-1,44
 362 -176 362 -176 366.5 -164.5 c 128,-1,45
 371 -153 371 -153 371 -139 c 0,46,47
 371 -126 371 -126 364.5 -119.5 c 128,-1,48
 358 -113 358 -113 349 -110 c 128,-1,49
 340 -107 340 -107 330 -106 c 128,-1,50
 320 -105 320 -105 313 -103 c 1,51,-1
 313 -8 l 1,52,53
 248 -2 248 -2 200 27.5 c 128,-1,54
 152 57 152 57 121 103.5 c 128,-1,55
 90 150 90 150 75 211 c 128,-1,56
 60 272 60 272 60 342 c 1,57,-1
 121 342 l 1,17,18
388 639 m 0,58,59
 303 639 303 639 240.5 596 c 128,-1,60
 178 553 178 553 146 478 c 1,61,-1
 388 478 l 2,62,63
 433 478 433 478 462.5 483 c 128,-1,64
 492 488 492 488 509.5 498 c 128,-1,65
 527 508 527 508 534 522.5 c 128,-1,66
 541 537 541 537 541 555 c 0,67,68
 541 597 541 597 502 618 c 128,-1,69
 463 639 463 639 388 639 c 0,58,59
EndSplineSet
EndChar

StartChar: Egrave
Encoding: 200 200 138
Width: 593
Flags: W
LayerCount: 2
Fore
SplineSet
563 0 m 1,0,-1
 95 0 l 1,1,-1
 95 684 l 1,2,-1
 543 684 l 1,3,-1
 543 627 l 1,4,-1
 156 627 l 1,5,-1
 156 390 l 1,6,-1
 473 390 l 1,7,-1
 473 333 l 1,8,-1
 156 333 l 1,9,-1
 156 57 l 1,10,-1
 563 57 l 1,11,-1
 563 0 l 1,0,-1
336 722 m 1,12,-1
 136 767 l 1,13,-1
 154 825 l 1,14,-1
 348 762 l 1,15,-1
 336 722 l 1,12,-1
EndSplineSet
EndChar

StartChar: Eacute
Encoding: 201 201 139
Width: 593
Flags: W
LayerCount: 2
Fore
SplineSet
563 0 m 1,0,-1
 95 0 l 1,1,-1
 95 684 l 1,2,-1
 543 684 l 1,3,-1
 543 627 l 1,4,-1
 156 627 l 1,5,-1
 156 390 l 1,6,-1
 473 390 l 1,7,-1
 473 333 l 1,8,-1
 156 333 l 1,9,-1
 156 57 l 1,10,-1
 563 57 l 1,11,-1
 563 0 l 1,0,-1
308 762 m 1,12,-1
 502 825 l 1,13,-1
 520 767 l 1,14,-1
 320 722 l 1,15,-1
 308 762 l 1,12,-1
EndSplineSet
EndChar

StartChar: Ecircumflex
Encoding: 202 202 140
Width: 593
Flags: W
LayerCount: 2
Fore
SplineSet
563 0 m 1,0,-1
 95 0 l 1,1,-1
 95 684 l 1,2,-1
 543 684 l 1,3,-1
 543 627 l 1,4,-1
 156 627 l 1,5,-1
 156 390 l 1,6,-1
 473 390 l 1,7,-1
 473 333 l 1,8,-1
 156 333 l 1,9,-1
 156 57 l 1,10,-1
 563 57 l 1,11,-1
 563 0 l 1,0,-1
449 718 m 1,12,-1
 329 830 l 1,13,-1
 209 717 l 1,14,-1
 172 754 l 1,15,-1
 281 857 l 2,16,17
 295 871 295 871 306.5 880 c 128,-1,18
 318 889 318 889 329 889 c 256,19,20
 340 889 340 889 351.5 880 c 128,-1,21
 363 871 363 871 377 857 c 2,22,-1
 486 755 l 1,23,-1
 449 718 l 1,12,-1
EndSplineSet
EndChar

StartChar: Edieresis
Encoding: 203 203 141
Width: 593
Flags: W
LayerCount: 2
Fore
SplineSet
563 0 m 1,0,-1
 95 0 l 1,1,-1
 95 684 l 1,2,-1
 543 684 l 1,3,-1
 543 627 l 1,4,-1
 156 627 l 1,5,-1
 156 390 l 1,6,-1
 473 390 l 1,7,-1
 473 333 l 1,8,-1
 156 333 l 1,9,-1
 156 57 l 1,10,-1
 563 57 l 1,11,-1
 563 0 l 1,0,-1
172 812 m 0,12,13
 172 831 172 831 185 844 c 128,-1,14
 198 857 198 857 216 857 c 0,15,16
 235 857 235 857 248 844 c 128,-1,17
 261 831 261 831 261 812 c 0,18,19
 261 794 261 794 248 781 c 128,-1,20
 235 768 235 768 216 768 c 0,21,22
 198 768 198 768 185 781 c 128,-1,23
 172 794 172 794 172 812 c 0,12,13
393 812 m 0,24,25
 393 831 393 831 406 844 c 128,-1,26
 419 857 419 857 437 857 c 0,27,28
 456 857 456 857 469 844 c 128,-1,29
 482 831 482 831 482 812 c 0,30,31
 482 794 482 794 469 781 c 128,-1,32
 456 768 456 768 437 768 c 0,33,34
 419 768 419 768 406 781 c 128,-1,35
 393 794 393 794 393 812 c 0,24,25
EndSplineSet
EndChar

StartChar: Igrave
Encoding: 204 204 142
Width: 251
Flags: W
LayerCount: 2
Fore
SplineSet
156 684 m 1,0,-1
 156 0 l 1,1,-1
 95 0 l 1,2,-1
 95 684 l 1,3,-1
 156 684 l 1,0,-1
132 723 m 1,4,-1
 -68 768 l 1,5,-1
 -50 826 l 1,6,-1
 144 763 l 1,7,-1
 132 723 l 1,4,-1
EndSplineSet
EndChar

StartChar: Iacute
Encoding: 205 205 143
Width: 251
Flags: W
LayerCount: 2
Fore
SplineSet
156 684 m 1,0,-1
 156 0 l 1,1,-1
 95 0 l 1,2,-1
 95 684 l 1,3,-1
 156 684 l 1,0,-1
104 763 m 1,4,-1
 298 826 l 1,5,-1
 316 768 l 1,6,-1
 116 723 l 1,7,-1
 104 763 l 1,4,-1
EndSplineSet
EndChar

StartChar: Icircumflex
Encoding: 206 206 144
Width: 251
Flags: W
LayerCount: 2
Fore
SplineSet
156 684 m 1,0,-1
 156 0 l 1,1,-1
 95 0 l 1,2,-1
 95 684 l 1,3,-1
 156 684 l 1,0,-1
245 719 m 1,4,-1
 125 831 l 1,5,-1
 5 718 l 1,6,-1
 -32 755 l 1,7,-1
 77 858 l 2,8,9
 91 872 91 872 102.5 881 c 128,-1,10
 114 890 114 890 125 890 c 256,11,12
 136 890 136 890 147.5 881 c 128,-1,13
 159 872 159 872 173 858 c 2,14,-1
 282 756 l 1,15,-1
 245 719 l 1,4,-1
EndSplineSet
EndChar

StartChar: Idieresis
Encoding: 207 207 145
Width: 251
Flags: W
LayerCount: 2
Fore
SplineSet
156 684 m 1,0,-1
 156 0 l 1,1,-1
 95 0 l 1,2,-1
 95 684 l 1,3,-1
 156 684 l 1,0,-1
-32 813 m 0,4,5
 -32 832 -32 832 -19 845 c 128,-1,6
 -6 858 -6 858 12 858 c 0,7,8
 31 858 31 858 44 845 c 128,-1,9
 57 832 57 832 57 813 c 0,10,11
 57 795 57 795 44 782 c 128,-1,12
 31 769 31 769 12 769 c 0,13,14
 -6 769 -6 769 -19 782 c 128,-1,15
 -32 795 -32 795 -32 813 c 0,4,5
189 813 m 0,16,17
 189 832 189 832 202 845 c 128,-1,18
 215 858 215 858 233 858 c 0,19,20
 252 858 252 858 265 845 c 128,-1,21
 278 832 278 832 278 813 c 0,22,23
 278 795 278 795 265 782 c 128,-1,24
 252 769 252 769 233 769 c 0,25,26
 215 769 215 769 202 782 c 128,-1,27
 189 795 189 795 189 813 c 0,16,17
EndSplineSet
EndChar

StartChar: Eth
Encoding: 208 208 146
Width: 779
Flags: W
LayerCount: 2
Fore
SplineSet
124 389 m 1,0,-1
 10 389 l 1,1,-1
 10 446 l 1,2,-1
 124 446 l 1,3,-1
 124 631 l 1,4,5
 92 636 92 636 63.5 649 c 128,-1,6
 35 662 35 662 15 690 c 1,7,-1
 48 724 l 1,8,9
 69 704 69 704 98 694 c 128,-1,10
 127 684 127 684 167 684 c 0,11,12
 214 684 214 684 261.5 689 c 128,-1,13
 309 694 309 694 372 694 c 0,14,15
 452 694 452 694 516 667 c 128,-1,16
 580 640 580 640 625 592.5 c 128,-1,17
 670 545 670 545 694.5 481 c 128,-1,18
 719 417 719 417 719 342 c 256,19,20
 719 267 719 267 694.5 202.5 c 128,-1,21
 670 138 670 138 625 91 c 128,-1,22
 580 44 580 44 516 17 c 128,-1,23
 452 -10 452 -10 372 -10 c 0,24,25
 295 -10 295 -10 246.5 -8.5 c 128,-1,26
 198 -7 198 -7 171 -5 c 0,27,28
 138 -3 138 -3 124 0 c 1,29,-1
 124 389 l 1,0,-1
307 389 m 1,30,-1
 185 389 l 1,31,-1
 185 50 l 1,32,33
 216 48 216 48 261.5 46.5 c 128,-1,34
 307 45 307 45 372 45 c 0,35,36
 438 45 438 45 491 66.5 c 128,-1,37
 544 88 544 88 581.5 127.5 c 128,-1,38
 619 167 619 167 639 221.5 c 128,-1,39
 659 276 659 276 659 342 c 256,40,41
 659 408 659 408 639 462.5 c 128,-1,42
 619 517 619 517 581.5 556 c 128,-1,43
 544 595 544 595 491 617 c 128,-1,44
 438 639 438 639 372 639 c 0,45,46
 317 639 317 639 272 634.5 c 128,-1,47
 227 630 227 630 185 629 c 1,48,-1
 185 446 l 1,49,-1
 307 446 l 1,50,-1
 307 389 l 1,30,-1
EndSplineSet
EndChar

StartChar: Ntilde
Encoding: 209 209 147
Width: 764
Flags: W
LayerCount: 2
Fore
SplineSet
704 -2 m 1,0,1
 668 5 668 5 640 19 c 128,-1,2
 612 33 612 33 589 50 c 128,-1,3
 566 67 566 67 547.5 86 c 128,-1,4
 529 105 529 105 514 123 c 2,5,-1
 228 455 l 2,6,7
 210 475 210 475 189 504 c 128,-1,8
 168 533 168 533 149 561 c 1,9,10
 151 535 151 535 153.5 506.5 c 128,-1,11
 156 478 156 478 156 455 c 2,12,-1
 156 0 l 1,13,-1
 95 0 l 1,14,-1
 95 694 l 1,15,-1
 114 694 l 1,16,-1
 575 144 l 2,17,18
 582 136 582 136 590 126.5 c 128,-1,19
 598 117 598 117 609 107 c 1,20,21
 607 127 607 127 606 148 c 128,-1,22
 605 169 605 169 605 189 c 2,23,-1
 605 685 l 1,24,-1
 666 685 l 1,25,-1
 666 64 l 1,26,27
 678 57 678 57 691 51.5 c 128,-1,28
 704 46 704 46 719 43 c 1,29,-1
 704 -2 l 1,0,1
178 787 m 1,30,31
 192 828 192 828 222.5 844 c 128,-1,32
 253 860 253 860 298 860 c 0,33,34
 320 860 320 860 342 854.5 c 128,-1,35
 364 849 364 849 385 842.5 c 128,-1,36
 406 836 406 836 426.5 830.5 c 128,-1,37
 447 825 447 825 467 825 c 0,38,39
 492 825 492 825 510 832 c 128,-1,40
 528 839 528 839 539 861 c 1,41,-1
 588 840 l 1,42,43
 574 799 574 799 543.5 783 c 128,-1,44
 513 767 513 767 468 767 c 0,45,46
 447 767 447 767 425 772.5 c 128,-1,47
 403 778 403 778 381 784.5 c 128,-1,48
 359 791 359 791 338.5 796.5 c 128,-1,49
 318 802 318 802 299 802 c 0,50,51
 274 802 274 802 256 795 c 128,-1,52
 238 788 238 788 227 766 c 1,53,-1
 178 787 l 1,30,31
EndSplineSet
EndChar

StartChar: Ograve
Encoding: 210 210 148
Width: 795
Flags: W
LayerCount: 2
Fore
SplineSet
765 690 m 1,0,1
 742 658 742 658 707 644.5 c 128,-1,2
 672 631 672 631 636 629 c 1,3,4
 651 609 651 609 668.5 580.5 c 128,-1,5
 686 552 686 552 701 516 c 128,-1,6
 716 480 716 480 725.5 436.5 c 128,-1,7
 735 393 735 393 735 342 c 0,8,9
 735 267 735 267 711 202.5 c 128,-1,10
 687 138 687 138 642.5 91 c 128,-1,11
 598 44 598 44 536 17 c 128,-1,12
 474 -10 474 -10 398 -10 c 0,13,14
 321 -10 321 -10 259 17 c 128,-1,15
 197 44 197 44 152.5 91.5 c 128,-1,16
 108 139 108 139 84 203 c 128,-1,17
 60 267 60 267 60 342 c 256,18,19
 60 417 60 417 84 481.5 c 128,-1,20
 108 546 108 546 152.5 593 c 128,-1,21
 197 640 197 640 259 667 c 128,-1,22
 321 694 321 694 398 694 c 0,23,24
 461 694 461 694 513.5 689 c 128,-1,25
 566 684 566 684 613 684 c 0,26,27
 653 684 653 684 682 694 c 128,-1,28
 711 704 711 704 732 724 c 1,29,-1
 765 690 l 1,0,1
675 342 m 0,30,31
 675 405 675 405 660 454.5 c 128,-1,32
 645 504 645 504 625.5 540.5 c 128,-1,33
 606 577 606 577 587 599.5 c 128,-1,34
 568 622 568 622 560 630 c 1,35,36
 523 632 523 632 482.5 635.5 c 128,-1,37
 442 639 442 639 397 639 c 0,38,39
 335 639 335 639 284 617.5 c 128,-1,40
 233 596 233 596 197 556.5 c 128,-1,41
 161 517 161 517 141 462.5 c 128,-1,42
 121 408 121 408 121 342 c 256,43,44
 121 276 121 276 141 221.5 c 128,-1,45
 161 167 161 167 197.5 128 c 128,-1,46
 234 89 234 89 285 67 c 128,-1,47
 336 45 336 45 398 45 c 256,48,49
 460 45 460 45 511 66.5 c 128,-1,50
 562 88 562 88 598.5 127.5 c 128,-1,51
 635 167 635 167 655 221.5 c 128,-1,52
 675 276 675 276 675 342 c 0,30,31
409 722 m 1,53,-1
 209 767 l 1,54,-1
 227 825 l 1,55,-1
 421 762 l 1,56,-1
 409 722 l 1,53,-1
EndSplineSet
EndChar

StartChar: Oacute
Encoding: 211 211 149
Width: 795
Flags: W
LayerCount: 2
Fore
SplineSet
765 690 m 1,0,1
 742 658 742 658 707 644.5 c 128,-1,2
 672 631 672 631 636 629 c 1,3,4
 651 609 651 609 668.5 580.5 c 128,-1,5
 686 552 686 552 701 516 c 128,-1,6
 716 480 716 480 725.5 436.5 c 128,-1,7
 735 393 735 393 735 342 c 0,8,9
 735 267 735 267 711 202.5 c 128,-1,10
 687 138 687 138 642.5 91 c 128,-1,11
 598 44 598 44 536 17 c 128,-1,12
 474 -10 474 -10 398 -10 c 0,13,14
 321 -10 321 -10 259 17 c 128,-1,15
 197 44 197 44 152.5 91.5 c 128,-1,16
 108 139 108 139 84 203 c 128,-1,17
 60 267 60 267 60 342 c 256,18,19
 60 417 60 417 84 481.5 c 128,-1,20
 108 546 108 546 152.5 593 c 128,-1,21
 197 640 197 640 259 667 c 128,-1,22
 321 694 321 694 398 694 c 0,23,24
 461 694 461 694 513.5 689 c 128,-1,25
 566 684 566 684 613 684 c 0,26,27
 653 684 653 684 682 694 c 128,-1,28
 711 704 711 704 732 724 c 1,29,-1
 765 690 l 1,0,1
675 342 m 0,30,31
 675 405 675 405 660 454.5 c 128,-1,32
 645 504 645 504 625.5 540.5 c 128,-1,33
 606 577 606 577 587 599.5 c 128,-1,34
 568 622 568 622 560 630 c 1,35,36
 523 632 523 632 482.5 635.5 c 128,-1,37
 442 639 442 639 397 639 c 0,38,39
 335 639 335 639 284 617.5 c 128,-1,40
 233 596 233 596 197 556.5 c 128,-1,41
 161 517 161 517 141 462.5 c 128,-1,42
 121 408 121 408 121 342 c 256,43,44
 121 276 121 276 141 221.5 c 128,-1,45
 161 167 161 167 197.5 128 c 128,-1,46
 234 89 234 89 285 67 c 128,-1,47
 336 45 336 45 398 45 c 256,48,49
 460 45 460 45 511 66.5 c 128,-1,50
 562 88 562 88 598.5 127.5 c 128,-1,51
 635 167 635 167 655 221.5 c 128,-1,52
 675 276 675 276 675 342 c 0,30,31
381 762 m 1,53,-1
 575 825 l 1,54,-1
 593 767 l 1,55,-1
 393 722 l 1,56,-1
 381 762 l 1,53,-1
EndSplineSet
EndChar

StartChar: Ocircumflex
Encoding: 212 212 150
Width: 795
Flags: W
LayerCount: 2
Fore
SplineSet
765 690 m 1,0,1
 742 658 742 658 707 644.5 c 128,-1,2
 672 631 672 631 636 629 c 1,3,4
 651 609 651 609 668.5 580.5 c 128,-1,5
 686 552 686 552 701 516 c 128,-1,6
 716 480 716 480 725.5 436.5 c 128,-1,7
 735 393 735 393 735 342 c 0,8,9
 735 267 735 267 711 202.5 c 128,-1,10
 687 138 687 138 642.5 91 c 128,-1,11
 598 44 598 44 536 17 c 128,-1,12
 474 -10 474 -10 398 -10 c 0,13,14
 321 -10 321 -10 259 17 c 128,-1,15
 197 44 197 44 152.5 91.5 c 128,-1,16
 108 139 108 139 84 203 c 128,-1,17
 60 267 60 267 60 342 c 256,18,19
 60 417 60 417 84 481.5 c 128,-1,20
 108 546 108 546 152.5 593 c 128,-1,21
 197 640 197 640 259 667 c 128,-1,22
 321 694 321 694 398 694 c 0,23,24
 461 694 461 694 513.5 689 c 128,-1,25
 566 684 566 684 613 684 c 0,26,27
 653 684 653 684 682 694 c 128,-1,28
 711 704 711 704 732 724 c 1,29,-1
 765 690 l 1,0,1
675 342 m 0,30,31
 675 405 675 405 660 454.5 c 128,-1,32
 645 504 645 504 625.5 540.5 c 128,-1,33
 606 577 606 577 587 599.5 c 128,-1,34
 568 622 568 622 560 630 c 1,35,36
 523 632 523 632 482.5 635.5 c 128,-1,37
 442 639 442 639 397 639 c 0,38,39
 335 639 335 639 284 617.5 c 128,-1,40
 233 596 233 596 197 556.5 c 128,-1,41
 161 517 161 517 141 462.5 c 128,-1,42
 121 408 121 408 121 342 c 256,43,44
 121 276 121 276 141 221.5 c 128,-1,45
 161 167 161 167 197.5 128 c 128,-1,46
 234 89 234 89 285 67 c 128,-1,47
 336 45 336 45 398 45 c 256,48,49
 460 45 460 45 511 66.5 c 128,-1,50
 562 88 562 88 598.5 127.5 c 128,-1,51
 635 167 635 167 655 221.5 c 128,-1,52
 675 276 675 276 675 342 c 0,30,31
522 718 m 1,53,-1
 402 830 l 1,54,-1
 282 717 l 1,55,-1
 245 754 l 1,56,-1
 354 857 l 2,57,58
 368 871 368 871 379.5 880 c 128,-1,59
 391 889 391 889 402 889 c 256,60,61
 413 889 413 889 424.5 880 c 128,-1,62
 436 871 436 871 450 857 c 2,63,-1
 559 755 l 1,64,-1
 522 718 l 1,53,-1
EndSplineSet
EndChar

StartChar: Otilde
Encoding: 213 213 151
Width: 795
Flags: W
LayerCount: 2
Fore
SplineSet
765 690 m 1,0,1
 742 658 742 658 707 644.5 c 128,-1,2
 672 631 672 631 636 629 c 1,3,4
 651 609 651 609 668.5 580.5 c 128,-1,5
 686 552 686 552 701 516 c 128,-1,6
 716 480 716 480 725.5 436.5 c 128,-1,7
 735 393 735 393 735 342 c 0,8,9
 735 267 735 267 711 202.5 c 128,-1,10
 687 138 687 138 642.5 91 c 128,-1,11
 598 44 598 44 536 17 c 128,-1,12
 474 -10 474 -10 398 -10 c 0,13,14
 321 -10 321 -10 259 17 c 128,-1,15
 197 44 197 44 152.5 91.5 c 128,-1,16
 108 139 108 139 84 203 c 128,-1,17
 60 267 60 267 60 342 c 256,18,19
 60 417 60 417 84 481.5 c 128,-1,20
 108 546 108 546 152.5 593 c 128,-1,21
 197 640 197 640 259 667 c 128,-1,22
 321 694 321 694 398 694 c 0,23,24
 461 694 461 694 513.5 689 c 128,-1,25
 566 684 566 684 613 684 c 0,26,27
 653 684 653 684 682 694 c 128,-1,28
 711 704 711 704 732 724 c 1,29,-1
 765 690 l 1,0,1
675 342 m 0,30,31
 675 405 675 405 660 454.5 c 128,-1,32
 645 504 645 504 625.5 540.5 c 128,-1,33
 606 577 606 577 587 599.5 c 128,-1,34
 568 622 568 622 560 630 c 1,35,36
 523 632 523 632 482.5 635.5 c 128,-1,37
 442 639 442 639 397 639 c 0,38,39
 335 639 335 639 284 617.5 c 128,-1,40
 233 596 233 596 197 556.5 c 128,-1,41
 161 517 161 517 141 462.5 c 128,-1,42
 121 408 121 408 121 342 c 256,43,44
 121 276 121 276 141 221.5 c 128,-1,45
 161 167 161 167 197.5 128 c 128,-1,46
 234 89 234 89 285 67 c 128,-1,47
 336 45 336 45 398 45 c 256,48,49
 460 45 460 45 511 66.5 c 128,-1,50
 562 88 562 88 598.5 127.5 c 128,-1,51
 635 167 635 167 655 221.5 c 128,-1,52
 675 276 675 276 675 342 c 0,30,31
200 786 m 1,53,54
 214 827 214 827 244.5 843 c 128,-1,55
 275 859 275 859 320 859 c 0,56,57
 342 859 342 859 364 853.5 c 128,-1,58
 386 848 386 848 407 841.5 c 128,-1,59
 428 835 428 835 448.5 829.5 c 128,-1,60
 469 824 469 824 489 824 c 0,61,62
 514 824 514 824 532 831 c 128,-1,63
 550 838 550 838 561 860 c 1,64,-1
 610 839 l 1,65,66
 596 798 596 798 565.5 782 c 128,-1,67
 535 766 535 766 490 766 c 0,68,69
 469 766 469 766 447 771.5 c 128,-1,70
 425 777 425 777 403 783.5 c 128,-1,71
 381 790 381 790 360.5 795.5 c 128,-1,72
 340 801 340 801 321 801 c 0,73,74
 296 801 296 801 278 794 c 128,-1,75
 260 787 260 787 249 765 c 1,76,-1
 200 786 l 1,53,54
EndSplineSet
EndChar

StartChar: Odieresis
Encoding: 214 214 152
Width: 795
Flags: W
LayerCount: 2
Fore
SplineSet
765 690 m 1,0,1
 742 658 742 658 707 644.5 c 128,-1,2
 672 631 672 631 636 629 c 1,3,4
 651 609 651 609 668.5 580.5 c 128,-1,5
 686 552 686 552 701 516 c 128,-1,6
 716 480 716 480 725.5 436.5 c 128,-1,7
 735 393 735 393 735 342 c 0,8,9
 735 267 735 267 711 202.5 c 128,-1,10
 687 138 687 138 642.5 91 c 128,-1,11
 598 44 598 44 536 17 c 128,-1,12
 474 -10 474 -10 398 -10 c 0,13,14
 321 -10 321 -10 259 17 c 128,-1,15
 197 44 197 44 152.5 91.5 c 128,-1,16
 108 139 108 139 84 203 c 128,-1,17
 60 267 60 267 60 342 c 256,18,19
 60 417 60 417 84 481.5 c 128,-1,20
 108 546 108 546 152.5 593 c 128,-1,21
 197 640 197 640 259 667 c 128,-1,22
 321 694 321 694 398 694 c 0,23,24
 461 694 461 694 513.5 689 c 128,-1,25
 566 684 566 684 613 684 c 0,26,27
 653 684 653 684 682 694 c 128,-1,28
 711 704 711 704 732 724 c 1,29,-1
 765 690 l 1,0,1
675 342 m 0,30,31
 675 405 675 405 660 454.5 c 128,-1,32
 645 504 645 504 625.5 540.5 c 128,-1,33
 606 577 606 577 587 599.5 c 128,-1,34
 568 622 568 622 560 630 c 1,35,36
 523 632 523 632 482.5 635.5 c 128,-1,37
 442 639 442 639 397 639 c 0,38,39
 335 639 335 639 284 617.5 c 128,-1,40
 233 596 233 596 197 556.5 c 128,-1,41
 161 517 161 517 141 462.5 c 128,-1,42
 121 408 121 408 121 342 c 256,43,44
 121 276 121 276 141 221.5 c 128,-1,45
 161 167 161 167 197.5 128 c 128,-1,46
 234 89 234 89 285 67 c 128,-1,47
 336 45 336 45 398 45 c 256,48,49
 460 45 460 45 511 66.5 c 128,-1,50
 562 88 562 88 598.5 127.5 c 128,-1,51
 635 167 635 167 655 221.5 c 128,-1,52
 675 276 675 276 675 342 c 0,30,31
245 812 m 0,53,54
 245 831 245 831 258 844 c 128,-1,55
 271 857 271 857 289 857 c 0,56,57
 308 857 308 857 321 844 c 128,-1,58
 334 831 334 831 334 812 c 0,59,60
 334 794 334 794 321 781 c 128,-1,61
 308 768 308 768 289 768 c 0,62,63
 271 768 271 768 258 781 c 128,-1,64
 245 794 245 794 245 812 c 0,53,54
466 812 m 0,65,66
 466 831 466 831 479 844 c 128,-1,67
 492 857 492 857 510 857 c 0,68,69
 529 857 529 857 542 844 c 128,-1,70
 555 831 555 831 555 812 c 0,71,72
 555 794 555 794 542 781 c 128,-1,73
 529 768 529 768 510 768 c 0,74,75
 492 768 492 768 479 781 c 128,-1,76
 466 794 466 794 466 812 c 0,65,66
EndSplineSet
EndChar

StartChar: multiply
Encoding: 215 215 153
Width: 502
Flags: W
LayerCount: 2
Fore
SplineSet
250 225 m 1,0,-1
 101 75 l 1,1,-1
 60 116 l 1,2,-1
 209 265 l 1,3,-1
 67 408 l 1,4,-1
 110 451 l 1,5,-1
 252 308 l 1,6,-1
 394 451 l 1,7,-1
 435 410 l 1,8,-1
 293 268 l 1,9,-1
 442 119 l 1,10,-1
 399 76 l 1,11,-1
 250 225 l 1,0,-1
EndSplineSet
EndChar

StartChar: Oslash
Encoding: 216 216 154
Width: 795
Flags: W
LayerCount: 2
Fore
SplineSet
765 690 m 1,0,1
 742 658 742 658 707 644.5 c 128,-1,2
 672 631 672 631 636 629 c 1,3,4
 651 609 651 609 668.5 580.5 c 128,-1,5
 686 552 686 552 701 516 c 128,-1,6
 716 480 716 480 725.5 436.5 c 128,-1,7
 735 393 735 393 735 342 c 0,8,9
 735 267 735 267 711 202.5 c 128,-1,10
 687 138 687 138 642.5 91 c 128,-1,11
 598 44 598 44 536 17 c 128,-1,12
 474 -10 474 -10 398 -10 c 0,13,14
 350 -10 350 -10 307.5 1 c 128,-1,15
 265 12 265 12 228 32 c 1,16,-1
 198 -21 l 1,17,-1
 149 9 l 1,18,-1
 185 61 l 1,19,20
 125 109 125 109 92.5 181.5 c 128,-1,21
 60 254 60 254 60 342 c 0,22,23
 60 417 60 417 84 481.5 c 128,-1,24
 108 546 108 546 152.5 593 c 128,-1,25
 197 640 197 640 259 667 c 128,-1,26
 321 694 321 694 398 694 c 0,27,28
 461 694 461 694 513.5 689 c 128,-1,29
 566 684 566 684 613 684 c 0,30,31
 653 684 653 684 682 694 c 128,-1,32
 711 704 711 704 732 724 c 1,33,-1
 765 690 l 1,0,1
121 342 m 0,34,35
 121 268 121 268 145.5 209 c 128,-1,36
 170 150 170 150 215 110 c 1,37,-1
 552 631 l 1,38,39
 517 633 517 633 478 636 c 128,-1,40
 439 639 439 639 397 639 c 0,41,42
 335 639 335 639 284 617.5 c 128,-1,43
 233 596 233 596 197 556.5 c 128,-1,44
 161 517 161 517 141 462.5 c 128,-1,45
 121 408 121 408 121 342 c 0,34,35
675 342 m 0,46,47
 675 386 675 386 667.5 423.5 c 128,-1,48
 660 461 660 461 648 492.5 c 128,-1,49
 636 524 636 524 621.5 548.5 c 128,-1,50
 607 573 607 573 594 591 c 1,51,-1
 262 78 l 1,52,53
 291 62 291 62 325.5 53.5 c 128,-1,54
 360 45 360 45 398 45 c 0,55,56
 460 45 460 45 511 66.5 c 128,-1,57
 562 88 562 88 598.5 127.5 c 128,-1,58
 635 167 635 167 655 221.5 c 128,-1,59
 675 276 675 276 675 342 c 0,46,47
EndSplineSet
EndChar

StartChar: Ugrave
Encoding: 217 217 155
Width: 715
Flags: W
LayerCount: 2
Fore
SplineSet
151 684 m 1,0,-1
 151 267 l 2,1,2
 151 215 151 215 166 174 c 128,-1,3
 181 133 181 133 208 104.5 c 128,-1,4
 235 76 235 76 273 60.5 c 128,-1,5
 311 45 311 45 357 45 c 256,6,7
 403 45 403 45 441.5 60.5 c 128,-1,8
 480 76 480 76 507 104.5 c 128,-1,9
 534 133 534 133 549 174 c 128,-1,10
 564 215 564 215 564 267 c 2,11,-1
 564 684 l 1,12,-1
 625 684 l 1,13,-1
 625 267 l 2,14,15
 625 205 625 205 606 154.5 c 128,-1,16
 587 104 587 104 551.5 67 c 128,-1,17
 516 30 516 30 467 10 c 128,-1,18
 418 -10 418 -10 358 -10 c 0,19,20
 297 -10 297 -10 247.5 10 c 128,-1,21
 198 30 198 30 163 67 c 128,-1,22
 128 104 128 104 109 154.5 c 128,-1,23
 90 205 90 205 90 267 c 2,24,-1
 90 684 l 1,25,-1
 151 684 l 1,0,-1
365 723 m 1,26,-1
 165 768 l 1,27,-1
 183 826 l 1,28,-1
 377 763 l 1,29,-1
 365 723 l 1,26,-1
EndSplineSet
EndChar

StartChar: Uacute
Encoding: 218 218 156
Width: 715
Flags: W
LayerCount: 2
Fore
SplineSet
151 684 m 1,0,-1
 151 267 l 2,1,2
 151 215 151 215 166 174 c 128,-1,3
 181 133 181 133 208 104.5 c 128,-1,4
 235 76 235 76 273 60.5 c 128,-1,5
 311 45 311 45 357 45 c 256,6,7
 403 45 403 45 441.5 60.5 c 128,-1,8
 480 76 480 76 507 104.5 c 128,-1,9
 534 133 534 133 549 174 c 128,-1,10
 564 215 564 215 564 267 c 2,11,-1
 564 684 l 1,12,-1
 625 684 l 1,13,-1
 625 267 l 2,14,15
 625 205 625 205 606 154.5 c 128,-1,16
 587 104 587 104 551.5 67 c 128,-1,17
 516 30 516 30 467 10 c 128,-1,18
 418 -10 418 -10 358 -10 c 0,19,20
 297 -10 297 -10 247.5 10 c 128,-1,21
 198 30 198 30 163 67 c 128,-1,22
 128 104 128 104 109 154.5 c 128,-1,23
 90 205 90 205 90 267 c 2,24,-1
 90 684 l 1,25,-1
 151 684 l 1,0,-1
337 763 m 1,26,-1
 531 826 l 1,27,-1
 549 768 l 1,28,-1
 349 723 l 1,29,-1
 337 763 l 1,26,-1
EndSplineSet
EndChar

StartChar: Ucircumflex
Encoding: 219 219 157
Width: 715
Flags: W
LayerCount: 2
Fore
SplineSet
151 684 m 1,0,-1
 151 267 l 2,1,2
 151 215 151 215 166 174 c 128,-1,3
 181 133 181 133 208 104.5 c 128,-1,4
 235 76 235 76 273 60.5 c 128,-1,5
 311 45 311 45 357 45 c 256,6,7
 403 45 403 45 441.5 60.5 c 128,-1,8
 480 76 480 76 507 104.5 c 128,-1,9
 534 133 534 133 549 174 c 128,-1,10
 564 215 564 215 564 267 c 2,11,-1
 564 684 l 1,12,-1
 625 684 l 1,13,-1
 625 267 l 2,14,15
 625 205 625 205 606 154.5 c 128,-1,16
 587 104 587 104 551.5 67 c 128,-1,17
 516 30 516 30 467 10 c 128,-1,18
 418 -10 418 -10 358 -10 c 0,19,20
 297 -10 297 -10 247.5 10 c 128,-1,21
 198 30 198 30 163 67 c 128,-1,22
 128 104 128 104 109 154.5 c 128,-1,23
 90 205 90 205 90 267 c 2,24,-1
 90 684 l 1,25,-1
 151 684 l 1,0,-1
478 719 m 1,26,-1
 358 831 l 1,27,-1
 238 718 l 1,28,-1
 201 755 l 1,29,-1
 310 858 l 2,30,31
 324 872 324 872 335.5 881 c 128,-1,32
 347 890 347 890 358 890 c 256,33,34
 369 890 369 890 380.5 881 c 128,-1,35
 392 872 392 872 406 858 c 2,36,-1
 515 756 l 1,37,-1
 478 719 l 1,26,-1
EndSplineSet
EndChar

StartChar: Udieresis
Encoding: 220 220 158
Width: 715
Flags: W
LayerCount: 2
Fore
SplineSet
151 684 m 1,0,-1
 151 267 l 2,1,2
 151 215 151 215 166 174 c 128,-1,3
 181 133 181 133 208 104.5 c 128,-1,4
 235 76 235 76 273 60.5 c 128,-1,5
 311 45 311 45 357 45 c 256,6,7
 403 45 403 45 441.5 60.5 c 128,-1,8
 480 76 480 76 507 104.5 c 128,-1,9
 534 133 534 133 549 174 c 128,-1,10
 564 215 564 215 564 267 c 2,11,-1
 564 684 l 1,12,-1
 625 684 l 1,13,-1
 625 267 l 2,14,15
 625 205 625 205 606 154.5 c 128,-1,16
 587 104 587 104 551.5 67 c 128,-1,17
 516 30 516 30 467 10 c 128,-1,18
 418 -10 418 -10 358 -10 c 0,19,20
 297 -10 297 -10 247.5 10 c 128,-1,21
 198 30 198 30 163 67 c 128,-1,22
 128 104 128 104 109 154.5 c 128,-1,23
 90 205 90 205 90 267 c 2,24,-1
 90 684 l 1,25,-1
 151 684 l 1,0,-1
201 813 m 0,26,27
 201 832 201 832 214 845 c 128,-1,28
 227 858 227 858 245 858 c 0,29,30
 264 858 264 858 277 845 c 128,-1,31
 290 832 290 832 290 813 c 0,32,33
 290 795 290 795 277 782 c 128,-1,34
 264 769 264 769 245 769 c 0,35,36
 227 769 227 769 214 782 c 128,-1,37
 201 795 201 795 201 813 c 0,26,27
422 813 m 0,38,39
 422 832 422 832 435 845 c 128,-1,40
 448 858 448 858 466 858 c 0,41,42
 485 858 485 858 498 845 c 128,-1,43
 511 832 511 832 511 813 c 0,44,45
 511 795 511 795 498 782 c 128,-1,46
 485 769 485 769 466 769 c 0,47,48
 448 769 448 769 435 782 c 128,-1,49
 422 795 422 795 422 813 c 0,38,39
EndSplineSet
EndChar

StartChar: Yacute
Encoding: 221 221 159
Width: 532
Flags: W
LayerCount: 2
Fore
SplineSet
358 262 m 1,0,1
 347 260 347 260 333 258 c 128,-1,2
 319 256 319 256 307 256 c 1,3,-1
 307 0 l 1,4,-1
 246 0 l 1,5,-1
 246 264 l 1,6,7
 201 279 201 279 173 315 c 128,-1,8
 145 351 145 351 132 391 c 2,9,-1
 35 680 l 1,10,-1
 94 695 l 1,11,-1
 191 406 l 1,12,13
 205 361 205 361 235 335.5 c 128,-1,14
 265 310 265 310 311 309 c 1,15,-1
 445 694 l 1,16,-1
 502 677 l 1,17,-1
 358 262 l 1,0,1
257 763 m 1,18,-1
 451 826 l 1,19,-1
 469 768 l 1,20,-1
 269 723 l 1,21,-1
 257 763 l 1,18,-1
EndSplineSet
EndChar

StartChar: Thorn
Encoding: 222 222 160
Width: 528
Flags: W
LayerCount: 2
Fore
SplineSet
285 564 m 0,0,1
 332 564 332 564 370.5 547.5 c 128,-1,2
 409 531 409 531 436 501.5 c 128,-1,3
 463 472 463 472 478 432.5 c 128,-1,4
 493 393 493 393 493 347 c 0,5,6
 493 300 493 300 478 260.5 c 128,-1,7
 463 221 463 221 436 191.5 c 128,-1,8
 409 162 409 162 370.5 145.5 c 128,-1,9
 332 129 332 129 285 129 c 0,10,11
 270 129 270 129 251 129 c 128,-1,12
 232 129 232 129 214 129.5 c 128,-1,13
 196 130 196 130 180.5 130 c 128,-1,14
 165 130 165 130 156 130 c 1,15,-1
 156 0 l 1,16,-1
 95 0 l 1,17,-1
 95 684 l 1,18,-1
 156 684 l 1,19,-1
 156 557 l 1,20,21
 181 559 181 559 217.5 561.5 c 128,-1,22
 254 564 254 564 285 564 c 0,0,1
282 509 m 0,23,24
 254 509 254 509 217.5 506.5 c 128,-1,25
 181 504 181 504 156 502 c 1,26,-1
 156 185 l 1,27,28
 164 185 164 185 179.5 185 c 128,-1,29
 195 185 195 185 213 184.5 c 128,-1,30
 231 184 231 184 249.5 184 c 128,-1,31
 268 184 268 184 282 184 c 0,32,33
 316 184 316 184 344 196 c 128,-1,34
 372 208 372 208 392 229.5 c 128,-1,35
 412 251 412 251 423 281 c 128,-1,36
 434 311 434 311 434 347 c 256,37,38
 434 383 434 383 423 412.5 c 128,-1,39
 412 442 412 442 392 463.5 c 128,-1,40
 372 485 372 485 344 497 c 128,-1,41
 316 509 316 509 282 509 c 0,23,24
EndSplineSet
EndChar

StartChar: germandbls
Encoding: 223 223 161
Width: 512
Flags: W
LayerCount: 2
Fore
SplineSet
85 494 m 2,0,1
 85 545 85 545 93 589 c 128,-1,2
 101 633 101 633 119 665 c 128,-1,3
 137 697 137 697 167 715.5 c 128,-1,4
 197 734 197 734 242 734 c 0,5,6
 317 734 317 734 352.5 697.5 c 128,-1,7
 388 661 388 661 388 602 c 0,8,9
 388 565 388 565 373 543 c 128,-1,10
 358 521 358 521 339.5 505 c 128,-1,11
 321 489 321 489 306 474.5 c 128,-1,12
 291 460 291 460 291 437 c 0,13,14
 291 405 291 405 305 385.5 c 128,-1,15
 319 366 319 366 339.5 351 c 128,-1,16
 360 336 360 336 384 322.5 c 128,-1,17
 408 309 408 309 428.5 288 c 128,-1,18
 449 267 449 267 463 236 c 128,-1,19
 477 205 477 205 477 155 c 0,20,21
 477 118 477 118 463.5 87.5 c 128,-1,22
 450 57 450 57 424.5 35.5 c 128,-1,23
 399 14 399 14 363.5 2 c 128,-1,24
 328 -10 328 -10 284 -10 c 0,25,26
 237 -10 237 -10 200 -7 c 128,-1,27
 163 -4 163 -4 140 -2 c 1,28,-1
 140 -250 l 1,29,-1
 85 -250 l 1,30,-1
 85 494 l 2,0,1
140 50 m 1,31,32
 151 48 151 48 187.5 45 c 128,-1,33
 224 42 224 42 292 42 c 0,34,35
 353 42 353 42 386 72.5 c 128,-1,36
 419 103 419 103 419 155 c 0,37,38
 419 193 419 193 405 216.5 c 128,-1,39
 391 240 391 240 370 257 c 128,-1,40
 349 274 349 274 324.5 287.5 c 128,-1,41
 300 301 300 301 279 319.5 c 128,-1,42
 258 338 258 338 244 365.5 c 128,-1,43
 230 393 230 393 230 437 c 0,44,45
 230 473 230 473 246 494 c 128,-1,46
 262 515 262 515 280.5 530.5 c 128,-1,47
 299 546 299 546 315 561.5 c 128,-1,48
 331 577 331 577 331 602 c 0,49,50
 331 638 331 638 309 660 c 128,-1,51
 287 682 287 682 242 682 c 0,52,53
 210 682 210 682 190.5 667 c 128,-1,54
 171 652 171 652 159.5 626.5 c 128,-1,55
 148 601 148 601 144 567.5 c 128,-1,56
 140 534 140 534 140 497 c 2,57,-1
 140 50 l 1,31,32
EndSplineSet
EndChar

StartChar: agrave
Encoding: 224 224 162
Width: 502
Flags: W
LayerCount: 2
Fore
SplineSet
210 -10 m 0,0,1
 176 -10 176 -10 146.5 -1 c 128,-1,2
 117 8 117 8 95.5 26 c 128,-1,3
 74 44 74 44 62 71 c 128,-1,4
 50 98 50 98 50 133 c 0,5,6
 50 175 50 175 68.5 203 c 128,-1,7
 87 231 87 231 117 248.5 c 128,-1,8
 147 266 147 266 184.5 273 c 128,-1,9
 222 280 222 280 261 280 c 2,10,-1
 358 280 l 1,11,-1
 358 336 l 2,12,13
 358 398 358 398 333 427 c 128,-1,14
 308 456 308 456 254 456 c 0,15,16
 214 456 214 456 173 439 c 128,-1,17
 132 422 132 422 106 402 c 1,18,-1
 79 444 l 1,19,20
 108 470 108 470 155.5 489 c 128,-1,21
 203 508 203 508 254 508 c 0,22,23
 338 508 338 508 375.5 465.5 c 128,-1,24
 413 423 413 423 413 347 c 2,25,-1
 413 144 l 2,26,27
 413 67 413 67 452 25 c 1,28,-1
 418 -8 l 1,29,30
 397 8 397 8 385 28.5 c 128,-1,31
 373 49 373 49 366 72 c 1,32,33
 347 34 347 34 308 12 c 128,-1,34
 269 -10 269 -10 210 -10 c 0,0,1
210 42 m 0,35,36
 240 42 240 42 266 50.5 c 128,-1,37
 292 59 292 59 312.5 75 c 128,-1,38
 333 91 333 91 345 115 c 128,-1,39
 357 139 357 139 358 170 c 1,40,-1
 358 229 l 1,41,-1
 261 229 l 2,42,43
 233 229 233 229 205.5 225.5 c 128,-1,44
 178 222 178 222 156 211.5 c 128,-1,45
 134 201 134 201 120.5 182 c 128,-1,46
 107 163 107 163 107 133 c 0,47,48
 107 83 107 83 134 62.5 c 128,-1,49
 161 42 161 42 210 42 c 0,35,36
261 567 m 1,50,-1
 89 677 l 1,51,-1
 125 726 l 1,52,-1
 283 601 l 1,53,-1
 261 567 l 1,50,-1
EndSplineSet
EndChar

StartChar: aacute
Encoding: 225 225 163
Width: 502
Flags: W
LayerCount: 2
Fore
SplineSet
210 -10 m 0,0,1
 176 -10 176 -10 146.5 -1 c 128,-1,2
 117 8 117 8 95.5 26 c 128,-1,3
 74 44 74 44 62 71 c 128,-1,4
 50 98 50 98 50 133 c 0,5,6
 50 175 50 175 68.5 203 c 128,-1,7
 87 231 87 231 117 248.5 c 128,-1,8
 147 266 147 266 184.5 273 c 128,-1,9
 222 280 222 280 261 280 c 2,10,-1
 358 280 l 1,11,-1
 358 336 l 2,12,13
 358 398 358 398 333 427 c 128,-1,14
 308 456 308 456 254 456 c 0,15,16
 214 456 214 456 173 439 c 128,-1,17
 132 422 132 422 106 402 c 1,18,-1
 79 444 l 1,19,20
 108 470 108 470 155.5 489 c 128,-1,21
 203 508 203 508 254 508 c 0,22,23
 338 508 338 508 375.5 465.5 c 128,-1,24
 413 423 413 423 413 347 c 2,25,-1
 413 144 l 2,26,27
 413 67 413 67 452 25 c 1,28,-1
 418 -8 l 1,29,30
 397 8 397 8 385 28.5 c 128,-1,31
 373 49 373 49 366 72 c 1,32,33
 347 34 347 34 308 12 c 128,-1,34
 269 -10 269 -10 210 -10 c 0,0,1
210 42 m 0,35,36
 240 42 240 42 267 51 c 128,-1,37
 294 60 294 60 314.5 77 c 128,-1,38
 335 94 335 94 346.5 119 c 128,-1,39
 358 144 358 144 358 177 c 2,40,-1
 358 229 l 1,41,-1
 261 229 l 2,42,43
 233 229 233 229 205.5 225.5 c 128,-1,44
 178 222 178 222 156 211.5 c 128,-1,45
 134 201 134 201 120.5 182 c 128,-1,46
 107 163 107 163 107 133 c 0,47,48
 107 83 107 83 134 62.5 c 128,-1,49
 161 42 161 42 210 42 c 0,35,36
226 601 m 1,50,-1
 384 726 l 1,51,-1
 420 677 l 1,52,-1
 248 567 l 1,53,-1
 226 601 l 1,50,-1
EndSplineSet
EndChar

StartChar: acircumflex
Encoding: 226 226 164
Width: 502
Flags: W
LayerCount: 2
Fore
SplineSet
210 -10 m 0,0,1
 176 -10 176 -10 146.5 -1 c 128,-1,2
 117 8 117 8 95.5 26 c 128,-1,3
 74 44 74 44 62 71 c 128,-1,4
 50 98 50 98 50 133 c 0,5,6
 50 175 50 175 68.5 203 c 128,-1,7
 87 231 87 231 117 248.5 c 128,-1,8
 147 266 147 266 184.5 273 c 128,-1,9
 222 280 222 280 261 280 c 2,10,-1
 358 280 l 1,11,-1
 358 336 l 2,12,13
 358 398 358 398 333 427 c 128,-1,14
 308 456 308 456 254 456 c 0,15,16
 214 456 214 456 173 439 c 128,-1,17
 132 422 132 422 106 402 c 1,18,-1
 79 444 l 1,19,20
 108 470 108 470 155.5 489 c 128,-1,21
 203 508 203 508 254 508 c 0,22,23
 338 508 338 508 375.5 465.5 c 128,-1,24
 413 423 413 423 413 347 c 2,25,-1
 413 144 l 2,26,27
 413 67 413 67 452 25 c 1,28,-1
 418 -8 l 1,29,30
 397 8 397 8 385 28.5 c 128,-1,31
 373 49 373 49 366 72 c 1,32,33
 347 34 347 34 308 12 c 128,-1,34
 269 -10 269 -10 210 -10 c 0,0,1
210 42 m 0,35,36
 240 42 240 42 267 51 c 128,-1,37
 294 60 294 60 314.5 77 c 128,-1,38
 335 94 335 94 346.5 119 c 128,-1,39
 358 144 358 144 358 177 c 2,40,-1
 358 229 l 1,41,-1
 261 229 l 2,42,43
 233 229 233 229 205.5 225.5 c 128,-1,44
 178 222 178 222 156 211.5 c 128,-1,45
 134 201 134 201 120.5 182 c 128,-1,46
 107 163 107 163 107 133 c 0,47,48
 107 83 107 83 134 62.5 c 128,-1,49
 161 42 161 42 210 42 c 0,35,36
374 581 m 1,50,-1
 254 714 l 1,51,-1
 134 580 l 1,52,-1
 97 613 l 1,53,-1
 206 736 l 1,54,55
 233 768 233 768 254 768 c 256,56,57
 275 768 275 768 302 736 c 1,58,-1
 411 614 l 1,59,-1
 374 581 l 1,50,-1
EndSplineSet
EndChar

StartChar: atilde
Encoding: 227 227 165
Width: 502
Flags: W
LayerCount: 2
Fore
SplineSet
210 -10 m 0,0,1
 176 -10 176 -10 146.5 -1 c 128,-1,2
 117 8 117 8 95.5 26 c 128,-1,3
 74 44 74 44 62 71 c 128,-1,4
 50 98 50 98 50 133 c 0,5,6
 50 175 50 175 68.5 203 c 128,-1,7
 87 231 87 231 117 248.5 c 128,-1,8
 147 266 147 266 184.5 273 c 128,-1,9
 222 280 222 280 261 280 c 2,10,-1
 358 280 l 1,11,-1
 358 336 l 2,12,13
 358 398 358 398 333 427 c 128,-1,14
 308 456 308 456 254 456 c 0,15,16
 214 456 214 456 173 439 c 128,-1,17
 132 422 132 422 106 402 c 1,18,-1
 79 444 l 1,19,20
 108 470 108 470 155.5 489 c 128,-1,21
 203 508 203 508 254 508 c 0,22,23
 338 508 338 508 375.5 465.5 c 128,-1,24
 413 423 413 423 413 347 c 2,25,-1
 413 144 l 2,26,27
 413 67 413 67 452 25 c 1,28,-1
 418 -8 l 1,29,30
 397 8 397 8 385 28.5 c 128,-1,31
 373 49 373 49 366 72 c 1,32,33
 347 34 347 34 308 12 c 128,-1,34
 269 -10 269 -10 210 -10 c 0,0,1
210 42 m 0,35,36
 240 42 240 42 266 50.5 c 128,-1,37
 292 59 292 59 312.5 75 c 128,-1,38
 333 91 333 91 345 115 c 128,-1,39
 357 139 357 139 358 170 c 1,40,-1
 358 229 l 1,41,-1
 261 229 l 2,42,43
 233 229 233 229 205.5 225.5 c 128,-1,44
 178 222 178 222 156 211.5 c 128,-1,45
 134 201 134 201 120.5 182 c 128,-1,46
 107 163 107 163 107 133 c 0,47,48
 107 83 107 83 134 62.5 c 128,-1,49
 161 42 161 42 210 42 c 0,35,36
56 627 m 1,50,51
 70 668 70 668 100.5 684 c 128,-1,52
 131 700 131 700 176 700 c 0,53,54
 198 700 198 700 217 694.5 c 128,-1,55
 236 689 236 689 253.5 682.5 c 128,-1,56
 271 676 271 676 288 670.5 c 128,-1,57
 305 665 305 665 325 665 c 0,58,59
 350 665 350 665 368 672 c 128,-1,60
 386 679 386 679 397 701 c 1,61,-1
 446 683 l 1,62,63
 432 642 432 642 401.5 626 c 128,-1,64
 371 610 371 610 326 610 c 0,65,66
 305 610 305 610 286 615.5 c 128,-1,67
 267 621 267 621 249 627.5 c 128,-1,68
 231 634 231 634 213.5 639.5 c 128,-1,69
 196 645 196 645 177 645 c 0,70,71
 152 645 152 645 134 638 c 128,-1,72
 116 631 116 631 105 609 c 1,73,-1
 56 627 l 1,50,51
EndSplineSet
EndChar

StartChar: adieresis
Encoding: 228 228 166
Width: 502
Flags: W
LayerCount: 2
Fore
SplineSet
210 -10 m 0,0,1
 176 -10 176 -10 146.5 -1 c 128,-1,2
 117 8 117 8 95.5 26 c 128,-1,3
 74 44 74 44 62 71 c 128,-1,4
 50 98 50 98 50 133 c 0,5,6
 50 175 50 175 68.5 203 c 128,-1,7
 87 231 87 231 117 248.5 c 128,-1,8
 147 266 147 266 184.5 273 c 128,-1,9
 222 280 222 280 261 280 c 2,10,-1
 358 280 l 1,11,-1
 358 336 l 2,12,13
 358 398 358 398 333 427 c 128,-1,14
 308 456 308 456 254 456 c 0,15,16
 214 456 214 456 173 439 c 128,-1,17
 132 422 132 422 106 402 c 1,18,-1
 79 444 l 1,19,20
 108 470 108 470 155.5 489 c 128,-1,21
 203 508 203 508 254 508 c 0,22,23
 338 508 338 508 375.5 465.5 c 128,-1,24
 413 423 413 423 413 347 c 2,25,-1
 413 144 l 2,26,27
 413 67 413 67 452 25 c 1,28,-1
 418 -8 l 1,29,30
 397 8 397 8 385 28.5 c 128,-1,31
 373 49 373 49 366 72 c 1,32,33
 347 34 347 34 308 12 c 128,-1,34
 269 -10 269 -10 210 -10 c 0,0,1
210 42 m 0,35,36
 240 42 240 42 267 51 c 128,-1,37
 294 60 294 60 314.5 77 c 128,-1,38
 335 94 335 94 346.5 119 c 128,-1,39
 358 144 358 144 358 177 c 2,40,-1
 358 229 l 1,41,-1
 261 229 l 2,42,43
 233 229 233 229 205.5 225.5 c 128,-1,44
 178 222 178 222 156 211.5 c 128,-1,45
 134 201 134 201 120.5 182 c 128,-1,46
 107 163 107 163 107 133 c 0,47,48
 107 83 107 83 134 62.5 c 128,-1,49
 161 42 161 42 210 42 c 0,35,36
98 662 m 0,50,51
 98 681 98 681 111 694 c 128,-1,52
 124 707 124 707 142 707 c 0,53,54
 161 707 161 707 174 694 c 128,-1,55
 187 681 187 681 187 662 c 0,56,57
 187 644 187 644 174 631 c 128,-1,58
 161 618 161 618 142 618 c 0,59,60
 124 618 124 618 111 631 c 128,-1,61
 98 644 98 644 98 662 c 0,50,51
319 662 m 0,62,63
 319 681 319 681 332 694 c 128,-1,64
 345 707 345 707 363 707 c 0,65,66
 382 707 382 707 395 694 c 128,-1,67
 408 681 408 681 408 662 c 0,68,69
 408 644 408 644 395 631 c 128,-1,70
 382 618 382 618 363 618 c 0,71,72
 345 618 345 618 332 631 c 128,-1,73
 319 644 319 644 319 662 c 0,62,63
EndSplineSet
EndChar

StartChar: aring
Encoding: 229 229 167
Width: 502
Flags: W
LayerCount: 2
Fore
SplineSet
210 -10 m 0,0,1
 176 -10 176 -10 146.5 -1 c 128,-1,2
 117 8 117 8 95.5 26 c 128,-1,3
 74 44 74 44 62 71 c 128,-1,4
 50 98 50 98 50 133 c 0,5,6
 50 175 50 175 68.5 203 c 128,-1,7
 87 231 87 231 117 248.5 c 128,-1,8
 147 266 147 266 184.5 273 c 128,-1,9
 222 280 222 280 261 280 c 2,10,-1
 358 280 l 1,11,-1
 358 336 l 2,12,13
 358 398 358 398 333 427 c 128,-1,14
 308 456 308 456 254 456 c 0,15,16
 214 456 214 456 173 439 c 128,-1,17
 132 422 132 422 106 402 c 1,18,-1
 79 444 l 1,19,20
 108 470 108 470 155.5 489 c 128,-1,21
 203 508 203 508 254 508 c 0,22,23
 338 508 338 508 375.5 465.5 c 128,-1,24
 413 423 413 423 413 347 c 2,25,-1
 413 144 l 2,26,27
 413 67 413 67 452 25 c 1,28,-1
 418 -8 l 1,29,30
 397 8 397 8 385 28.5 c 128,-1,31
 373 49 373 49 366 72 c 1,32,33
 347 34 347 34 308 12 c 128,-1,34
 269 -10 269 -10 210 -10 c 0,0,1
210 42 m 0,35,36
 240 42 240 42 267 51 c 128,-1,37
 294 60 294 60 314.5 77 c 128,-1,38
 335 94 335 94 346.5 119 c 128,-1,39
 358 144 358 144 358 177 c 2,40,-1
 358 229 l 1,41,-1
 261 229 l 2,42,43
 233 229 233 229 205.5 225.5 c 128,-1,44
 178 222 178 222 156 211.5 c 128,-1,45
 134 201 134 201 120.5 182 c 128,-1,46
 107 163 107 163 107 133 c 0,47,48
 107 83 107 83 134 62.5 c 128,-1,49
 161 42 161 42 210 42 c 0,35,36
253 547 m 0,50,51
 206 547 206 547 179 575.5 c 128,-1,52
 152 604 152 604 152 649 c 256,53,54
 152 694 152 694 179 723.5 c 128,-1,55
 206 753 206 753 253 753 c 0,56,57
 298 753 298 753 326 724.5 c 128,-1,58
 354 696 354 696 354 651 c 256,59,60
 354 606 354 606 326.5 576.5 c 128,-1,61
 299 547 299 547 253 547 c 0,50,51
254 709 m 256,62,63
 229 709 229 709 215 692.5 c 128,-1,64
 201 676 201 676 201 650 c 0,65,66
 201 623 201 623 214 606.5 c 128,-1,67
 227 590 227 590 252 590 c 256,68,69
 277 590 277 590 291 606.5 c 128,-1,70
 305 623 305 623 305 650 c 0,71,72
 305 676 305 676 292 692.5 c 128,-1,73
 279 709 279 709 254 709 c 256,62,63
EndSplineSet
EndChar

StartChar: ae
Encoding: 230 230 168
Width: 816
Flags: W
LayerCount: 2
Fore
SplineSet
210 -10 m 0,0,1
 176 -10 176 -10 146.5 -1 c 128,-1,2
 117 8 117 8 95.5 26 c 128,-1,3
 74 44 74 44 62 71 c 128,-1,4
 50 98 50 98 50 133 c 0,5,6
 50 175 50 175 68.5 203 c 128,-1,7
 87 231 87 231 117 248.5 c 128,-1,8
 147 266 147 266 184.5 273 c 128,-1,9
 222 280 222 280 261 280 c 2,10,-1
 358 280 l 1,11,-1
 358 336 l 2,12,13
 358 398 358 398 333 427 c 128,-1,14
 308 456 308 456 254 456 c 0,15,16
 214 456 214 456 173 439 c 128,-1,17
 132 422 132 422 106 402 c 1,18,-1
 79 444 l 1,19,20
 108 470 108 470 155.5 489 c 128,-1,21
 203 508 203 508 254 508 c 0,22,23
 321 508 321 508 355.5 478 c 128,-1,24
 390 448 390 448 402 400 c 1,25,26
 428 448 428 448 471 478 c 128,-1,27
 514 508 514 508 573 508 c 0,28,29
 610 508 610 508 643 497.5 c 128,-1,30
 676 487 676 487 700.5 467.5 c 128,-1,31
 725 448 725 448 739.5 419.5 c 128,-1,32
 754 391 754 391 754 356 c 0,33,34
 754 312 754 312 735 282 c 128,-1,35
 716 252 716 252 685.5 234 c 128,-1,36
 655 216 655 216 615.5 208 c 128,-1,37
 576 200 576 200 534 200 c 2,38,-1
 416 200 l 1,39,40
 425 122 425 122 465.5 82 c 128,-1,41
 506 42 506 42 584 42 c 0,42,43
 626 42 626 42 664 56 c 128,-1,44
 702 70 702 70 740 90 c 1,45,-1
 766 48 l 1,46,47
 731 24 731 24 684.5 7 c 128,-1,48
 638 -10 638 -10 584 -10 c 0,49,50
 506 -10 506 -10 457.5 21.5 c 128,-1,51
 409 53 409 53 386 114 c 1,52,53
 376 60 376 60 330 25 c 128,-1,54
 284 -10 284 -10 210 -10 c 0,0,1
573 459 m 0,55,56
 537 459 537 459 507.5 441 c 128,-1,57
 478 423 478 423 457 394 c 128,-1,58
 436 365 436 365 424.5 328 c 128,-1,59
 413 291 413 291 413 252 c 1,60,-1
 534 252 l 2,61,62
 585 252 585 252 617 261.5 c 128,-1,63
 649 271 649 271 667 286 c 128,-1,64
 685 301 685 301 691 319.5 c 128,-1,65
 697 338 697 338 697 356 c 0,66,67
 697 403 697 403 662.5 431 c 128,-1,68
 628 459 628 459 573 459 c 0,55,56
210 42 m 0,69,70
 240 42 240 42 267 51 c 128,-1,71
 294 60 294 60 314.5 77 c 128,-1,72
 335 94 335 94 346.5 119 c 128,-1,73
 358 144 358 144 358 177 c 2,74,-1
 358 229 l 1,75,-1
 261 229 l 2,76,77
 233 229 233 229 205.5 225.5 c 128,-1,78
 178 222 178 222 156 211.5 c 128,-1,79
 134 201 134 201 120.5 182 c 128,-1,80
 107 163 107 163 107 133 c 0,81,82
 107 83 107 83 134 62.5 c 128,-1,83
 161 42 161 42 210 42 c 0,69,70
EndSplineSet
EndChar

StartChar: ccedilla
Encoding: 231 231 169
Width: 435
Flags: W
LayerCount: 2
Fore
SplineSet
117 250 m 0,0,1
 117 148 117 148 159 95 c 128,-1,2
 201 42 201 42 276 42 c 0,3,4
 311 42 311 42 344 56 c 128,-1,5
 377 70 377 70 409 90 c 1,6,-1
 435 48 l 1,7,8
 406 26 406 26 369.5 10 c 128,-1,9
 333 -6 333 -6 291 -9 c 1,10,-1
 291 -66 l 1,11,12
 316 -69 316 -69 333.5 -84.5 c 128,-1,13
 351 -100 351 -100 351 -126 c 0,14,15
 351 -158 351 -158 334.5 -194 c 128,-1,16
 318 -230 318 -230 280 -257 c 1,17,-1
 246 -224 l 1,18,19
 255 -214 255 -214 264 -204.5 c 128,-1,20
 273 -195 273 -195 280 -185.5 c 128,-1,21
 287 -176 287 -176 291.5 -164.5 c 128,-1,22
 296 -153 296 -153 296 -139 c 0,23,24
 296 -126 296 -126 289.5 -119.5 c 128,-1,25
 283 -113 283 -113 274 -110 c 128,-1,26
 265 -107 265 -107 255 -106 c 128,-1,27
 245 -105 245 -105 238 -103 c 1,28,-1
 238 -7 l 1,29,30
 155 4 155 4 107.5 69.5 c 128,-1,31
 60 135 60 135 60 247 c 0,32,33
 60 289 60 289 68 335 c 128,-1,34
 76 381 76 381 97.5 419.5 c 128,-1,35
 119 458 119 458 157 483 c 128,-1,36
 195 508 195 508 256 508 c 0,37,38
 286 508 286 508 321 505.5 c 128,-1,39
 356 503 356 503 390 500 c 1,40,-1
 390 448 l 1,41,42
 351 451 351 451 313 453.5 c 128,-1,43
 275 456 275 456 249 456 c 0,44,45
 211 456 211 456 185.5 439 c 128,-1,46
 160 422 160 422 145 393.5 c 128,-1,47
 130 365 130 365 123.5 327.5 c 128,-1,48
 117 290 117 290 117 250 c 0,0,1
EndSplineSet
EndChar

StartChar: egrave
Encoding: 232 232 170
Width: 520
Flags: W
LayerCount: 2
Fore
SplineSet
120 200 m 1,0,1
 129 122 129 122 169.5 82 c 128,-1,2
 210 42 210 42 288 42 c 0,3,4
 330 42 330 42 368 56 c 128,-1,5
 406 70 406 70 444 90 c 1,6,-1
 470 48 l 1,7,8
 435 24 435 24 388.5 7 c 128,-1,9
 342 -10 342 -10 288 -10 c 0,10,11
 175 -10 175 -10 117.5 56.5 c 128,-1,12
 60 123 60 123 60 247 c 0,13,14
 60 299 60 299 75.5 346 c 128,-1,15
 91 393 91 393 119.5 429 c 128,-1,16
 148 465 148 465 188 486.5 c 128,-1,17
 228 508 228 508 277 508 c 0,18,19
 314 508 314 508 347 497.5 c 128,-1,20
 380 487 380 487 404.5 467.5 c 128,-1,21
 429 448 429 448 443.5 419.5 c 128,-1,22
 458 391 458 391 458 356 c 0,23,24
 458 312 458 312 439 282 c 128,-1,25
 420 252 420 252 389.5 234 c 128,-1,26
 359 216 359 216 319.5 208 c 128,-1,27
 280 200 280 200 238 200 c 2,28,-1
 120 200 l 1,0,1
277 459 m 0,29,30
 241 459 241 459 211.5 441 c 128,-1,31
 182 423 182 423 161 394 c 128,-1,32
 140 365 140 365 128.5 328 c 128,-1,33
 117 291 117 291 117 252 c 1,34,-1
 238 252 l 2,35,36
 289 252 289 252 321 261.5 c 128,-1,37
 353 271 353 271 371 286 c 128,-1,38
 389 301 389 301 395 319.5 c 128,-1,39
 401 338 401 338 401 356 c 0,40,41
 401 403 401 403 366.5 431 c 128,-1,42
 332 459 332 459 277 459 c 0,29,30
284 567 m 1,43,-1
 112 677 l 1,44,-1
 148 726 l 1,45,-1
 306 601 l 1,46,-1
 284 567 l 1,43,-1
EndSplineSet
EndChar

StartChar: eacute
Encoding: 233 233 171
Width: 520
Flags: W
LayerCount: 2
Fore
SplineSet
120 200 m 1,0,1
 129 122 129 122 169.5 82 c 128,-1,2
 210 42 210 42 288 42 c 0,3,4
 330 42 330 42 368 56 c 128,-1,5
 406 70 406 70 444 90 c 1,6,-1
 470 48 l 1,7,8
 435 24 435 24 388.5 7 c 128,-1,9
 342 -10 342 -10 288 -10 c 0,10,11
 175 -10 175 -10 117.5 56.5 c 128,-1,12
 60 123 60 123 60 247 c 0,13,14
 60 299 60 299 75.5 346 c 128,-1,15
 91 393 91 393 119.5 429 c 128,-1,16
 148 465 148 465 188 486.5 c 128,-1,17
 228 508 228 508 277 508 c 0,18,19
 314 508 314 508 347 497.5 c 128,-1,20
 380 487 380 487 404.5 467.5 c 128,-1,21
 429 448 429 448 443.5 419.5 c 128,-1,22
 458 391 458 391 458 356 c 0,23,24
 458 312 458 312 439 282 c 128,-1,25
 420 252 420 252 389.5 234 c 128,-1,26
 359 216 359 216 319.5 208 c 128,-1,27
 280 200 280 200 238 200 c 2,28,-1
 120 200 l 1,0,1
277 459 m 0,29,30
 241 459 241 459 211.5 441 c 128,-1,31
 182 423 182 423 161 394 c 128,-1,32
 140 365 140 365 128.5 328 c 128,-1,33
 117 291 117 291 117 252 c 1,34,-1
 238 252 l 2,35,36
 289 252 289 252 321 261.5 c 128,-1,37
 353 271 353 271 371 286 c 128,-1,38
 389 301 389 301 395 319.5 c 128,-1,39
 401 338 401 338 401 356 c 0,40,41
 401 403 401 403 366.5 431 c 128,-1,42
 332 459 332 459 277 459 c 0,29,30
249 601 m 1,43,-1
 407 726 l 1,44,-1
 443 677 l 1,45,-1
 271 567 l 1,46,-1
 249 601 l 1,43,-1
EndSplineSet
EndChar

StartChar: ecircumflex
Encoding: 234 234 172
Width: 520
Flags: W
LayerCount: 2
Fore
SplineSet
120 200 m 1,0,1
 129 122 129 122 169.5 82 c 128,-1,2
 210 42 210 42 288 42 c 0,3,4
 330 42 330 42 368 56 c 128,-1,5
 406 70 406 70 444 90 c 1,6,-1
 470 48 l 1,7,8
 435 24 435 24 388.5 7 c 128,-1,9
 342 -10 342 -10 288 -10 c 0,10,11
 175 -10 175 -10 117.5 56.5 c 128,-1,12
 60 123 60 123 60 247 c 0,13,14
 60 299 60 299 75.5 346 c 128,-1,15
 91 393 91 393 119.5 429 c 128,-1,16
 148 465 148 465 188 486.5 c 128,-1,17
 228 508 228 508 277 508 c 0,18,19
 314 508 314 508 347 497.5 c 128,-1,20
 380 487 380 487 404.5 467.5 c 128,-1,21
 429 448 429 448 443.5 419.5 c 128,-1,22
 458 391 458 391 458 356 c 0,23,24
 458 312 458 312 439 282 c 128,-1,25
 420 252 420 252 389.5 234 c 128,-1,26
 359 216 359 216 319.5 208 c 128,-1,27
 280 200 280 200 238 200 c 2,28,-1
 120 200 l 1,0,1
277 459 m 0,29,30
 241 459 241 459 211.5 441 c 128,-1,31
 182 423 182 423 161 394 c 128,-1,32
 140 365 140 365 128.5 328 c 128,-1,33
 117 291 117 291 117 252 c 1,34,-1
 238 252 l 2,35,36
 289 252 289 252 321 261.5 c 128,-1,37
 353 271 353 271 371 286 c 128,-1,38
 389 301 389 301 395 319.5 c 128,-1,39
 401 338 401 338 401 356 c 0,40,41
 401 403 401 403 366.5 431 c 128,-1,42
 332 459 332 459 277 459 c 0,29,30
397 581 m 1,43,-1
 277 714 l 1,44,-1
 157 580 l 1,45,-1
 120 613 l 1,46,-1
 229 736 l 1,47,48
 256 768 256 768 277 768 c 256,49,50
 298 768 298 768 325 736 c 1,51,-1
 434 614 l 1,52,-1
 397 581 l 1,43,-1
EndSplineSet
EndChar

StartChar: edieresis
Encoding: 235 235 173
Width: 520
Flags: W
LayerCount: 2
Fore
SplineSet
120 200 m 1,0,1
 129 122 129 122 169.5 82 c 128,-1,2
 210 42 210 42 288 42 c 0,3,4
 330 42 330 42 368 56 c 128,-1,5
 406 70 406 70 444 90 c 1,6,-1
 470 48 l 1,7,8
 435 24 435 24 388.5 7 c 128,-1,9
 342 -10 342 -10 288 -10 c 0,10,11
 175 -10 175 -10 117.5 56.5 c 128,-1,12
 60 123 60 123 60 247 c 0,13,14
 60 299 60 299 75.5 346 c 128,-1,15
 91 393 91 393 119.5 429 c 128,-1,16
 148 465 148 465 188 486.5 c 128,-1,17
 228 508 228 508 277 508 c 0,18,19
 314 508 314 508 347 497.5 c 128,-1,20
 380 487 380 487 404.5 467.5 c 128,-1,21
 429 448 429 448 443.5 419.5 c 128,-1,22
 458 391 458 391 458 356 c 0,23,24
 458 312 458 312 439 282 c 128,-1,25
 420 252 420 252 389.5 234 c 128,-1,26
 359 216 359 216 319.5 208 c 128,-1,27
 280 200 280 200 238 200 c 2,28,-1
 120 200 l 1,0,1
277 459 m 0,29,30
 241 459 241 459 211.5 441 c 128,-1,31
 182 423 182 423 161 394 c 128,-1,32
 140 365 140 365 128.5 328 c 128,-1,33
 117 291 117 291 117 252 c 1,34,-1
 238 252 l 2,35,36
 289 252 289 252 321 261.5 c 128,-1,37
 353 271 353 271 371 286 c 128,-1,38
 389 301 389 301 395 319.5 c 128,-1,39
 401 338 401 338 401 356 c 0,40,41
 401 403 401 403 366.5 431 c 128,-1,42
 332 459 332 459 277 459 c 0,29,30
121 662 m 0,43,44
 121 681 121 681 134 694 c 128,-1,45
 147 707 147 707 165 707 c 0,46,47
 184 707 184 707 197 694 c 128,-1,48
 210 681 210 681 210 662 c 0,49,50
 210 644 210 644 197 631 c 128,-1,51
 184 618 184 618 165 618 c 0,52,53
 147 618 147 618 134 631 c 128,-1,54
 121 644 121 644 121 662 c 0,43,44
342 662 m 0,55,56
 342 681 342 681 355 694 c 128,-1,57
 368 707 368 707 386 707 c 0,58,59
 405 707 405 707 418 694 c 128,-1,60
 431 681 431 681 431 662 c 0,61,62
 431 644 431 644 418 631 c 128,-1,63
 405 618 405 618 386 618 c 0,64,65
 368 618 368 618 355 631 c 128,-1,66
 342 644 342 644 342 662 c 0,55,56
EndSplineSet
EndChar

StartChar: igrave
Encoding: 236 236 174
Width: 235
Flags: W
LayerCount: 2
Fore
SplineSet
89 505 m 1,0,1
 108 491 108 491 119.5 473.5 c 128,-1,2
 131 456 131 456 138 436 c 128,-1,3
 145 416 145 416 147.5 395 c 128,-1,4
 150 374 150 374 150 353 c 2,5,-1
 150 0 l 1,6,-1
 95 0 l 1,7,-1
 95 353 l 2,8,9
 95 393 95 393 85 422 c 128,-1,10
 75 451 75 451 55 472 c 1,11,-1
 89 505 l 1,0,1
91 560 m 1,12,-1
 -16 699 l 1,13,-1
 34 732 l 1,14,-1
 124 584 l 1,15,-1
 91 560 l 1,12,-1
EndSplineSet
EndChar

StartChar: iacute
Encoding: 237 237 175
Width: 235
Flags: W
LayerCount: 2
Fore
SplineSet
89 505 m 1,0,1
 108 491 108 491 119.5 473.5 c 128,-1,2
 131 456 131 456 138 436 c 128,-1,3
 145 416 145 416 147.5 395 c 128,-1,4
 150 374 150 374 150 353 c 2,5,-1
 150 0 l 1,6,-1
 95 0 l 1,7,-1
 95 353 l 2,8,9
 95 393 95 393 85 422 c 128,-1,10
 75 451 75 451 55 472 c 1,11,-1
 89 505 l 1,0,1
53 584 m 1,12,-1
 143 732 l 1,13,-1
 193 699 l 1,14,-1
 86 560 l 1,15,-1
 53 584 l 1,12,-1
EndSplineSet
EndChar

StartChar: icircumflex
Encoding: 238 238 176
Width: 235
Flags: W
LayerCount: 2
Fore
SplineSet
89 505 m 1,0,1
 108 491 108 491 119.5 473.5 c 128,-1,2
 131 456 131 456 138 436 c 128,-1,3
 145 416 145 416 147.5 395 c 128,-1,4
 150 374 150 374 150 353 c 2,5,-1
 150 0 l 1,6,-1
 95 0 l 1,7,-1
 95 353 l 2,8,9
 95 393 95 393 85 422 c 128,-1,10
 75 451 75 451 55 472 c 1,11,-1
 89 505 l 1,0,1
216 584 m 1,12,-1
 121 712 l 1,13,-1
 27 584 l 1,14,-1
 -16 613 l 1,15,-1
 73 736 l 2,16,17
 96 768 96 768 121 768 c 256,18,19
 146 768 146 768 169 736 c 2,20,-1
 258 614 l 1,21,-1
 216 584 l 1,12,-1
EndSplineSet
EndChar

StartChar: idieresis
Encoding: 239 239 177
Width: 235
Flags: W
LayerCount: 2
Fore
SplineSet
89 505 m 1,0,1
 108 491 108 491 119.5 473.5 c 128,-1,2
 131 456 131 456 138 436 c 128,-1,3
 145 416 145 416 147.5 395 c 128,-1,4
 150 374 150 374 150 353 c 2,5,-1
 150 0 l 1,6,-1
 95 0 l 1,7,-1
 95 353 l 2,8,9
 95 393 95 393 85 422 c 128,-1,10
 75 451 75 451 55 472 c 1,11,-1
 89 505 l 1,0,1
-38 662 m 0,12,13
 -38 681 -38 681 -25 694 c 128,-1,14
 -12 707 -12 707 6 707 c 0,15,16
 25 707 25 707 38 694 c 128,-1,17
 51 681 51 681 51 662 c 0,18,19
 51 644 51 644 38 631 c 128,-1,20
 25 618 25 618 6 618 c 0,21,22
 -12 618 -12 618 -25 631 c 128,-1,23
 -38 644 -38 644 -38 662 c 0,12,13
123 662 m 0,24,25
 123 681 123 681 136 694 c 128,-1,26
 149 707 149 707 167 707 c 0,27,28
 186 707 186 707 199 694 c 128,-1,29
 212 681 212 681 212 662 c 0,30,31
 212 644 212 644 199 631 c 128,-1,32
 186 618 186 618 167 618 c 0,33,34
 149 618 149 618 136 631 c 128,-1,35
 123 644 123 644 123 662 c 0,24,25
EndSplineSet
EndChar

StartChar: eth
Encoding: 240 240 178
Width: 587
Flags: W
LayerCount: 2
Fore
SplineSet
537 571 m 1,0,-1
 443 571 l 1,1,-1
 494 418 l 2,2,3
 511 370 511 370 518.5 325.5 c 128,-1,4
 526 281 526 281 526 242 c 0,5,6
 526 183 526 183 510 136.5 c 128,-1,7
 494 90 494 90 464 57.5 c 128,-1,8
 434 25 434 25 392 7.5 c 128,-1,9
 350 -10 350 -10 299 -10 c 0,10,11
 243 -10 243 -10 197 9 c 128,-1,12
 151 28 151 28 118.5 62.5 c 128,-1,13
 86 97 86 97 68 144 c 128,-1,14
 50 191 50 191 50 247 c 256,15,16
 50 303 50 303 68 350.5 c 128,-1,17
 86 398 86 398 118.5 433 c 128,-1,18
 151 468 151 468 197 488 c 128,-1,19
 243 508 243 508 299 508 c 0,20,21
 317 508 317 508 347.5 505 c 128,-1,22
 378 502 378 502 405 497 c 1,23,-1
 380 571 l 1,24,-1
 270 571 l 1,25,-1
 270 626 l 1,26,-1
 361 626 l 1,27,-1
 331 715 l 1,28,-1
 389 733 l 1,29,-1
 424 626 l 1,30,-1
 537 626 l 1,31,-1
 537 571 l 1,0,-1
424 441 m 1,32,33
 410 444 410 444 392.5 446.5 c 128,-1,34
 375 449 375 449 357 451.5 c 128,-1,35
 339 454 339 454 323.5 455 c 128,-1,36
 308 456 308 456 299 456 c 0,37,38
 255 456 255 456 220 441 c 128,-1,39
 185 426 185 426 159.5 399 c 128,-1,40
 134 372 134 372 120.5 334 c 128,-1,41
 107 296 107 296 107 250 c 0,42,43
 107 203 107 203 120.5 164.5 c 128,-1,44
 134 126 134 126 159.5 99 c 128,-1,45
 185 72 185 72 220 57 c 128,-1,46
 255 42 255 42 299 42 c 0,47,48
 341 42 341 42 372.5 57 c 128,-1,49
 404 72 404 72 425 98 c 128,-1,50
 446 124 446 124 457 159 c 128,-1,51
 468 194 468 194 468 235 c 0,52,53
 468 275 468 275 460 318 c 128,-1,54
 452 361 452 361 437 405 c 2,55,-1
 424 441 l 1,32,33
EndSplineSet
EndChar

StartChar: ntilde
Encoding: 241 241 179
Width: 547
Flags: W
LayerCount: 2
Fore
SplineSet
439 0 m 1,0,1
 423 30 423 30 418 67.5 c 128,-1,2
 413 105 413 105 413 134 c 0,3,4
 413 158 413 158 414 179 c 128,-1,5
 415 200 415 200 416.5 223.5 c 128,-1,6
 418 247 418 247 419.5 274 c 128,-1,7
 421 301 421 301 421 336 c 0,8,9
 421 398 421 398 393 427 c 128,-1,10
 365 456 365 456 308 456 c 0,11,12
 254 456 254 456 217 429.5 c 128,-1,13
 180 403 180 403 145 355 c 1,14,-1
 145 353 l 1,15,-1
 145 0 l 1,16,-1
 90 0 l 1,17,-1
 90 353 l 2,18,19
 90 393 90 393 80 422 c 128,-1,20
 70 451 70 451 50 472 c 1,21,-1
 84 505 l 1,22,23
 108 488 108 488 121 463.5 c 128,-1,24
 134 439 134 439 139 413 c 1,25,26
 172 461 172 461 214.5 484.5 c 128,-1,27
 257 508 257 508 308 508 c 0,28,29
 396 508 396 508 436 466 c 128,-1,30
 476 424 476 424 476 347 c 0,31,32
 476 311 476 311 474.5 281.5 c 128,-1,33
 473 252 473 252 471.5 226 c 128,-1,34
 470 200 470 200 469 176 c 128,-1,35
 468 152 468 152 468 128 c 0,36,37
 468 95 468 95 473 65 c 128,-1,38
 478 35 478 35 492 0 c 1,39,-1
 439 0 l 1,0,1
78 627 m 1,40,41
 92 668 92 668 122.5 684 c 128,-1,42
 153 700 153 700 198 700 c 0,43,44
 220 700 220 700 239 694.5 c 128,-1,45
 258 689 258 689 275.5 682.5 c 128,-1,46
 293 676 293 676 310 670.5 c 128,-1,47
 327 665 327 665 347 665 c 0,48,49
 372 665 372 665 390 672 c 128,-1,50
 408 679 408 679 419 701 c 1,51,-1
 468 683 l 1,52,53
 454 642 454 642 423.5 626 c 128,-1,54
 393 610 393 610 348 610 c 0,55,56
 327 610 327 610 308 615.5 c 128,-1,57
 289 621 289 621 271 627.5 c 128,-1,58
 253 634 253 634 235.5 639.5 c 128,-1,59
 218 645 218 645 199 645 c 0,60,61
 174 645 174 645 156 638 c 128,-1,62
 138 631 138 631 127 609 c 1,63,-1
 78 627 l 1,40,41
EndSplineSet
EndChar

StartChar: ograve
Encoding: 242 242 180
Width: 597
Flags: W
LayerCount: 2
Fore
SplineSet
299 -10 m 256,0,1
 243 -10 243 -10 197 9 c 128,-1,2
 151 28 151 28 118.5 62.5 c 128,-1,3
 86 97 86 97 68 144 c 128,-1,4
 50 191 50 191 50 247 c 256,5,6
 50 303 50 303 68 350.5 c 128,-1,7
 86 398 86 398 118.5 433 c 128,-1,8
 151 468 151 468 197 488 c 128,-1,9
 243 508 243 508 299 508 c 256,10,11
 355 508 355 508 400.5 488.5 c 128,-1,12
 446 469 446 469 478.5 434.5 c 128,-1,13
 511 400 511 400 529 352.5 c 128,-1,14
 547 305 547 305 547 250 c 0,15,16
 547 194 547 194 529 146 c 128,-1,17
 511 98 511 98 478.5 63.5 c 128,-1,18
 446 29 446 29 400.5 9.5 c 128,-1,19
 355 -10 355 -10 299 -10 c 256,0,1
299 456 m 0,20,21
 255 456 255 456 220 441 c 128,-1,22
 185 426 185 426 159.5 399 c 128,-1,23
 134 372 134 372 120.5 334 c 128,-1,24
 107 296 107 296 107 250 c 0,25,26
 107 203 107 203 120.5 164.5 c 128,-1,27
 134 126 134 126 159.5 99 c 128,-1,28
 185 72 185 72 220 57 c 128,-1,29
 255 42 255 42 299 42 c 0,30,31
 342 42 342 42 377.5 57.5 c 128,-1,32
 413 73 413 73 438 100.5 c 128,-1,33
 463 128 463 128 476.5 166.5 c 128,-1,34
 490 205 490 205 490 252 c 0,35,36
 490 298 490 298 476.5 335.5 c 128,-1,37
 463 373 463 373 438 400 c 128,-1,38
 413 427 413 427 377.5 441.5 c 128,-1,39
 342 456 342 456 299 456 c 0,20,21
306 567 m 1,40,-1
 134 677 l 1,41,-1
 170 726 l 1,42,-1
 328 601 l 1,43,-1
 306 567 l 1,40,-1
EndSplineSet
EndChar

StartChar: oacute
Encoding: 243 243 181
Width: 597
Flags: W
LayerCount: 2
Fore
SplineSet
299 -10 m 256,0,1
 243 -10 243 -10 197 9 c 128,-1,2
 151 28 151 28 118.5 62.5 c 128,-1,3
 86 97 86 97 68 144 c 128,-1,4
 50 191 50 191 50 247 c 256,5,6
 50 303 50 303 68 350.5 c 128,-1,7
 86 398 86 398 118.5 433 c 128,-1,8
 151 468 151 468 197 488 c 128,-1,9
 243 508 243 508 299 508 c 256,10,11
 355 508 355 508 400.5 488.5 c 128,-1,12
 446 469 446 469 478.5 434.5 c 128,-1,13
 511 400 511 400 529 352.5 c 128,-1,14
 547 305 547 305 547 250 c 0,15,16
 547 194 547 194 529 146 c 128,-1,17
 511 98 511 98 478.5 63.5 c 128,-1,18
 446 29 446 29 400.5 9.5 c 128,-1,19
 355 -10 355 -10 299 -10 c 256,0,1
299 456 m 0,20,21
 255 456 255 456 220 441 c 128,-1,22
 185 426 185 426 159.5 399 c 128,-1,23
 134 372 134 372 120.5 334 c 128,-1,24
 107 296 107 296 107 250 c 0,25,26
 107 203 107 203 120.5 164.5 c 128,-1,27
 134 126 134 126 159.5 99 c 128,-1,28
 185 72 185 72 220 57 c 128,-1,29
 255 42 255 42 299 42 c 0,30,31
 342 42 342 42 377.5 57.5 c 128,-1,32
 413 73 413 73 438 100.5 c 128,-1,33
 463 128 463 128 476.5 166.5 c 128,-1,34
 490 205 490 205 490 252 c 0,35,36
 490 298 490 298 476.5 335.5 c 128,-1,37
 463 373 463 373 438 400 c 128,-1,38
 413 427 413 427 377.5 441.5 c 128,-1,39
 342 456 342 456 299 456 c 0,20,21
271 601 m 1,40,-1
 429 726 l 1,41,-1
 465 677 l 1,42,-1
 293 567 l 1,43,-1
 271 601 l 1,40,-1
EndSplineSet
EndChar

StartChar: ocircumflex
Encoding: 244 244 182
Width: 597
Flags: W
LayerCount: 2
Fore
SplineSet
299 -10 m 256,0,1
 243 -10 243 -10 197 9 c 128,-1,2
 151 28 151 28 118.5 62.5 c 128,-1,3
 86 97 86 97 68 144 c 128,-1,4
 50 191 50 191 50 247 c 256,5,6
 50 303 50 303 68 350.5 c 128,-1,7
 86 398 86 398 118.5 433 c 128,-1,8
 151 468 151 468 197 488 c 128,-1,9
 243 508 243 508 299 508 c 256,10,11
 355 508 355 508 400.5 488.5 c 128,-1,12
 446 469 446 469 478.5 434.5 c 128,-1,13
 511 400 511 400 529 352.5 c 128,-1,14
 547 305 547 305 547 250 c 0,15,16
 547 194 547 194 529 146 c 128,-1,17
 511 98 511 98 478.5 63.5 c 128,-1,18
 446 29 446 29 400.5 9.5 c 128,-1,19
 355 -10 355 -10 299 -10 c 256,0,1
299 456 m 0,20,21
 255 456 255 456 220 441 c 128,-1,22
 185 426 185 426 159.5 399 c 128,-1,23
 134 372 134 372 120.5 334 c 128,-1,24
 107 296 107 296 107 250 c 0,25,26
 107 203 107 203 120.5 164.5 c 128,-1,27
 134 126 134 126 159.5 99 c 128,-1,28
 185 72 185 72 220 57 c 128,-1,29
 255 42 255 42 299 42 c 0,30,31
 342 42 342 42 377.5 57.5 c 128,-1,32
 413 73 413 73 438 100.5 c 128,-1,33
 463 128 463 128 476.5 166.5 c 128,-1,34
 490 205 490 205 490 252 c 0,35,36
 490 298 490 298 476.5 335.5 c 128,-1,37
 463 373 463 373 438 400 c 128,-1,38
 413 427 413 427 377.5 441.5 c 128,-1,39
 342 456 342 456 299 456 c 0,20,21
419 581 m 1,40,-1
 299 714 l 1,41,-1
 179 580 l 1,42,-1
 142 613 l 1,43,-1
 251 736 l 1,44,45
 278 768 278 768 299 768 c 256,46,47
 320 768 320 768 347 736 c 1,48,-1
 456 614 l 1,49,-1
 419 581 l 1,40,-1
EndSplineSet
EndChar

StartChar: otilde
Encoding: 245 245 183
Width: 597
Flags: W
LayerCount: 2
Fore
SplineSet
299 -10 m 256,0,1
 243 -10 243 -10 197 9 c 128,-1,2
 151 28 151 28 118.5 62.5 c 128,-1,3
 86 97 86 97 68 144 c 128,-1,4
 50 191 50 191 50 247 c 256,5,6
 50 303 50 303 68 350.5 c 128,-1,7
 86 398 86 398 118.5 433 c 128,-1,8
 151 468 151 468 197 488 c 128,-1,9
 243 508 243 508 299 508 c 256,10,11
 355 508 355 508 400.5 488.5 c 128,-1,12
 446 469 446 469 478.5 434.5 c 128,-1,13
 511 400 511 400 529 352.5 c 128,-1,14
 547 305 547 305 547 250 c 0,15,16
 547 194 547 194 529 146 c 128,-1,17
 511 98 511 98 478.5 63.5 c 128,-1,18
 446 29 446 29 400.5 9.5 c 128,-1,19
 355 -10 355 -10 299 -10 c 256,0,1
299 456 m 0,20,21
 255 456 255 456 220 441 c 128,-1,22
 185 426 185 426 159.5 399 c 128,-1,23
 134 372 134 372 120.5 334 c 128,-1,24
 107 296 107 296 107 250 c 0,25,26
 107 203 107 203 120.5 164.5 c 128,-1,27
 134 126 134 126 159.5 99 c 128,-1,28
 185 72 185 72 220 57 c 128,-1,29
 255 42 255 42 299 42 c 0,30,31
 342 42 342 42 377.5 57.5 c 128,-1,32
 413 73 413 73 438 100.5 c 128,-1,33
 463 128 463 128 476.5 166.5 c 128,-1,34
 490 205 490 205 490 252 c 0,35,36
 490 298 490 298 476.5 335.5 c 128,-1,37
 463 373 463 373 438 400 c 128,-1,38
 413 427 413 427 377.5 441.5 c 128,-1,39
 342 456 342 456 299 456 c 0,20,21
103 627 m 1,40,41
 117 668 117 668 147.5 684 c 128,-1,42
 178 700 178 700 223 700 c 0,43,44
 245 700 245 700 264 694.5 c 128,-1,45
 283 689 283 689 300.5 682.5 c 128,-1,46
 318 676 318 676 335 670.5 c 128,-1,47
 352 665 352 665 372 665 c 0,48,49
 397 665 397 665 415 672 c 128,-1,50
 433 679 433 679 444 701 c 1,51,-1
 493 683 l 1,52,53
 479 642 479 642 448.5 626 c 128,-1,54
 418 610 418 610 373 610 c 0,55,56
 352 610 352 610 333 615.5 c 128,-1,57
 314 621 314 621 296 627.5 c 128,-1,58
 278 634 278 634 260.5 639.5 c 128,-1,59
 243 645 243 645 224 645 c 0,60,61
 199 645 199 645 181 638 c 128,-1,62
 163 631 163 631 152 609 c 1,63,-1
 103 627 l 1,40,41
EndSplineSet
EndChar

StartChar: odieresis
Encoding: 246 246 184
Width: 597
Flags: W
LayerCount: 2
Fore
SplineSet
299 -10 m 256,0,1
 243 -10 243 -10 197 9 c 128,-1,2
 151 28 151 28 118.5 62.5 c 128,-1,3
 86 97 86 97 68 144 c 128,-1,4
 50 191 50 191 50 247 c 256,5,6
 50 303 50 303 68 350.5 c 128,-1,7
 86 398 86 398 118.5 433 c 128,-1,8
 151 468 151 468 197 488 c 128,-1,9
 243 508 243 508 299 508 c 256,10,11
 355 508 355 508 400.5 488.5 c 128,-1,12
 446 469 446 469 478.5 434.5 c 128,-1,13
 511 400 511 400 529 352.5 c 128,-1,14
 547 305 547 305 547 250 c 0,15,16
 547 194 547 194 529 146 c 128,-1,17
 511 98 511 98 478.5 63.5 c 128,-1,18
 446 29 446 29 400.5 9.5 c 128,-1,19
 355 -10 355 -10 299 -10 c 256,0,1
299 456 m 0,20,21
 255 456 255 456 220 441 c 128,-1,22
 185 426 185 426 159.5 399 c 128,-1,23
 134 372 134 372 120.5 334 c 128,-1,24
 107 296 107 296 107 250 c 0,25,26
 107 203 107 203 120.5 164.5 c 128,-1,27
 134 126 134 126 159.5 99 c 128,-1,28
 185 72 185 72 220 57 c 128,-1,29
 255 42 255 42 299 42 c 0,30,31
 342 42 342 42 377.5 57.5 c 128,-1,32
 413 73 413 73 438 100.5 c 128,-1,33
 463 128 463 128 476.5 166.5 c 128,-1,34
 490 205 490 205 490 252 c 0,35,36
 490 298 490 298 476.5 335.5 c 128,-1,37
 463 373 463 373 438 400 c 128,-1,38
 413 427 413 427 377.5 441.5 c 128,-1,39
 342 456 342 456 299 456 c 0,20,21
143 662 m 0,40,41
 143 681 143 681 156 694 c 128,-1,42
 169 707 169 707 187 707 c 0,43,44
 206 707 206 707 219 694 c 128,-1,45
 232 681 232 681 232 662 c 0,46,47
 232 644 232 644 219 631 c 128,-1,48
 206 618 206 618 187 618 c 0,49,50
 169 618 169 618 156 631 c 128,-1,51
 143 644 143 644 143 662 c 0,40,41
364 662 m 0,52,53
 364 681 364 681 377 694 c 128,-1,54
 390 707 390 707 408 707 c 0,55,56
 427 707 427 707 440 694 c 128,-1,57
 453 681 453 681 453 662 c 0,58,59
 453 644 453 644 440 631 c 128,-1,60
 427 618 427 618 408 618 c 0,61,62
 390 618 390 618 377 631 c 128,-1,63
 364 644 364 644 364 662 c 0,52,53
EndSplineSet
EndChar

StartChar: divide
Encoding: 247 247 185
Width: 472
Flags: W
LayerCount: 2
Fore
SplineSet
422 319 m 1,0,-1
 422 268 l 1,1,-1
 50 268 l 1,2,-1
 50 319 l 1,3,-1
 422 319 l 1,0,-1
189 442 m 0,4,5
 189 462 189 462 202.5 475.5 c 128,-1,6
 216 489 216 489 235 489 c 0,7,8
 255 489 255 489 268.5 475.5 c 128,-1,9
 282 462 282 462 282 442 c 0,10,11
 282 423 282 423 268.5 409.5 c 128,-1,12
 255 396 255 396 235 396 c 0,13,14
 216 396 216 396 202.5 409.5 c 128,-1,15
 189 423 189 423 189 442 c 0,4,5
189 143 m 0,16,17
 189 163 189 163 202.5 176.5 c 128,-1,18
 216 190 216 190 235 190 c 0,19,20
 255 190 255 190 268.5 176.5 c 128,-1,21
 282 163 282 163 282 143 c 0,22,23
 282 124 282 124 268.5 110.5 c 128,-1,24
 255 97 255 97 235 97 c 0,25,26
 216 97 216 97 202.5 110.5 c 128,-1,27
 189 124 189 124 189 143 c 0,16,17
EndSplineSet
EndChar

StartChar: oslash
Encoding: 248 248 186
Width: 597
Flags: W
LayerCount: 2
Fore
SplineSet
299 -10 m 0,0,1
 265 -10 265 -10 235.5 -3 c 128,-1,2
 206 4 206 4 180 17 c 1,3,-1
 158 -21 l 1,4,-1
 109 9 l 1,5,-1
 135 46 l 1,6,7
 94 81 94 81 72 132.5 c 128,-1,8
 50 184 50 184 50 247 c 0,9,10
 50 303 50 303 68 350.5 c 128,-1,11
 86 398 86 398 118.5 433 c 128,-1,12
 151 468 151 468 197 488 c 128,-1,13
 243 508 243 508 299 508 c 0,14,15
 332 508 332 508 361 501 c 128,-1,16
 390 494 390 494 416 481 c 1,17,-1
 439 519 l 1,18,-1
 488 489 l 1,19,-1
 461 451 l 1,20,21
 502 416 502 416 524.5 364.5 c 128,-1,22
 547 313 547 313 547 250 c 0,23,24
 547 194 547 194 529 146 c 128,-1,25
 511 98 511 98 478.5 63.5 c 128,-1,26
 446 29 446 29 400.5 9.5 c 128,-1,27
 355 -10 355 -10 299 -10 c 0,0,1
299 456 m 0,28,29
 255 456 255 456 220 441 c 128,-1,30
 185 426 185 426 159.5 399 c 128,-1,31
 134 372 134 372 120.5 334 c 128,-1,32
 107 296 107 296 107 250 c 0,33,34
 107 146 107 146 162 91 c 1,35,-1
 387 439 l 1,36,37
 348 456 348 456 299 456 c 0,28,29
490 252 m 0,38,39
 490 354 490 354 435 407 c 1,40,-1
 210 59 l 1,41,42
 229 50 229 50 251 46 c 128,-1,43
 273 42 273 42 299 42 c 0,44,45
 342 42 342 42 377.5 57.5 c 128,-1,46
 413 73 413 73 438 100.5 c 128,-1,47
 463 128 463 128 476.5 166.5 c 128,-1,48
 490 205 490 205 490 252 c 0,38,39
EndSplineSet
EndChar

StartChar: ugrave
Encoding: 249 249 187
Width: 536
Flags: W
LayerCount: 2
Fore
SplineSet
452 -8 m 1,0,1
 427 10 427 10 414.5 34.5 c 128,-1,2
 402 59 402 59 397 87 c 1,3,4
 334 -10 334 -10 232 -10 c 0,5,6
 145 -10 145 -10 107 32 c 128,-1,7
 69 74 69 74 69 151 c 0,8,9
 69 187 69 187 70 216.5 c 128,-1,10
 71 246 71 246 72.5 272 c 128,-1,11
 74 298 74 298 75.5 322 c 128,-1,12
 77 346 77 346 77 370 c 0,13,14
 77 399 77 399 72.5 429 c 128,-1,15
 68 459 68 459 55 488 c 1,16,-1
 103 504 l 1,17,18
 112 490 112 490 117.5 472 c 128,-1,19
 123 454 123 454 126.5 435 c 128,-1,20
 130 416 130 416 131 397.5 c 128,-1,21
 132 379 132 379 132 364 c 0,22,23
 132 340 132 340 130.5 318.5 c 128,-1,24
 129 297 129 297 127.5 274 c 128,-1,25
 126 251 126 251 125 224 c 128,-1,26
 124 197 124 197 124 162 c 0,27,28
 124 100 124 100 149.5 71 c 128,-1,29
 175 42 175 42 232 42 c 0,30,31
 285 42 285 42 321 69.5 c 128,-1,32
 357 97 357 97 392 145 c 1,33,-1
 392 498 l 1,34,-1
 447 498 l 1,35,-1
 447 144 l 2,36,37
 447 67 447 67 486 25 c 1,38,-1
 452 -8 l 1,0,1
272 567 m 1,39,-1
 100 677 l 1,40,-1
 136 726 l 1,41,-1
 294 601 l 1,42,-1
 272 567 l 1,39,-1
EndSplineSet
EndChar

StartChar: uacute
Encoding: 250 250 188
Width: 536
Flags: W
LayerCount: 2
Fore
SplineSet
452 -8 m 1,0,1
 427 10 427 10 414.5 34.5 c 128,-1,2
 402 59 402 59 397 87 c 1,3,4
 334 -10 334 -10 232 -10 c 0,5,6
 145 -10 145 -10 107 32 c 128,-1,7
 69 74 69 74 69 151 c 0,8,9
 69 187 69 187 70 216.5 c 128,-1,10
 71 246 71 246 72.5 272 c 128,-1,11
 74 298 74 298 75.5 322 c 128,-1,12
 77 346 77 346 77 370 c 0,13,14
 77 399 77 399 72.5 429 c 128,-1,15
 68 459 68 459 55 488 c 1,16,-1
 103 504 l 1,17,18
 112 490 112 490 117.5 472 c 128,-1,19
 123 454 123 454 126.5 435 c 128,-1,20
 130 416 130 416 131 397.5 c 128,-1,21
 132 379 132 379 132 364 c 0,22,23
 132 340 132 340 130.5 318.5 c 128,-1,24
 129 297 129 297 127.5 274 c 128,-1,25
 126 251 126 251 125 224 c 128,-1,26
 124 197 124 197 124 162 c 0,27,28
 124 100 124 100 149.5 71 c 128,-1,29
 175 42 175 42 232 42 c 0,30,31
 285 42 285 42 321 69.5 c 128,-1,32
 357 97 357 97 392 145 c 1,33,-1
 392 498 l 1,34,-1
 447 498 l 1,35,-1
 447 144 l 2,36,37
 447 67 447 67 486 25 c 1,38,-1
 452 -8 l 1,0,1
237 601 m 1,39,-1
 395 726 l 1,40,-1
 431 677 l 1,41,-1
 259 567 l 1,42,-1
 237 601 l 1,39,-1
EndSplineSet
EndChar

StartChar: ucircumflex
Encoding: 251 251 189
Width: 536
Flags: W
LayerCount: 2
Fore
SplineSet
452 -8 m 1,0,1
 427 10 427 10 414.5 34.5 c 128,-1,2
 402 59 402 59 397 87 c 1,3,4
 334 -10 334 -10 232 -10 c 0,5,6
 145 -10 145 -10 107 32 c 128,-1,7
 69 74 69 74 69 151 c 0,8,9
 69 187 69 187 70 216.5 c 128,-1,10
 71 246 71 246 72.5 272 c 128,-1,11
 74 298 74 298 75.5 322 c 128,-1,12
 77 346 77 346 77 370 c 0,13,14
 77 399 77 399 72.5 429 c 128,-1,15
 68 459 68 459 55 488 c 1,16,-1
 103 504 l 1,17,18
 112 490 112 490 117.5 472 c 128,-1,19
 123 454 123 454 126.5 435 c 128,-1,20
 130 416 130 416 131 397.5 c 128,-1,21
 132 379 132 379 132 364 c 0,22,23
 132 340 132 340 130.5 318.5 c 128,-1,24
 129 297 129 297 127.5 274 c 128,-1,25
 126 251 126 251 125 224 c 128,-1,26
 124 197 124 197 124 162 c 0,27,28
 124 100 124 100 149.5 71 c 128,-1,29
 175 42 175 42 232 42 c 0,30,31
 285 42 285 42 321 69.5 c 128,-1,32
 357 97 357 97 392 145 c 1,33,-1
 392 498 l 1,34,-1
 447 498 l 1,35,-1
 447 144 l 2,36,37
 447 67 447 67 486 25 c 1,38,-1
 452 -8 l 1,0,1
385 581 m 1,39,-1
 265 714 l 1,40,-1
 145 580 l 1,41,-1
 108 613 l 1,42,-1
 217 736 l 1,43,44
 244 768 244 768 265 768 c 256,45,46
 286 768 286 768 313 736 c 1,47,-1
 422 614 l 1,48,-1
 385 581 l 1,39,-1
EndSplineSet
EndChar

StartChar: udieresis
Encoding: 252 252 190
Width: 536
Flags: W
LayerCount: 2
Fore
SplineSet
452 -8 m 1,0,1
 427 10 427 10 414.5 34.5 c 128,-1,2
 402 59 402 59 397 87 c 1,3,4
 334 -10 334 -10 232 -10 c 0,5,6
 145 -10 145 -10 107 32 c 128,-1,7
 69 74 69 74 69 151 c 0,8,9
 69 187 69 187 70 216.5 c 128,-1,10
 71 246 71 246 72.5 272 c 128,-1,11
 74 298 74 298 75.5 322 c 128,-1,12
 77 346 77 346 77 370 c 0,13,14
 77 399 77 399 72.5 429 c 128,-1,15
 68 459 68 459 55 488 c 1,16,-1
 103 504 l 1,17,18
 112 490 112 490 117.5 472 c 128,-1,19
 123 454 123 454 126.5 435 c 128,-1,20
 130 416 130 416 131 397.5 c 128,-1,21
 132 379 132 379 132 364 c 0,22,23
 132 340 132 340 130.5 318.5 c 128,-1,24
 129 297 129 297 127.5 274 c 128,-1,25
 126 251 126 251 125 224 c 128,-1,26
 124 197 124 197 124 162 c 0,27,28
 124 100 124 100 149.5 71 c 128,-1,29
 175 42 175 42 232 42 c 0,30,31
 285 42 285 42 321 69.5 c 128,-1,32
 357 97 357 97 392 145 c 1,33,-1
 392 498 l 1,34,-1
 447 498 l 1,35,-1
 447 144 l 2,36,37
 447 67 447 67 486 25 c 1,38,-1
 452 -8 l 1,0,1
330 662 m 0,39,40
 330 681 330 681 343 694 c 128,-1,41
 356 707 356 707 374 707 c 0,42,43
 393 707 393 707 406 694 c 128,-1,44
 419 681 419 681 419 662 c 0,45,46
 419 644 419 644 406 631 c 128,-1,47
 393 618 393 618 374 618 c 0,48,49
 356 618 356 618 343 631 c 128,-1,50
 330 644 330 644 330 662 c 0,39,40
109 662 m 0,51,52
 109 681 109 681 122 694 c 128,-1,53
 135 707 135 707 153 707 c 0,54,55
 172 707 172 707 185 694 c 128,-1,56
 198 681 198 681 198 662 c 0,57,58
 198 644 198 644 185 631 c 128,-1,59
 172 618 172 618 153 618 c 0,60,61
 135 618 135 618 122 631 c 128,-1,62
 109 644 109 644 109 662 c 0,51,52
EndSplineSet
EndChar

StartChar: yacute
Encoding: 253 253 191
Width: 516
Flags: W
LayerCount: 2
Fore
SplineSet
109 -212 m 1,0,1
 164 -212 164 -212 193.5 -191 c 128,-1,2
 223 -170 223 -170 236 -132 c 2,3,-1
 274 -13 l 1,4,5
 220 -7 220 -7 188 29.5 c 128,-1,6
 156 66 156 66 140 121 c 2,7,-1
 35 488 l 1,8,-1
 89 503 l 1,9,-1
 194 136 l 2,10,11
 206 94 206 94 228.5 67 c 128,-1,12
 251 40 251 40 289 35 c 1,13,-1
 439 503 l 1,14,-1
 491 486 l 1,15,-1
 288 -150 l 2,16,17
 271 -203 271 -203 229 -232 c 128,-1,18
 187 -261 187 -261 116 -261 c 1,19,-1
 109 -212 l 1,0,1
246 601 m 1,20,-1
 404 726 l 1,21,-1
 440 677 l 1,22,-1
 268 567 l 1,23,-1
 246 601 l 1,20,-1
EndSplineSet
EndChar

StartChar: thorn
Encoding: 254 254 192
Width: 533
Flags: W
LayerCount: 2
Fore
SplineSet
280 508 m 0,0,1
 329 508 329 508 366.5 492 c 128,-1,2
 404 476 404 476 430 448 c 128,-1,3
 456 420 456 420 469.5 383 c 128,-1,4
 483 346 483 346 483 303 c 0,5,6
 483 258 483 258 467 220.5 c 128,-1,7
 451 183 451 183 422 155 c 128,-1,8
 393 127 393 127 352 111.5 c 128,-1,9
 311 96 311 96 261 96 c 0,10,11
 223 96 223 96 192.5 98.5 c 128,-1,12
 162 101 162 101 140 104 c 1,13,-1
 140 0 l 1,14,-1
 85 0 l 1,15,-1
 85 726 l 1,16,-1
 140 726 l 1,17,-1
 140 437 l 1,18,19
 162 470 162 470 198.5 489 c 128,-1,20
 235 508 235 508 280 508 c 0,0,1
280 456 m 0,21,22
 257 456 257 456 234.5 449 c 128,-1,23
 212 442 212 442 192.5 427 c 128,-1,24
 173 412 173 412 159 390 c 128,-1,25
 145 368 145 368 140 338 c 1,26,-1
 140 158 l 1,27,28
 157 156 157 156 189.5 152 c 128,-1,29
 222 148 222 148 260 148 c 0,30,31
 297 148 297 148 328 159 c 128,-1,32
 359 170 359 170 380.5 190.5 c 128,-1,33
 402 211 402 211 414 239 c 128,-1,34
 426 267 426 267 426 301 c 0,35,36
 426 331 426 331 417 359 c 128,-1,37
 408 387 408 387 389.5 408.5 c 128,-1,38
 371 430 371 430 343.5 443 c 128,-1,39
 316 456 316 456 280 456 c 0,21,22
EndSplineSet
EndChar

StartChar: ydieresis
Encoding: 255 255 193
Width: 516
Flags: W
LayerCount: 2
Fore
SplineSet
109 -212 m 1,0,1
 164 -212 164 -212 193.5 -191 c 128,-1,2
 223 -170 223 -170 236 -132 c 2,3,-1
 274 -13 l 1,4,5
 220 -7 220 -7 188 29.5 c 128,-1,6
 156 66 156 66 140 121 c 2,7,-1
 35 488 l 1,8,-1
 89 503 l 1,9,-1
 194 136 l 2,10,11
 206 94 206 94 228.5 67 c 128,-1,12
 251 40 251 40 289 35 c 1,13,-1
 439 503 l 1,14,-1
 491 486 l 1,15,-1
 288 -150 l 2,16,17
 271 -203 271 -203 229 -232 c 128,-1,18
 187 -261 187 -261 116 -261 c 1,19,-1
 109 -212 l 1,0,1
339 662 m 0,20,21
 339 681 339 681 352 694 c 128,-1,22
 365 707 365 707 383 707 c 0,23,24
 402 707 402 707 415 694 c 128,-1,25
 428 681 428 681 428 662 c 0,26,27
 428 644 428 644 415 631 c 128,-1,28
 402 618 402 618 383 618 c 0,29,30
 365 618 365 618 352 631 c 128,-1,31
 339 644 339 644 339 662 c 0,20,21
118 662 m 0,32,33
 118 681 118 681 131 694 c 128,-1,34
 144 707 144 707 162 707 c 0,35,36
 181 707 181 707 194 694 c 128,-1,37
 207 681 207 681 207 662 c 0,38,39
 207 644 207 644 194 631 c 128,-1,40
 181 618 181 618 162 618 c 0,41,42
 144 618 144 618 131 631 c 128,-1,43
 118 644 118 644 118 662 c 0,32,33
EndSplineSet
EndChar

StartChar: dotlessi
Encoding: 305 305 194
Width: 235
Flags: W
LayerCount: 2
Fore
SplineSet
89 505 m 1,0,1
 108 491 108 491 119.5 473.5 c 128,-1,2
 131 456 131 456 138 436 c 128,-1,3
 145 416 145 416 147.5 395 c 128,-1,4
 150 374 150 374 150 353 c 2,5,-1
 150 0 l 1,6,-1
 95 0 l 1,7,-1
 95 353 l 2,8,9
 95 393 95 393 85 422 c 128,-1,10
 75 451 75 451 55 472 c 1,11,-1
 89 505 l 1,0,1
EndSplineSet
EndChar

StartChar: OE
Encoding: 338 338 195
Width: 1018
Flags: W
LayerCount: 2
Fore
SplineSet
988 0 m 1,0,-1
 597 0 l 1,1,2
 562 -3 562 -3 527 -5 c 0,3,4
 497 -7 497 -7 462 -8.5 c 128,-1,5
 427 -10 427 -10 398 -10 c 0,6,7
 321 -10 321 -10 259 17 c 128,-1,8
 197 44 197 44 152.5 91.5 c 128,-1,9
 108 139 108 139 84 203 c 128,-1,10
 60 267 60 267 60 342 c 256,11,12
 60 417 60 417 84 481.5 c 128,-1,13
 108 546 108 546 152.5 593 c 128,-1,14
 197 640 197 640 259 667 c 128,-1,15
 321 694 321 694 398 694 c 0,16,17
 419 694 419 694 455 693.5 c 128,-1,18
 491 693 491 693 534 691.5 c 128,-1,19
 577 690 577 690 623.5 689 c 128,-1,20
 670 688 670 688 711.5 686.5 c 128,-1,21
 753 685 753 685 785 684.5 c 128,-1,22
 817 684 817 684 833 684 c 0,23,24
 873 684 873 684 902 694 c 128,-1,25
 931 704 931 704 952 724 c 1,26,-1
 985 690 l 1,27,28
 971 671 971 671 953.5 659 c 128,-1,29
 936 647 936 647 916 640.5 c 128,-1,30
 896 634 896 634 875 631.5 c 128,-1,31
 854 629 854 629 833 629 c 0,32,33
 820 629 820 629 793.5 629.5 c 128,-1,34
 767 630 767 630 733 631 c 128,-1,35
 699 632 699 632 659.5 633 c 128,-1,36
 620 634 620 634 581 635 c 1,37,-1
 581 390 l 1,38,-1
 898 390 l 1,39,-1
 898 333 l 1,40,-1
 581 333 l 1,41,-1
 581 57 l 1,42,-1
 988 57 l 1,43,-1
 988 0 l 1,0,-1
398 45 m 0,44,45
 432 45 432 45 464.5 47 c 128,-1,46
 497 49 497 49 520 52 c 1,47,-1
 520 637 l 1,48,49
 480 638 480 638 448 638.5 c 128,-1,50
 416 639 416 639 397 639 c 0,51,52
 335 639 335 639 284 617.5 c 128,-1,53
 233 596 233 596 197 556.5 c 128,-1,54
 161 517 161 517 141 462.5 c 128,-1,55
 121 408 121 408 121 342 c 256,56,57
 121 276 121 276 141 221.5 c 128,-1,58
 161 167 161 167 197.5 128 c 128,-1,59
 234 89 234 89 285 67 c 128,-1,60
 336 45 336 45 398 45 c 0,44,45
EndSplineSet
EndChar

